<svg id="Capa_1" enable-background="new 0 0 511.521 511.521" height="512" viewBox="0 0 511.521 511.521" width="512" xmlns="http://www.w3.org/2000/svg"><g><g><g id="XMLID_218_"><g><path d="m504.023 235.481c0 15.41-8.87 28.75-21.78 35.2 4.63 3.31 8.45 7.68 11.12 12.75 2.67 5.06 4.18 10.84 4.18 16.96 0 15.55-9.72 28.82-23.4 34.1 6.81 6.21 11.08 15.15 11.08 25.09 0 16.24-11.4 29.82-26.64 33.16-1.06.24-1.81 1.19-1.81 2.28v.06c0 .87.49 1.65 1.25 2.07 10.32 5.69 17.36 16.57 17.59 29.13.34 19.11-15.58 34.58-34.69 34.58h-50.54-152.43c-9.38 0-18.59-2.52-26.66-7.28l-21-12.4-89.19-26.42v-129.43l89.19-89.18 13.73-28.91c6.7-14.11 18.34-25.27 32.71-31.38l10.46-4.44 63.76-37.13 16.94-39.73c4.36-10.24 14.42-16.89 25.55-16.89h.09c8.18 0 15.96 2.47 22.46 6.83 6.51 4.36 11.75 10.61 14.86 18.18 2.4 5.85 3.64 12.11 3.64 18.42v43.84c0 13.45-2.89 26.73-8.48 38.96l-9.62 21.08c-2.39 5.23 1.43 11.17 7.17 11.17h81.12c10.87 0 20.7 4.4 27.82 11.52s11.52 16.95 11.52 27.81z" fill="#ffe5c2"/></g></g><g><path d="m460.936 398.955c-4.775 2.425-10.185 3.813-15.867 3.813h-50.54-152.43c-9.38 0-18.59-2.52-26.66-7.28l-21-12.4-89.19-26.42v-75.481l-4.146 4.146v129.43l89.19 26.42 21 12.4c8.07 4.76 17.28 7.28 26.66 7.28h152.43 50.54c19.11 0 35.03-15.47 34.69-34.58-.208-11.342-5.964-21.311-14.677-27.328z" fill="#fed2a4"/></g><g><g id="XMLID_215_"><g><path d="m161.653 159.141h-20.23l-36.174 21.259v275.934l36.174 17.508h20.23c15.55 0 28.15-12.6 28.15-28.14v-258.42c0-15.541-12.6-28.141-28.15-28.141z" fill="#dff6fd"/><g fill="#c8effe"><path d="m161.653 406.616h-56.404v49.717l36.174 17.508h20.23c15.55 0 28.15-12.6 28.15-28.14v-67.225c0 15.54-12.6 28.14-28.15 28.14z"/><path d="m141.423 159.141v314.7h-121.904c-6.636 0-12.016-5.38-12.016-12.016v-290.668c0-6.636 5.38-12.016 12.016-12.016z"/></g></g></g></g><path d="m19.519 406.616c-6.636 0-12.016-5.38-12.016-12.016v67.225c0 6.636 5.38 12.016 12.016 12.016h121.904v-67.225z" fill="#99e6fc"/></g><path d="m505.038 300.396c0-10.604-3.861-20.775-10.646-28.685 10.755-8.774 17.129-21.924 17.129-36.227 0-25.826-21.011-46.836-46.836-46.836h-81.122c-.09 0-.212 0-.326-.178s-.063-.289-.026-.37l9.629-21.08c6.074-13.299 9.154-27.457 9.154-42.079v-43.835c0-7.333-1.414-14.49-4.202-21.273-7.408-18.017-24.781-29.658-44.345-29.658-14.162 0-26.901 8.418-32.454 21.446l-15.96 37.444-20.716 12.062c-3.58 2.084-4.792 6.676-2.708 10.255 2.085 3.58 6.677 4.791 10.255 2.708l22.866-13.314c1.396-.813 2.492-2.055 3.126-3.541l16.936-39.732c3.192-7.489 10.515-12.328 18.738-12.328 13.374 0 25.303 7.993 30.389 20.362 2.04 4.964 3.075 10.203 3.075 15.569v43.835c0 12.457-2.624 24.517-7.799 35.847l-9.629 21.08c-2.186 4.786-1.793 10.285 1.052 14.711s7.684 7.069 12.945 7.069h81.122c17.555 0 31.836 14.282 31.836 31.836 0 12.136-6.755 23.052-17.628 28.488-2.351 1.175-3.915 3.496-4.122 6.116-.207 2.621.973 5.158 3.109 6.689 7.613 5.453 12.158 14.282 12.158 23.618 0 11.915-7.473 22.803-18.594 27.094-2.425.935-4.192 3.059-4.672 5.613-.479 2.554.396 5.174 2.316 6.925 5.488 5.006 8.636 12.134 8.636 19.555 0 12.33-8.728 23.196-20.749 25.837-4.462.979-7.701 5.015-7.701 9.663 0 3.583 1.966 6.893 5.131 8.638 8.286 4.568 13.538 13.265 13.705 22.696.124 6.987-2.556 13.631-7.546 18.71-5.14 5.231-12.298 8.232-19.64 8.232h-202.972c-8.033 0-15.935-2.158-22.852-6.241l-17.8-10.506v-33.695c0-4.142-3.358-7.5-7.5-7.5s-7.5 3.358-7.5 7.5v42.785c0 11.383-9.261 20.644-20.644 20.644h-12.732v-299.706h12.732c11.383 0 20.644 9.261 20.644 20.644v183.671c0 4.142 3.358 7.5 7.5 7.5s7.5-3.358 7.5-7.5v-172.081l8.624-18.154c9.063-19.078 24.759-34.134 44.198-42.394.289-.123.569-.264.84-.421l13.279-7.731c3.58-2.084 4.792-6.675 2.708-10.255s-6.678-4.792-10.255-2.708l-12.88 7.499c-21.716 9.349-39.394 25.954-50.124 46.96-5.799-11.848-17.977-20.029-32.034-20.029h-154.156c-4.142 0-7.5 3.358-7.5 7.5s3.358 7.5 7.5 7.5h126.424v299.707h-126.424c-4.142 0-7.5 3.358-7.5 7.5s3.358 7.5 7.5 7.5h154.156c16.97 0 31.198-11.924 34.771-27.831l11.048 6.521c9.226 5.445 19.764 8.323 30.477 8.323h202.973c11.34 0 22.398-4.636 30.34-12.72 7.833-7.973 12.039-18.446 11.844-29.488-.201-11.33-5.078-21.981-13.186-29.56 13.647-6.938 22.802-21.207 22.802-37.009 0-8.178-2.439-16.129-6.877-22.854 11.768-8.106 19.19-21.71 19.19-36.333z"/></g></svg>