<svg id="Capa_1" enable-background="new 0 0 512.005 512.005" height="512" viewBox="0 0 512.005 512.005" width="512" xmlns="http://www.w3.org/2000/svg"><g><g><g id="XMLID_220_"><g><path d="m442.585 351.783v29.25h-347.12v-29.25c0-21.69 7.3-42.74 20.73-59.77l31.75-40.27c6.36-8.06 9.82-18.03 9.82-28.31v-16.64c0-37.91 18.4-73.46 49.35-95.34l13.85-9.79c1.59-1.13 2.53-2.95 2.53-4.89v-.09c0-1.2-.37-2.36-1.03-3.36-5.68-8.71-8.98-19.1-8.98-30.28 0-31.53 26.27-56.92 58.11-55.48 28.78 1.3 52.02 24.87 52.95 53.66.38 11.87-2.98 22.92-8.96 32.11-.66.99-1.03 2.15-1.03 3.34v.1c0 1.94.94 3.76 2.53 4.89l13.85 9.79c30.95 21.88 49.35 57.43 49.35 95.34v16.64c0 10.27 3.46 20.25 9.82 28.31l31.75 40.27c13.43 17.03 20.73 38.08 20.73 59.77zm-149.77-288.74c0-13.13-10.65-23.79-23.79-23.79s-23.79 10.66-23.79 23.79c0 13.14 10.65 23.79 23.79 23.79s23.79-10.65 23.79-23.79z" fill="#fee97d"/></g></g><g><path d="m155.396 359.985c0-21.69 7.3-42.74 20.73-59.77l31.75-40.27c6.36-8.06 9.82-18.03 9.82-28.31v-16.64c0-37.91 18.4-73.46 49.35-95.34 0 0 .934-.726 2.356-1.859 8.252-6.572 11.303-17.759 7.466-27.586-.634-1.623-1.158-3.1-1.472-4.247-3.25.901-6.774 1.147-10.434.524-10.462-1.78-18.59-10.513-19.613-21.076-1.373-14.192 9.753-26.158 23.675-26.158 4.505 0 8.717 1.254 12.307 3.43 5.636-9.376 13.956-16.946 23.903-21.653-9.135-7.894-20.836-12.888-33.641-13.467-31.84-1.44-58.11 23.95-58.11 55.48 0 11.18 3.3 21.57 8.98 30.28.66 1 1.03 2.16 1.03 3.36v.09c0 1.94-.94 3.76-2.53 4.89l-13.85 9.79c-30.95 21.88-49.35 57.43-49.35 95.34v16.64c0 10.28-3.46 20.25-9.82 28.31l-31.75 40.27c-13.43 17.03-20.73 38.08-20.73 59.77v29.25h59.931v-21.048z" fill="#fee45a"/></g><g><ellipse cx="269.025" cy="414.68" fill="#fff5c6" rx="210.132" ry="89.826"/><path d="m140.894 414.68c0-43.611 72.708-79.958 169.131-88.111-13.262-1.121-26.969-1.715-41.001-1.715-116.053 0-210.132 40.216-210.132 89.826s94.079 89.826 210.132 89.826c14.032 0 27.751-.589 41.013-1.71-96.422-8.154-169.143-44.506-169.143-88.116z" fill="#fef0ae"/><g id="XMLID_221_"><g><path d="m160.791 454.087c-30.07-8.74-48.83-21.08-48.83-34.76 0-26.49 70.33-47.97 157.09-47.97s157.09 21.48 157.09 47.97c0 14.84-22.07 28.1-56.72 36.9-5.96 1.58-71.44 12.25-100.37 12.25-38.99 0-108.26-14.39-108.26-14.39z" fill="#fee45a"/></g></g><path d="m140.894 414.68c0-9.333 3.34-18.332 9.52-26.795-23.953 8.42-38.453 19.415-38.453 31.442 0 13.68 18.76 26.02 48.83 34.76 0 0 .621.129 1.774.362-13.872-11.989-21.671-25.49-21.671-39.769z" fill="#fedf30"/><circle cx="405.869" cy="170.81" fill="#f37c7c" r="67.665"/></g></g><g><path d="m450.084 359.977v-8.199c0-23.266-7.934-46.139-22.339-64.408l-18.59-23.574c-2.566-3.253-7.283-3.81-10.533-1.245-3.253 2.565-3.811 7.281-1.246 10.533l18.59 23.574c12.191 15.459 18.954 34.772 19.104 54.452-39.619-20.778-98.815-33.757-166.045-33.757s-126.427 12.978-166.045 33.757c.15-19.68 6.913-38.993 19.104-54.452l31.753-40.267c7.37-9.347 11.43-21.051 11.43-32.956v-16.646c0-8.505 1.005-17.03 2.985-25.336.962-4.029-1.525-8.075-5.555-9.036-4.026-.962-8.074 1.526-9.035 5.555-2.253 9.445-3.396 19.141-3.396 28.816v16.646c0 8.549-2.915 16.955-8.209 23.667l-31.753 40.267c-14.405 18.269-22.339 41.143-22.339 64.408v8.199c-23.17 15.495-36.572 34.269-36.572 54.702 0 54.575 95.596 97.326 217.632 97.326s217.632-42.75 217.632-97.326c-.001-20.43-13.403-39.205-36.573-54.7zm-35.422 111.323c-38.778 16.577-90.5 25.706-145.638 25.706s-106.859-9.129-145.638-25.706c-36.221-15.483-56.994-36.121-56.994-56.62s20.773-41.137 56.994-56.62c38.778-16.577 90.5-25.706 145.638-25.706s106.859 9.129 145.638 25.706c36.221 15.483 56.994 36.121 56.994 56.62s-20.773 41.136-56.994 56.62z"/><path d="m325.193 366.995c-17.962-2.064-36.86-3.11-56.169-3.11-42.682 0-82.907 5.106-113.269 14.377-33.573 10.252-51.319 24.462-51.319 41.093 0 18.534 21.566 33.807 62.368 44.168.619.158 1.24.233 1.852.233 3.35 0 6.401-2.261 7.264-5.656 1.02-4.015-1.409-8.096-5.424-9.115-16.573-4.209-30.118-9.48-39.168-15.243-7.669-4.883-11.892-9.993-11.892-14.388 0-16.899 56.908-40.47 149.588-40.47 18.739 0 37.061 1.014 54.456 3.013 4.113.469 7.835-2.479 8.308-6.595.473-4.114-2.479-7.834-6.595-8.307z"/><path d="m358.306 372.219c-4.054-.833-8.023 1.775-8.859 5.832s1.775 8.023 5.832 8.859c43.751 9.017 63.334 22.792 63.334 32.444 0 7.687-13.372 20.06-51.06 29.63-4.015 1.02-6.443 5.101-5.424 9.115.862 3.396 3.914 5.656 7.264 5.656.611 0 1.232-.075 1.852-.233 40.802-10.361 62.368-25.634 62.368-44.168-.001-11.806-9.784-33.631-75.307-47.135z"/><path d="m168.991 156.287c1.159.649 2.417.958 3.657.958 2.627 0 5.177-1.383 6.551-3.837 7.901-14.113 19.054-26.504 32.25-35.835l13.842-9.788c3.571-2.524 5.703-6.642 5.703-11.105 0-2.621-.775-5.196-2.243-7.449-5.084-7.798-7.771-16.852-7.771-26.183 0-13.244 5.274-25.58 14.853-34.735 9.571-9.149 22.146-13.854 35.429-13.259 24.874 1.123 44.984 21.51 45.783 46.414.317 9.903-2.361 19.505-7.748 27.767-1.466 2.25-2.241 4.823-2.241 7.536 0 4.373 2.132 8.491 5.702 11.015l12.191 8.62c3.383 2.391 8.063 1.587 10.454-1.794 2.392-3.382 1.588-8.063-1.794-10.454l-11.055-7.816c6.61-10.6 9.886-22.794 9.482-35.355-1.049-32.686-27.447-59.443-60.1-60.917-17.405-.795-33.909 5.394-46.47 17.4-12.566 12.011-19.486 28.197-19.486 45.577 0 11.819 3.286 23.302 9.516 33.293l-12.706 8.984c-15.009 10.612-27.691 24.705-36.678 40.754-2.024 3.615-.735 8.185 2.879 10.209z"/><path d="m237.735 63.047c0 17.253 14.036 31.29 31.289 31.29s31.289-14.037 31.289-31.29-14.036-31.289-31.289-31.289-31.289 14.036-31.289 31.289zm47.579 0c0 8.982-7.308 16.29-16.289 16.29s-16.289-7.308-16.289-16.29 7.308-16.289 16.289-16.289 16.289 7.307 16.289 16.289z"/><path d="m65.949 293.36v1.365c0 4.142 3.357 7.5 7.5 7.5s7.5-3.358 7.5-7.5v-1.365c0-8.897 4.363-17.241 11.671-22.317 3.401-2.363 4.243-7.037 1.88-10.439-2.363-3.401-7.035-4.242-10.438-1.88-11.341 7.879-18.113 20.827-18.113 34.636z"/><path d="m74.967 233.128c3.401-2.364 4.243-7.037 1.88-10.439-2.363-3.401-7.036-4.242-10.438-1.88-25.71 17.862-41.06 47.215-41.06 78.521v3.467c0 4.142 3.357 7.5 7.5 7.5s7.5-3.358 7.5-7.5v-3.467c0-26.394 12.941-51.143 34.618-66.202z"/><path d="m405.869 245.975c41.446 0 75.165-33.719 75.165-75.165 0-22.376-9.874-43.434-27.09-57.774-3.182-2.651-7.911-2.221-10.563.962s-2.22 7.912.963 10.563c13.784 11.481 21.689 28.338 21.689 46.249 0 33.175-26.99 60.165-60.165 60.165s-60.165-26.99-60.165-60.165 26.99-60.166 60.165-60.166c4.305 0 8.646.472 12.905 1.402 4.046.884 8.043-1.68 8.928-5.726.884-4.047-1.68-8.044-5.727-8.928-5.308-1.16-10.728-1.748-16.106-1.748-41.446 0-75.165 33.719-75.165 75.166s33.72 75.165 75.166 75.165z"/><path d="m385.766 203.449c4.143 0 7.5-3.358 7.5-7.5v-44.515c0-4.142-3.357-7.5-7.5-7.5h-11.442c-4.143 0-7.5 3.358-7.5 7.5s3.357 7.5 7.5 7.5h3.942v37.015c0 4.143 3.357 7.5 7.5 7.5z"/><path d="m405.237 164.809v17.766c0 11.51 9.364 20.875 20.875 20.875 11.51 0 20.874-9.364 20.874-20.875v-17.766c0-11.51-9.364-20.875-20.875-20.875-11.509.001-20.874 9.365-20.874 20.875zm26.749 0v17.766c0 3.239-2.635 5.875-5.874 5.875h-.001c-3.239 0-5.874-2.635-5.874-5.875v-17.766c0-3.239 2.636-5.875 5.875-5.875s5.874 2.636 5.874 5.875z"/></g></g></svg>