<svg id="Capa_1" enable-background="new 0 0 512.988 512.988" height="512" viewBox="0 0 512.988 512.988" width="512" xmlns="http://www.w3.org/2000/svg"><g><g><circle cx="273.26" cy="272.31" fill="#f37c7c" r="76.499"/><path d="m277.888 315.072 35.939-35.939c10.375-10.375 10.375-27.197 0-37.573-10.375-10.375-27.197-10.375-37.573 0l-4.518 4.518-5.477-5.262c-10.431-10.022-26.964-9.857-37.193.372l-.372.372c-10.375 10.375-10.375 27.197 0 37.573l35.939 35.939c3.659 3.661 9.594 3.661 13.255 0z" fill="#f3f0f3"/><circle cx="125.813" cy="239.136" fill="#dff6fd" r="115.785"/><path d="m72.344 239.136c0-53.151 35.828-97.934 84.639-111.541-9.914-2.764-20.375-4.244-31.17-4.244-63.946 0-115.785 51.839-115.785 115.785s51.838 115.784 115.785 115.784c10.795 0 21.244-1.483 31.158-4.246-48.812-13.607-84.627-58.388-84.627-111.538z" fill="#c8effe"/><g><path d="m172.872 203.579c-1.495 0-2.707-1.212-2.707-2.707v-26.54c0-8.961-7.264-16.225-16.225-16.225-7.014 0-13.235 4.508-15.418 11.174l-7.416 22.639-25.651 23.319h-39.431v76.952h39.431 58.854c15.285 0 28.806-9.909 33.408-24.485l6.671-21.124c6.727-21.302-9.177-43.003-31.516-43.003z" fill="#fed2a4"/><path d="m105.455 212.238c0-7.013-5.686-12.699-12.699-12.699h-25.125c-4.392 0-7.952 3.56-7.952 7.952v86.721c0 4.392 3.56 7.952 7.952 7.952h25.125c7.013 0 12.699-5.686 12.699-12.699v-.275z" fill="#ade194"/><path d="m67.631 302.164h23.357c-11.793-18.136-18.645-39.782-18.645-63.029 0-13.912 2.453-27.24 6.951-39.597h-11.663c-4.392 0-7.952 3.56-7.952 7.952v86.721c0 4.393 3.56 7.953 7.952 7.953z" fill="#97da7b"/><circle cx="427.989" cy="272.238" fill="#fee97d" r="77.499"/><path d="m427.989 320.261c-12.987 0-23.514-10.528-23.514-23.514v-5.833c0-1.676 1.359-3.035 3.035-3.035h40.958c1.676 0 3.035 1.359 3.035 3.035v5.833c0 12.987-10.527 23.514-23.514 23.514z" fill="#f37c7c"/><path d="m127.167 342.759h58.714c4.145 0 6.221 5.011 3.29 7.942l-13.041 13.041c-1.802 1.802-1.802 4.725 0 6.527l32.405 32.405c1.817 1.817 1.817 4.763 0 6.58l-15.76 15.76c-1.817 1.817-4.763 1.817-6.58 0l-30.199-30.199c-1.817-1.817-4.763-1.817-6.58 0l-18.307 18.307c-2.914 2.914-7.899.88-7.942-3.241l-.652-62.421c-.027-2.589 2.064-4.701 4.652-4.701z" fill="#5f99d7"/></g></g><g><path d="m164.309 299.69c18.646 0 34.946-11.946 40.56-29.727l6.671-21.124c3.934-12.457 1.761-25.645-5.961-36.181-6.767-9.233-16.757-15.015-27.915-16.305v-22.022c0-13.082-10.643-23.725-23.725-23.725-10.284 0-19.345 6.566-22.546 16.339l-6.799 20.756-14.91 13.554c-3.606-5.539-9.841-9.217-16.929-9.217h-25.124c-8.521 0-15.452 6.932-15.452 15.452v16.603c0 4.142 3.358 7.5 7.5 7.5s7.5-3.358 7.5-7.5v-16.603c0-.25.203-.452.452-.452h25.125c2.867 0 5.199 2.333 5.199 5.199 0 .518.053 1.024.153 1.512-.099.486-.153.984-.153 1.488v73.952.275c0 2.867-2.332 5.199-5.199 5.199h-25.125c-.25 0-.452-.203-.452-.452v-38.13c0-4.142-3.358-7.5-7.5-7.5s-7.5 3.358-7.5 7.5v38.13c0 8.52 6.932 15.452 15.452 15.452h25.125c7.404 0 13.873-4.017 17.389-9.974h54.164zm-28.159-102.221c.961-.874 1.678-1.981 2.083-3.215l7.416-22.639c1.177-3.594 4.509-6.008 8.291-6.008 4.811 0 8.725 3.914 8.725 8.725v26.54c0 5.628 4.579 10.208 10.208 10.208 8.231 0 15.743 3.808 20.608 10.447s6.234 14.949 3.756 22.797l-6.671 21.125c-3.635 11.51-14.186 19.243-26.256 19.243h-51.354v-66.134z"/><path d="m273.691 305.893c-.386.386-1.016.387-1.403-.001l-6.897-6.896c-2.93-2.929-7.677-2.928-10.607 0-2.929 2.929-2.928 7.678 0 10.607l6.896 6.896c3.021 3.021 7.037 4.685 11.309 4.685s8.288-1.664 11.308-4.685l32.562-32.562c5.963-5.963 9.247-13.891 9.247-22.324s-3.284-16.361-9.247-22.324-13.891-9.247-22.324-9.247-16.361 3.284-22.325 9.248l-3.551 3.551c-2.929 2.929-2.928 7.678.001 10.606 2.929 2.929 7.678 2.929 10.606-.001l3.55-3.551c6.461-6.461 16.975-6.461 23.436 0s6.461 16.974 0 23.436z"/><path d="m427.989 187.239c-34.456 0-64.167 20.62-77.499 50.157-13.333-29.537-43.044-50.157-77.499-50.157-2.126 0-4.38.098-6.892.3-4.129.332-7.207 3.948-6.875 8.077.333 4.129 3.951 7.2 8.077 6.875 2.107-.169 3.968-.252 5.689-.252 38.598 0 70 31.401 70 69.999s-31.402 70-70 70c-11.635 0-23.154-2.912-33.313-8.42-3.642-1.974-8.194-.622-10.168 3.018-1.974 3.642-.623 8.194 3.018 10.168 12.347 6.695 26.338 10.233 40.463 10.233 34.456 0 64.167-20.62 77.499-50.157 13.333 29.537 43.043 50.157 77.499 50.157 46.869 0 85-38.131 85-85s-38.131-84.998-84.999-84.998zm0 154.998c-38.598 0-69.999-31.402-69.999-70s31.401-69.999 69.999-69.999 70 31.401 70 69.999-31.403 70-70 70z"/><path d="m409.87 249.765c.043-2.375-1.041-4.629-2.922-6.079l-13.625-10.493c-3.283-2.527-7.991-1.917-10.519 1.366-2.527 3.282-1.916 7.991 1.366 10.519l5.612 4.322-5.393 3.849c-3.371 2.406-4.153 7.09-1.747 10.462 1.464 2.05 3.77 3.143 6.111 3.143 1.508 0 3.03-.453 4.351-1.396l13.625-9.725c1.933-1.38 3.098-3.594 3.141-5.968z"/><path d="m471.589 253.249-5.393-3.849 5.612-4.322c3.282-2.527 3.893-7.237 1.366-10.519s-7.236-3.893-10.519-1.366l-13.625 10.493c-1.882 1.449-2.966 3.704-2.922 6.079.043 2.375 1.208 4.588 3.141 5.968l13.625 9.725c1.321.943 2.843 1.396 4.351 1.396 2.341 0 4.647-1.093 6.111-3.143 2.407-3.372 1.624-8.056-1.747-10.462z"/><path d="m451.503 280.379h-47.029c-4.142 0-7.5 3.358-7.5 7.5v8.868c0 17.101 13.913 31.014 31.014 31.014 17.102 0 31.015-13.913 31.015-31.014v-8.868c0-4.142-3.357-7.5-7.5-7.5zm-7.5 16.368c0 8.83-7.184 16.014-16.015 16.014-8.83 0-16.014-7.184-16.014-16.014v-1.368h32.029z"/><path d="m180.628 106.643c4.142 0 7.5-3.358 7.5-7.5v-12.532c0-4.142-3.358-7.5-7.5-7.5s-7.5 3.358-7.5 7.5v12.532c0 4.142 3.358 7.5 7.5 7.5z"/><path d="m205.559 116.962c1.23.761 2.593 1.124 3.94 1.124 2.511 0 4.965-1.261 6.384-3.553l7.083-11.442c2.18-3.522 1.093-8.145-2.429-10.325-3.523-2.181-8.145-1.093-10.325 2.429l-7.083 11.442c-2.179 3.523-1.092 8.145 2.43 10.325z"/><path d="m234.034 135.434c.887 0 1.79-.159 2.668-.493l11.442-4.359c3.871-1.475 5.813-5.808 4.339-9.679s-5.808-5.813-9.679-4.339l-11.442 4.359c-3.871 1.475-5.813 5.808-4.339 9.679 1.141 2.992 3.989 4.832 7.011 4.832z"/><path d="m183.474 367.006 11.001-11.001c3.488-3.488 4.522-8.687 2.635-13.244s-6.295-7.502-11.228-7.502h-58.714c-3.271 0-6.338 1.28-8.639 3.605s-3.548 5.405-3.513 8.675l.652 62.42c.051 4.904 3.018 9.271 7.559 11.125 4.542 1.854 9.717.811 13.186-2.658l16.293-16.294 28.185 28.186c2.295 2.296 5.348 3.561 8.594 3.561 3.247 0 6.299-1.265 8.593-3.56l15.76-15.76c2.295-2.295 3.56-5.347 3.56-8.593s-1.264-6.298-3.56-8.593zm6.012 50.691-28.186-28.185c-2.369-2.369-5.48-3.554-8.593-3.554-3.112 0-6.225 1.185-8.594 3.554l-13.517 13.517-.551-52.77h48.962l-8.154 8.154c-4.738 4.738-4.738 12.448 0 17.186l30.365 30.366z"/><path d="m244.038 250.07c-4.104-.563-7.887 2.309-8.449 6.412-3.198 23.336-13.59 44.692-30.053 61.758-2.875 2.981-2.79 7.729.191 10.605 1.456 1.404 3.332 2.102 5.206 2.102 1.965 0 3.927-.767 5.399-2.293 18.687-19.372 30.485-43.625 34.118-70.135.562-4.104-2.309-7.887-6.412-8.449z"/><path d="m94.7 347.723c-22.513-6.597-42.793-20.583-57.106-39.381-14.781-19.415-22.594-42.576-22.594-66.979 0-61.102 49.71-110.813 110.813-110.813 55.246 0 102.456 41.254 109.814 95.961.552 4.105 4.33 6.986 8.433 6.433 4.105-.552 6.985-4.328 6.433-8.433-8.355-62.118-61.957-108.961-124.681-108.961-69.373 0-125.812 56.44-125.812 125.813 0 27.714 8.873 54.017 25.66 76.065 16.238 21.328 39.259 37.199 64.823 44.689.704.207 1.414.305 2.112.305 3.244 0 6.235-2.122 7.194-5.393 1.165-3.974-1.114-8.141-5.089-9.306z"/></g></g></svg>