<svg id="Capa_1" enable-background="new 0 0 512.576 512.576" height="512" viewBox="0 0 512.576 512.576" width="512" xmlns="http://www.w3.org/2000/svg"><g><g><ellipse cx="86.316" cy="288.53" fill="#dff6fd" rx="78.816" ry="76.499"/><circle cx="427.577" cy="285.9" fill="#fee97d" r="77.499"/><circle cx="256.576" cy="252.668" fill="#f37c7c" r="120.655"/><path d="m205.72 252.668c0-54.5 36.152-100.557 85.77-115.527-11.049-3.334-22.778-5.129-34.914-5.129-66.636 0-120.655 54.019-120.655 120.655s54.019 120.655 120.655 120.655c12.136 0 23.851-1.8 34.9-5.133-49.618-14.968-85.756-61.021-85.756-115.521z" fill="#ee6161"/><path d="m265.613 306.474 49.004-49.004c14.147-14.147 14.147-37.085 0-51.232-14.147-14.147-37.085-14.147-51.232 0l-6.161 6.161-7.468-7.175c-14.224-13.666-36.767-13.441-50.715.507l-.507.507c-14.147 14.147-14.147 37.085 0 51.232l49.004 49.004c4.992 4.991 13.084 4.991 18.075 0z" fill="#f3f0f3"/><path d="m286.189 349.293h58.714c4.145 0 6.221 5.011 3.29 7.942l-13.015 13.015c-1.817 1.817-1.817 4.763 0 6.58l32.379 32.379c1.817 1.817 1.817 4.763 0 6.58l-15.76 15.76c-1.817 1.817-4.763 1.817-6.58 0l-30.199-30.199c-1.817-1.817-4.763-1.817-6.58 0l-18.307 18.307c-2.914 2.914-7.899.88-7.942-3.241l-.652-62.421c-.028-2.589 2.063-4.702 4.652-4.702z" fill="#5f99d7"/><path d="m427.577 336.925c-12.987 0-23.514-10.528-23.514-23.514v-4.741c0-2.279 1.848-4.127 4.127-4.127h38.774c2.279 0 4.127 1.848 4.127 4.127v4.741c0 12.986-10.528 23.514-23.514 23.514z" fill="#f37c7c"/><path d="m48.053 315.344h44.565c7.103 0 13.567-4.103 16.59-10.531l3.696-7.859c6.579-13.989-3.628-30.068-19.086-30.068v-10.924c0-8.342-6.763-15.105-15.105-15.105-6.11 0-11.618 3.681-13.955 9.325l-7.491 18.088h-9.215c-3.623 0-6.56 2.937-6.56 6.56v33.953c.001 3.624 2.938 6.561 6.561 6.561z" fill="#fed2a4"/></g><g><path d="m289.239 282.848c-2.929-2.929-7.678-2.929-10.606 0l-18.323 18.323c-2.059 2.059-5.409 2.059-7.468 0l-49.005-49.004c-11.201-11.201-11.201-29.425 0-40.626l.507-.507c10.978-10.979 29.019-11.16 40.216-.402l7.468 7.175c2.944 2.83 7.612 2.783 10.5-.104l6.161-6.161c5.426-5.426 12.64-8.414 20.313-8.414s14.887 2.988 20.313 8.414c11.201 11.201 11.201 29.425 0 40.625l-7.789 7.789c-2.929 2.929-2.929 7.677 0 10.606 2.929 2.93 7.678 2.929 10.606 0l7.789-7.788c17.049-17.049 17.049-44.79 0-61.839-8.259-8.259-19.24-12.808-30.919-12.808s-22.661 4.549-30.919 12.807l-.962.963-2.167-2.082c-17.044-16.375-44.504-16.099-61.215.612l-.507.507c-17.049 17.049-17.049 44.79 0 61.839l49.005 49.004c3.831 3.831 8.923 5.94 14.34 5.94s10.51-2.109 14.34-5.94l18.323-18.323c2.928-2.928 2.928-7.677-.001-10.606z"/><path d="m141.476 281.154c4.077-.734 6.786-4.634 6.052-8.71-1.171-6.501-1.765-13.155-1.765-19.775 0-61.102 49.71-110.813 110.813-110.813s110.812 49.71 110.812 110.813c0 22.845-6.9 44.782-19.954 63.441-2.375 3.394-1.548 8.07 1.846 10.445 1.309.916 2.808 1.355 4.293 1.355 2.365 0 4.693-1.116 6.152-3.201 14.826-21.192 22.663-46.103 22.663-72.04 0-69.373-56.439-125.813-125.812-125.813s-125.813 56.439-125.813 125.813c0 7.509.674 15.057 2.002 22.433.735 4.077 4.637 6.785 8.711 6.052z"/><path d="m252.015 363.38c-40.869-1.654-77.356-25.594-95.223-62.478-1.806-3.728-6.292-5.286-10.019-3.48-3.728 1.806-5.286 6.292-3.48 10.02 20.283 41.871 61.71 69.048 108.116 70.926.104.004.206.006.309.006 4.002 0 7.325-3.161 7.488-7.197.167-4.139-3.053-7.63-7.191-7.797z"/><path d="m342.495 373.54 11.001-11.001c3.488-3.488 4.522-8.687 2.635-13.244s-6.295-7.502-11.228-7.502h-58.714c-3.271 0-6.338 1.28-8.639 3.605s-3.548 5.405-3.513 8.675l.652 62.42c.051 4.905 3.019 9.271 7.56 11.125 4.542 1.853 9.717.811 13.185-2.658l16.294-16.293 28.186 28.186c2.295 2.295 5.347 3.56 8.593 3.56s6.298-1.264 8.593-3.56l15.76-15.76c2.295-2.295 3.56-5.347 3.56-8.593s-1.264-6.297-3.56-8.593zm6.012 50.691-28.186-28.186c-2.295-2.295-5.347-3.56-8.593-3.56s-6.297 1.264-8.593 3.56l-13.517 13.517-.551-52.77h48.962l-8.154 8.154c-4.738 4.738-4.738 12.448 0 17.186l30.365 30.366z"/><path d="m427.577 203.902c-10.242 0-20.28 1.816-29.833 5.398-3.878 1.454-5.844 5.777-4.389 9.656 1.454 3.878 5.777 5.842 9.656 4.389 7.864-2.948 16.129-4.443 24.567-4.443 38.598 0 70 31.402 70 70s-31.402 70-70 70c-18.469 0-35.897-7.139-49.076-20.103-2.953-2.905-7.702-2.866-10.606.087-2.905 2.953-2.866 7.702.087 10.606 16.001 15.741 37.166 24.41 59.595 24.41 46.869 0 85-38.131 85-85s-38.133-85-85.001-85z"/><path d="m472.762 251.223c-2.527-3.282-7.237-3.894-10.518-1.366l-13.625 10.493c-1.882 1.449-2.966 3.704-2.922 6.078.043 2.375 1.208 4.589 3.142 5.968l13.625 9.725c1.321.943 2.843 1.396 4.351 1.396 2.341 0 4.647-1.093 6.111-3.144 2.406-3.372 1.624-8.055-1.748-10.461l-5.393-3.849 5.612-4.322c3.281-2.527 3.892-7.236 1.365-10.518z"/><path d="m396.563 304.542v8.869c0 17.101 13.913 31.014 31.014 31.014 17.102 0 31.015-13.913 31.015-31.014v-8.869c0-4.142-3.358-7.5-7.5-7.5h-47.029c-4.143 0-7.5 3.358-7.5 7.5zm15 7.5h32.029v1.369c0 8.83-7.184 16.014-16.015 16.014-8.83 0-16.014-7.184-16.014-16.014z"/><path d="m134.376 338.512c-13.21 13.148-30.746 20.389-49.377 20.389-38.598 0-70-31.402-70-70s31.402-70 70-70c8.6 0 17.025 1.558 25.041 4.631 3.865 1.485 8.205-.45 9.688-4.318s-.451-8.205-4.318-9.688c-9.736-3.732-19.967-5.625-30.41-5.625-46.869 0-85 38.131-85 85s38.13 85 85 85c22.625 0 43.918-8.792 59.959-24.757 2.936-2.922 2.947-7.671.025-10.606-2.924-2.937-7.672-2.947-10.608-.026z"/><path d="m78.713 233.358c-9.176 0-17.374 5.478-20.884 13.956l-5.574 13.458h-4.203c-7.753 0-14.06 6.307-14.06 14.06v33.953c0 7.753 6.307 14.06 14.06 14.06h44.565c9.961 0 19.137-5.824 23.377-14.838l3.695-7.859c4.189-8.905 3.541-19.182-1.733-27.491-3.895-6.136-9.835-10.446-16.64-12.281v-4.413c.002-12.465-10.138-22.605-22.603-22.605zm26.58 47.336c2.544 4.008 2.845 8.771.824 13.068l-3.695 7.859c-1.778 3.78-5.626 6.222-9.803 6.222h-43.626v-32.073h8.274c3.034 0 5.769-1.828 6.929-4.63l7.492-18.088c1.181-2.852 3.938-4.694 7.025-4.694 4.193 0 7.604 3.411 7.604 7.604v10.924c0 4.142 3.358 7.5 7.5 7.5 4.749 0 8.932 2.3 11.476 6.308z"/><path d="m256.576 102.801c4.142 0 7.5-3.358 7.5-7.5v-15.636c0-4.142-3.358-7.5-7.5-7.5s-7.5 3.358-7.5 7.5v15.636c0 4.142 3.358 7.5 7.5 7.5z"/><path d="m289.956 112.71c.791.265 1.594.391 2.385.391 3.135 0 6.059-1.981 7.11-5.118l4.97-14.825c1.317-3.927-.8-8.178-4.727-9.495-3.928-1.318-8.178.799-9.495 4.727l-4.97 14.825c-1.317 3.928.8 8.179 4.727 9.495z"/><path d="m213.701 107.983c1.051 3.137 3.975 5.118 7.11 5.118.79 0 1.594-.126 2.385-.391 3.927-1.316 6.044-5.567 4.727-9.495l-4.97-14.825c-1.316-3.927-5.568-6.046-9.495-4.727-3.927 1.316-6.044 5.567-4.727 9.495z"/></g></g></svg>