<svg id="Capa_1" enable-background="new 0 0 510.619 510.619" height="512" viewBox="0 0 510.619 510.619" width="512" xmlns="http://www.w3.org/2000/svg"><g><g><circle cx="239.998" cy="266.283" fill="#f37c7c" r="77.499"/><circle cx="85" cy="267.322" fill="#dff6fd" r="77.499"/><path d="m248.14 309.707 35.939-35.939c10.375-10.375 10.375-27.197 0-37.573-10.375-10.375-27.197-10.375-37.573 0l-4.518 4.518-5.477-5.262c-10.431-10.022-26.964-9.857-37.193.372l-.372.372c-10.375 10.375-10.375 27.197 0 37.573l35.939 35.939c3.66 3.661 9.594 3.661 13.255 0z" fill="#f3f0f3"/><circle cx="384.806" cy="240.165" fill="#fee97d" r="120.655"/><path d="m330.931 240.165c0-55.052 36.871-101.488 87.265-115.971-10.604-3.048-21.806-4.684-33.39-4.684-66.636 0-120.655 54.019-120.655 120.655s54.019 120.655 120.655 120.655c11.584 0 22.786-1.636 33.39-4.684-50.394-14.483-87.265-60.92-87.265-115.971z" fill="#fee45a"/><path d="m419.906 342.187h58.714c4.145 0 6.221 5.011 3.29 7.942l-13.015 13.015c-1.817 1.817-1.817 4.763 0 6.58l32.379 32.379c1.817 1.817 1.817 4.763 0 6.58l-15.76 15.76c-1.817 1.817-4.763 1.817-6.58 0l-30.199-30.199c-1.817-1.817-4.763-1.817-6.58 0l-18.307 18.307c-2.914 2.914-7.899.88-7.942-3.241l-.652-62.421c-.027-2.589 2.064-4.702 4.652-4.702z" fill="#5f99d7"/><path d="m53.841 300.478h47.517c7.573 0 14.465-4.375 17.689-11.228l3.941-8.379c7.015-14.915-3.868-32.06-20.35-32.06v-11.647c0-8.895-7.21-16.105-16.105-16.105-6.514 0-12.387 3.924-14.879 9.943l-7.987 19.286h-9.825c-3.863 0-6.994 3.132-6.994 6.994v36.202c-.002 3.863 3.13 6.994 6.993 6.994z" fill="#fed2a4"/><g id="XMLID_225_"><g><path d="m451.586 247.567v6.61c0 36.88-29.9 66.78-66.78 66.78s-66.78-29.9-66.78-66.78v-6.61c0-3.74 3.04-6.78 6.78-6.78h120c3.74 0 6.78 3.04 6.78 6.78z" fill="#f37c7c"/></g></g><g id="XMLID_226_"><g><path d="m430.936 301.437.51.52c-12.04 11.75-28.49 19-46.64 19s-34.6-7.25-46.64-19l.51-.52c7.35-18.28 25.22-31.19 46.13-31.19s38.78 12.91 46.13 31.19z" fill="#ee6161"/></g></g></g><g><path d="m268.541 329.65c-9.028 4.039-18.632 6.087-28.542 6.087-38.598 0-69.999-31.402-69.999-70s31.401-69.999 69.999-69.999c1.646 0 3.378.074 5.452.233 4.127.321 7.735-2.774 8.052-6.904s-2.774-7.735-6.904-8.052c-2.431-.187-4.59-.277-6.6-.277-34.456 0-64.167 20.62-77.499 50.157-13.333-29.537-43.044-50.157-77.5-50.157-46.869 0-85 38.13-85 84.999s38.131 85 85 85c34.456 0 64.167-20.62 77.5-50.157 13.333 29.537 43.043 50.157 77.499 50.157 12.036 0 23.7-2.488 34.667-7.395 3.781-1.691 5.476-6.128 3.783-9.909-1.691-3.78-6.127-5.472-9.908-3.783zm-183.541 6.087c-38.598 0-70-31.402-70-70s31.402-69.999 70-69.999 70 31.401 70 69.999-31.403 70-70 70z"/><path d="m476.212 366.435 11.002-11.002c3.487-3.488 4.521-8.687 2.634-13.244s-6.295-7.501-11.228-7.501h-58.715c-3.27 0-6.336 1.28-8.637 3.604-2.3 2.324-3.549 5.404-3.516 8.676l.653 62.42c.052 4.905 3.019 9.271 7.561 11.125 4.541 1.854 9.717.809 13.185-2.658l16.293-16.293 28.186 28.186c2.296 2.295 5.348 3.56 8.594 3.56 3.247 0 6.3-1.265 8.593-3.56l15.762-15.761c4.737-4.738 4.737-12.447-.001-17.186zm6.012 50.691-28.186-28.186c-2.295-2.295-5.347-3.56-8.593-3.56-3.247 0-6.299 1.265-8.594 3.56l-13.517 13.517-.553-52.77h48.963l-8.154 8.154c-4.737 4.738-4.737 12.447 0 17.186l30.367 30.366z"/><path d="m268.589 264.273c4.104-.557 6.98-4.335 6.424-8.44-.677-4.99-1.02-10.05-1.02-15.042 0-61.102 49.71-110.813 110.813-110.813s110.813 49.71 110.813 110.813c0 24.377-7.767 47.505-22.462 66.883-2.502 3.301-1.855 8.005 1.445 10.508 1.354 1.028 2.946 1.524 4.525 1.524 2.267 0 4.507-1.023 5.982-2.969 16.688-22.008 25.509-48.27 25.509-75.947 0-69.373-56.439-125.813-125.813-125.813s-125.813 56.439-125.813 125.813c0 5.663.389 11.402 1.156 17.057.558 4.107 4.338 6.984 8.441 6.426z"/><path d="m385.381 351.597c-.013 0-.026 0-.039 0l-.536.007c-44.26 0-84.206-26.262-101.768-66.905-1.643-3.802-6.057-5.554-9.859-3.91-3.803 1.643-5.553 6.057-3.91 9.859 19.937 46.142 65.288 75.956 115.537 75.956l.612-.007c4.142-.021 7.482-3.396 7.462-7.538-.021-4.13-3.375-7.462-7.499-7.462z"/><path d="m243.864 295.445-3.254 3.254c-.336.336-.885.337-1.222 0l-32.069-32.069c-3.061-3.061-4.747-7.131-4.747-11.46s1.686-8.399 4.747-11.46l.332-.332c6.194-6.194 16.371-6.296 22.689-.227l.985.946c2.987 2.87 7.734 2.775 10.604-.212s2.775-7.734-.212-10.604l-.985-.946c-12.164-11.687-31.762-11.49-43.688.437l-.332.332c-5.895 5.894-9.141 13.73-9.141 22.066s3.246 16.173 9.141 22.067l32.069 32.069c3.093 3.093 7.155 4.639 11.217 4.639 4.063 0 8.125-1.546 11.218-4.639l3.254-3.254c2.929-2.929 2.929-7.678 0-10.606-2.928-2.93-7.678-2.93-10.606-.001z"/><path d="m110.137 242.252v-5.088c0-13.016-10.589-23.605-23.605-23.605-9.583 0-18.143 5.72-21.809 14.573l-6.07 14.655h-4.813c-7.992 0-14.495 6.502-14.495 14.495v36.202c0 7.992 6.502 14.495 14.495 14.495h47.517c10.429 0 20.036-6.098 24.476-15.536l3.94-8.379c4.393-9.34 3.713-20.12-1.818-28.834-4.154-6.547-10.529-11.111-17.818-12.978zm6.063 35.427-3.94 8.379c-1.978 4.204-6.257 6.92-10.902 6.92h-47.012v-35.191h9.319c3.034 0 5.769-1.828 6.929-4.63l7.987-19.286c1.336-3.227 4.457-5.312 7.95-5.312 4.745 0 8.605 3.86 8.605 8.605v11.647c0 4.142 3.358 7.5 7.5 7.5 5.236 0 9.848 2.535 12.654 6.956 2.808 4.421 3.139 9.674.91 14.412z"/><path d="m319.399 208.63c1.283 2.704 3.974 4.287 6.78 4.287 1.078 0 2.173-.233 3.211-.726l28.185-13.375c2.428-1.152 4.054-3.517 4.262-6.196s-1.034-5.266-3.256-6.779l-24.933-16.978c-3.425-2.331-8.09-1.445-10.421 1.978-2.331 3.424-1.446 8.089 1.978 10.42l14.117 9.613-16.363 7.765c-3.743 1.776-5.336 6.25-3.56 9.991z"/><path d="m446.385 170.841c-2.33-3.423-6.997-4.31-10.421-1.978l-24.933 16.978c-2.222 1.513-3.464 4.099-3.256 6.779s1.834 5.044 4.262 6.196l28.185 13.375c1.039.493 2.133.726 3.211.726 2.806 0 5.497-1.583 6.78-4.287 1.776-3.742.183-8.215-3.56-9.991l-16.363-7.765 14.117-9.613c3.425-2.331 4.309-6.996 1.978-10.42z"/><path d="m310.529 247.565v6.613c0 40.957 33.32 74.278 74.277 74.278s74.277-33.321 74.277-74.278v-6.613c0-7.871-6.403-14.274-14.273-14.274h-120.008c-7.87.001-14.273 6.404-14.273 14.274zm15 .727h118.555v5.887c0 12.961-4.193 24.954-11.277 34.721-2.828-4.358-6.232-8.355-10.135-11.806-3.104-2.745-7.844-2.455-10.587.648-2.745 3.102-2.455 7.842.647 10.586 3.808 3.369 6.987 7.427 9.361 11.888-10.193 8.272-23.168 13.241-37.288 13.241-14.125 0-27.105-4.973-37.299-13.25 7.265-13.774 21.465-22.458 37.299-22.458.902 0 1.844.034 2.879.104 4.097.276 7.709-2.844 7.989-6.977.279-4.132-2.845-7.709-6.978-7.989-1.375-.093-2.647-.138-3.891-.138-19.755 0-37.633 9.969-48.031 26.109-7.066-9.759-11.246-21.736-11.246-34.678v-5.888z"/><path d="m269.754 127.513 10.716 6.498c1.216.737 2.557 1.088 3.882 1.088 2.535 0 5.009-1.286 6.42-3.612 2.147-3.542 1.018-8.154-2.524-10.302l-10.716-6.498c-3.541-2.146-8.153-1.019-10.302 2.524-2.147 3.541-1.018 8.154 2.524 10.302z"/><path d="m302.435 112.243c1.325 2.6 3.957 4.095 6.688 4.095 1.146 0 2.31-.264 3.4-.82 3.69-1.881 5.157-6.398 3.275-10.088l-6.112-11.99c-1.881-3.691-6.399-5.156-10.088-3.275-3.69 1.881-5.157 6.398-3.275 10.088z"/><path d="m335.315 104.236c.456.083.911.124 1.359.124 3.551 0 6.706-2.533 7.368-6.151l2.205-12.044c.746-4.074-1.952-7.982-6.026-8.728-4.069-.747-7.982 1.953-8.728 6.027l-2.205 12.044c-.746 4.074 1.953 7.982 6.027 8.728z"/></g></g></svg>