<svg id="Capa_1" enable-background="new 0 0 512.576 512.576" height="512" viewBox="0 0 512.576 512.576" width="512" xmlns="http://www.w3.org/2000/svg"><g><g><circle cx="86.288" cy="289.292" fill="#fee97d" r="77.499"/><circle cx="425.256" cy="287.982" fill="#f37c7c" r="77.499"/><circle cx="257.739" cy="252.615" fill="#fee97d" r="120.655"/><path d="m203.864 252.615c0-55.052 36.871-101.488 87.265-115.971-10.604-3.048-21.806-4.684-33.39-4.684-66.636 0-120.655 54.019-120.655 120.655s54.019 120.655 120.655 120.655c11.584 0 22.786-1.636 33.39-4.684-50.394-14.483-87.265-60.92-87.265-115.971z" fill="#fee45a"/><g><path d="m286.188 349.293h58.714c4.145 0 6.221 5.011 3.29 7.942l-13.015 13.015c-1.817 1.817-1.817 4.763 0 6.58l32.379 32.379c1.817 1.817 1.817 4.763 0 6.58l-15.76 15.76c-1.817 1.817-4.763 1.817-6.58 0l-30.199-30.199c-1.817-1.817-4.763-1.817-6.58 0l-18.307 18.307c-2.914 2.914-7.899.88-7.942-3.241l-.652-62.421c-.027-2.589 2.064-4.702 4.652-4.702z" fill="#5f99d7"/><path d="m86.288 339.074c-8.679 0-15.715-7.036-15.715-15.715v-12.15c0-8.679 7.036-15.715 15.715-15.715 8.679 0 15.715 7.036 15.715 15.715v12.15c0 8.68-7.036 15.715-15.715 15.715z" fill="#f37c7c"/><path d="m330.793 278.206c0 8.779-7.117 15.896-15.896 15.896s-15.896-7.117-15.896-15.896c0-4.712 4.579-13.471 8.822-20.576 3.195-5.349 10.952-5.349 14.147 0 4.243 7.105 8.823 15.864 8.823 20.576z" fill="#99e6fc"/></g></g><g><path d="m140.618 277.437c4.099-.602 6.933-4.413 6.33-8.511-.786-5.355-1.186-10.826-1.186-16.258 0-61.102 49.71-110.813 110.813-110.813s110.813 49.71 110.813 110.813c0 22.845-6.9 44.782-19.954 63.441-2.374 3.394-1.548 8.07 1.846 10.445 1.31.916 2.809 1.355 4.293 1.355 2.365 0 4.693-1.116 6.152-3.201 14.826-21.192 22.663-46.103 22.663-72.04 0-69.373-56.439-125.813-125.813-125.813s-125.813 56.439-125.813 125.813c0 6.16.452 12.363 1.346 18.438.603 4.1 4.425 6.93 8.51 6.331z"/><path d="m252.014 363.38c-20.933-.847-41.096-7.575-58.308-19.457-16.84-11.625-30.124-27.617-38.418-46.249-1.685-3.785-6.117-5.485-9.901-3.802-3.784 1.685-5.486 6.118-3.802 9.902 9.414 21.151 24.491 39.303 43.6 52.494 19.551 13.496 42.45 21.138 66.224 22.1.103.004.206.006.308.006 4.003 0 7.326-3.162 7.489-7.197.166-4.139-3.053-7.63-7.192-7.797z"/><path d="m342.494 373.54 11.002-11.001c3.487-3.488 4.521-8.687 2.634-13.244s-6.295-7.502-11.228-7.502h-58.714c-3.271 0-6.339 1.28-8.639 3.605s-3.548 5.405-3.514 8.675l.177 16.879c.044 4.115 3.393 7.422 7.498 7.421h.08c4.143-.043 7.465-3.436 7.422-7.578l-.147-14.002h48.963l-8.155 8.155c-4.735 4.737-4.735 12.446.001 17.185l30.366 30.366-11.733 11.733-28.187-28.188c-4.737-4.736-12.445-4.737-17.187.001l-13.517 13.517-.07-6.805c-.043-4.115-3.393-7.422-7.498-7.422-.026 0-.054 0-.08 0-4.142.043-7.465 3.436-7.422 7.578l.142 13.579c.052 4.905 3.02 9.272 7.561 11.125 4.542 1.853 9.717.81 13.186-2.659l16.293-16.294 28.186 28.186c2.295 2.295 5.347 3.56 8.594 3.56 3.245 0 6.297-1.264 8.594-3.56l15.76-15.761c4.737-4.738 4.737-12.447 0-17.186z"/><path d="m427.576 203.903c-10.244 0-20.281 1.816-29.834 5.398-3.878 1.455-5.843 5.777-4.389 9.656s5.774 5.842 9.656 4.389c7.862-2.948 16.128-4.443 24.566-4.443 38.599 0 70 31.401 70 69.999s-31.401 70-70 70c-18.469 0-35.897-7.14-49.076-20.103-2.952-2.904-7.701-2.867-10.606.087-2.905 2.953-2.866 7.701.087 10.606 16.003 15.741 37.167 24.41 59.596 24.41 46.869 0 85-38.131 85-85s-38.131-84.999-85-84.999z"/><path d="m134.376 338.512c-13.21 13.148-30.745 20.389-49.377 20.389-38.598 0-69.999-31.402-69.999-70s31.401-69.999 69.999-69.999c8.601 0 17.025 1.558 25.04 4.63 3.866 1.484 8.206-.451 9.688-4.318 1.482-3.868-.45-8.205-4.318-9.688-9.735-3.732-19.967-5.625-30.409-5.625-46.869.002-85 38.132-85 85.001s38.131 85 84.999 85c22.625 0 43.919-8.792 59.959-24.757 2.936-2.922 2.947-7.671.024-10.606-2.92-2.937-7.669-2.948-10.606-.027z"/><path d="m256.575 102.801c4.143 0 7.5-3.358 7.5-7.5v-15.636c0-4.142-3.357-7.5-7.5-7.5s-7.5 3.358-7.5 7.5v15.636c0 4.142 3.358 7.5 7.5 7.5z"/><path d="m289.955 112.711c.791.265 1.595.391 2.385.391 3.135 0 6.059-1.981 7.11-5.118l4.97-14.825c1.316-3.927-.8-8.178-4.728-9.495-3.931-1.316-8.179.8-9.495 4.727l-4.97 14.825c-1.316 3.927.8 8.178 4.728 9.495z"/><path d="m213.7 107.984c1.052 3.137 3.975 5.118 7.11 5.118.79 0 1.594-.126 2.385-.391 3.928-1.316 6.044-5.567 4.728-9.495l-4.97-14.825c-1.317-3.927-5.565-6.045-9.495-4.727-3.928 1.316-6.044 5.567-4.728 9.495z"/><path d="m67.399 269.86v-9.343c0-4.142-3.357-7.5-7.5-7.5s-7.5 3.358-7.5 7.5v9.343c0 4.142 3.357 7.5 7.5 7.5s7.5-3.358 7.5-7.5z"/><path d="m117.599 269.86v-9.343c0-4.142-3.357-7.5-7.5-7.5s-7.5 3.358-7.5 7.5v9.343c0 4.142 3.357 7.5 7.5 7.5s7.5-3.358 7.5-7.5z"/><path d="m86.288 346.574c12.801 0 23.215-10.414 23.215-23.215v-12.149c0-12.801-10.414-23.215-23.215-23.215s-23.215 10.415-23.215 23.215v12.149c0 12.801 10.414 23.215 23.215 23.215zm-8.215-35.364c0-4.53 3.686-8.215 8.215-8.215s8.215 3.686 8.215 8.215v12.149c0 4.53-3.686 8.215-8.215 8.215s-8.215-3.685-8.215-8.215z"/><path d="m459.795 287.982c4.143 0 7.5-3.358 7.5-7.5v-10.775c2.031-1.26 3.986-2.656 5.846-4.193l3.31-2.735c3.193-2.638 3.643-7.366 1.004-10.559-2.64-3.194-7.368-3.643-10.559-1.004l-3.31 2.735c-5.602 4.629-12.375 7.541-19.589 8.42l-.359.044c-4.111.502-7.037 4.243-6.534 8.354.465 3.803 3.699 6.591 7.435 6.591.304 0 .611-.019.92-.057l.357-.043c2.193-.267 4.355-.678 6.479-1.21v4.431c0 4.143 3.357 7.501 7.5 7.501z"/><path d="m400.344 313.207-.261.07c-4.001 1.071-6.376 5.184-5.305 9.185 1.071 4.002 5.184 6.375 9.186 5.305l.261-.07c15.656-4.193 32.207-4.193 47.855-.002l.26.07c.652.175 1.308.259 1.952.259 3.309 0 6.338-2.207 7.238-5.555 1.075-4-1.296-8.114-5.296-9.189l-.267-.072c-18.193-4.872-37.426-4.873-55.623-.001z"/><path d="m204.043 203.957c6.204-7.533 15.358-11.853 25.116-11.853h.127c4.143 0 7.5-3.358 7.5-7.5s-3.357-7.5-7.5-7.5h-.127c-14.257 0-27.631 6.312-36.694 17.317-2.634 3.198-2.176 7.924 1.021 10.558 1.396 1.15 3.085 1.711 4.764 1.71 2.163 0 4.311-.932 5.793-2.732z"/><path d="m204.24 231.455c4.921 4.009 10.928 6.027 16.945 6.027 5.56 0 11.129-1.724 15.857-5.191l.821-.602c3.34-2.449 4.063-7.142 1.614-10.483-2.45-3.341-7.142-4.064-10.483-1.615l-.822.603c-4.339 3.184-10.283 3.032-14.458-.369-3.212-2.617-7.937-2.133-10.552 1.077-2.615 3.213-2.133 7.937 1.078 10.553z"/><path d="m283.991 192.104c9.758 0 18.912 4.32 25.116 11.853 1.482 1.8 3.63 2.732 5.793 2.732 1.679 0 3.367-.561 4.764-1.71 3.197-2.633 3.655-7.36 1.021-10.558-9.063-11.005-22.438-17.317-36.694-17.317h-.127c-4.143 0-7.5 3.358-7.5 7.5s3.357 7.5 7.5 7.5z"/><path d="m273.672 221.206c-2.449 3.341-1.726 8.034 1.614 10.483l.821.602c4.729 3.468 10.298 5.191 15.858 5.191 6.017 0 12.024-2.019 16.944-6.027 3.211-2.616 3.693-7.34 1.077-10.552s-7.341-3.694-10.552-1.077c-4.174 3.399-10.119 3.551-14.459.368l-.821-.602c-3.341-2.449-8.032-1.727-10.482 1.614z"/><path d="m226.102 321.716c18.223-9.529 43.81-9.642 62.224-.274l.613.312c1.089.554 2.25.817 3.395.817 2.732 0 5.366-1.499 6.69-4.101 1.878-3.692.408-8.207-3.284-10.085l-.612-.312c-22.828-11.615-53.361-11.475-75.977.35-3.67 1.919-5.09 6.451-3.171 10.122 1.92 3.671 6.453 5.09 10.122 3.171z"/><path d="m338.293 278.206c0-3.378-1.024-9.585-9.884-24.422-2.867-4.8-7.918-7.666-13.512-7.666-5.595 0-10.646 2.866-13.514 7.666-8.858 14.833-9.883 21.042-9.883 24.421 0 12.9 10.495 23.396 23.396 23.396s23.397-10.495 23.397-23.395zm-31.792.001c.001-.155.124-3.943 7.761-16.73.064-.107.214-.358.636-.358.421 0 .57.251.634.357 7.636 12.788 7.76 16.575 7.762 16.731 0 4.629-3.767 8.395-8.396 8.395-4.63 0-8.397-3.767-8.397-8.395z"/></g></g></svg>