<svg id="Capa_1" enable-background="new 0 0 511.999 511.999" height="512" viewBox="0 0 511.999 511.999" width="512" xmlns="http://www.w3.org/2000/svg"><g><g><path d="m335.47 422.677-17.526 73.941c-1.095 4.619-5.22 7.881-9.967 7.881h-16.343c-5.657 0-10.243-4.586-10.243-10.243v-86.253-57.308h69.982z" fill="#cbc4cc"/><g><g id="XMLID_228_"><g><path d="m415.494 7.504h-388.7c-10.51 0-19.04 8.52-19.04 19.03v18.38l18.202 41.446h379.694l28.874-41.446v-18.38c0-10.51-8.52-19.03-19.03-19.03z" fill="#5f99d7"/><path d="m86.974 26.534c0-10.51 8.53-19.03 19.04-19.03h-79.22c-10.51 0-19.04 8.52-19.04 19.03v18.38l18.202 41.446h62.461z" fill="#3c87d0"/><path d="m434.524 44.914v314.81c0 9.64-7.81 17.45-17.45 17.45h-390.28c-10.51 0-19.04-8.52-19.04-19.03v-313.23z" fill="#dff6fd"/><path d="m87.459 358.144v-313.23h-79.705v313.23c0 10.51 8.53 19.03 19.04 19.03h79.706c-10.51 0-19.041-8.52-19.041-19.03z" fill="#c8effe"/></g></g><path d="m244.966 145.621h-189.385c-6.781 0-12.278-5.497-12.278-12.278v-28.086c0-6.781 5.497-12.278 12.278-12.278h189.385c6.781 0 12.278 5.497 12.278 12.278v28.086c0 6.781-5.497 12.278-12.278 12.278z" fill="#c8effe"/><path d="m55.581 92.98c-6.781 0-12.278 5.497-12.278 12.278v28.086c0 6.781 5.497 12.278 12.278 12.278h31.879v-52.642z" fill="#99e6fc"/><path d="m298.943 350.695h-17.552v57.308 86.253c0 5.657 4.586 10.243 10.243 10.243h12.568c-.364-1.051-.572-2.175-.572-3.35v-43.702c0-11.853 11.128-20.557 22.632-17.703l4.876 1.21 4.332-18.276 15.902-71.982h-52.429z" fill="#b5adb6"/><path d="m417.074 377.174c9.637 0 17.45-7.813 17.45-17.45v-110.03l-160.039 39.711c-3.221.799-6.614.34-9.534-1.237-4.063-2.193-8.708-3.441-13.64-3.441h-16.959c-15.928 0-28.841 12.912-28.841 28.841v63.606z" fill="#c8effe"/><path d="m469.602 454.704-209.451-51.971-20.734-3.781v-81.043l20.734-4.341 209.451-51.972 19.868-5.642v204.087z" fill="#e2dee2"/></g><path d="m484.376 422.115-159.013-39.456c-26.527-6.582-45.219-30.316-45.406-57.647-.061-8.969-.136-15.789-.224-16.304l-19.583 4.859-20.734 4.342v81.043l20.734 3.781 19.583 4.859 189.869 47.112 19.868 5.338v-36.557z" fill="#cbc4cc"/><path d="m251.31 411.574h-16.959c-4.883 0-8.841-3.958-8.841-8.841v-89.165c0-4.883 3.958-8.841 8.841-8.841h16.959c4.883 0 8.841 3.958 8.841 8.841v89.165c0 4.882-3.958 8.841-8.841 8.841z" fill="#f37c7c"/><path d="m251.31 384.375h-16.959c-4.883 0-8.841-3.958-8.841-8.841v27.198c0 4.883 3.958 8.841 8.841 8.841h16.959c4.883 0 8.841-3.958 8.841-8.841v-27.198c0 4.883-3.958 8.841-8.841 8.841z" fill="#ee6161"/><path d="m490.758 468.19h-7.67c-7.448 0-13.486-6.038-13.486-13.486v-193.108c0-7.448 6.038-13.486 13.486-13.486h7.67c7.448 0 13.486 6.038 13.486 13.486v193.108c-.001 7.448-6.038 13.486-13.486 13.486z" fill="#f37c7c"/><path d="m490.758 431.123h-7.67c-7.448 0-13.486-6.038-13.486-13.486v37.067c0 7.448 6.038 13.486 13.486 13.486h7.67c7.448 0 13.486-6.038 13.486-13.486v-37.067c-.001 7.448-6.038 13.486-13.486 13.486z" fill="#ee6161"/></g><g><path d="m195.51 369.678h-168.716c-6.362 0-11.539-5.176-11.539-11.538v-305.723h411.772v186.973c0 4.142 3.357 7.5 7.5 7.5s7.5-3.358 7.5-7.5v-212.852c.001-14.633-11.904-26.538-26.537-26.538h-388.696c-14.633 0-26.539 11.905-26.539 26.538v331.602c0 14.633 11.905 26.538 26.539 26.538h168.716c4.143 0 7.5-3.358 7.5-7.5s-3.357-7.5-7.5-7.5zm-168.716-354.678h388.696c6.362 0 11.538 5.176 11.538 11.538v10.88h-411.773v-10.88c0-6.362 5.177-11.538 11.539-11.538z"/><path d="m244.966 138.121h-29.689c-4.143 0-7.5 3.358-7.5 7.5s3.357 7.5 7.5 7.5h29.689c10.905 0 19.777-8.872 19.777-19.778v-28.085c0-10.906-8.872-19.778-19.777-19.778h-189.385c-10.905 0-19.777 8.872-19.777 19.778v28.085c0 10.906 8.872 19.778 19.777 19.778h127.734c4.143 0 7.5-3.358 7.5-7.5s-3.357-7.5-7.5-7.5h-127.734c-2.634 0-4.777-2.144-4.777-4.778v-28.085c0-2.634 2.144-4.778 4.777-4.778h189.386c2.634 0 4.777 2.144 4.777 4.778v28.085c0 2.635-2.144 4.778-4.778 4.778z"/><path d="m397.075 111.801h-99.056c-4.143 0-7.5 3.358-7.5 7.5s3.357 7.5 7.5 7.5h99.056c4.143 0 7.5-3.358 7.5-7.5s-3.358-7.5-7.5-7.5z"/><path d="m397.075 188.498h-353.772c-4.143 0-7.5 3.358-7.5 7.5s3.357 7.5 7.5 7.5h353.771c4.143 0 7.5-3.358 7.5-7.5s-3.357-7.5-7.499-7.5z"/><path d="m191.604 249.454h-148.301c-4.143 0-7.5 3.358-7.5 7.5s3.357 7.5 7.5 7.5h148.301c4.143 0 7.5-3.358 7.5-7.5s-3.357-7.5-7.5-7.5z"/><path d="m191.604 310.409h-148.301c-4.143 0-7.5 3.358-7.5 7.5s3.357 7.5 7.5 7.5h148.301c4.143 0 7.5-3.358 7.5-7.5s-3.357-7.5-7.5-7.5z"/><path d="m490.757 240.611h-7.67c-9.453 0-17.459 6.285-20.077 14.893l-198.03 49.137c-2.921-4.458-7.953-7.415-13.67-7.415h-16.959c-9.011 0-16.341 7.331-16.341 16.341v89.165c0 9.011 7.33 16.341 16.341 16.341h16.959c5.717 0 10.75-2.957 13.671-7.415l8.91 2.211v20.621c0 4.142 3.357 7.5 7.5 7.5s7.5-3.358 7.5-7.5v-16.899l37.851 9.392-16.095 67.904c-.295 1.243-1.393 2.112-2.67 2.112h-16.343c-1.513 0-2.743-1.231-2.743-2.744v-27.803c0-4.142-3.357-7.5-7.5-7.5s-7.5 3.358-7.5 7.5v27.803c0 9.784 7.96 17.744 17.743 17.744h16.343c8.259 0 15.358-5.613 17.266-13.651l16.058-67.752 121.71 30.2c2.618 8.609 10.624 14.893 20.077 14.893h7.67c11.572 0 20.986-9.414 20.986-20.986v-193.107c0-11.571-9.414-20.985-20.987-20.985zm-238.106 162.121c0 .74-.602 1.341-1.341 1.341h-16.959c-.739 0-1.341-.602-1.341-1.341v-89.165c0-.739.602-1.341 1.341-1.341h16.959c.739 0 1.341.602 1.341 1.341zm244.093 51.972c0 3.301-2.686 5.986-5.986 5.986h-7.67c-3.301 0-5.985-2.685-5.985-5.986v-59.584c0-4.142-3.357-7.5-7.5-7.5s-7.5 3.358-7.5 7.5v49.996l-194.451-48.25v-77.432l194.451-48.249v91.972c0 4.142 3.357 7.5 7.5 7.5s7.5-3.358 7.5-7.5v-101.561c0-3.3 2.685-5.985 5.985-5.985h7.67c3.301 0 5.986 2.685 5.986 5.985z"/></g></g></svg>