<svg id="Capa_1" enable-background="new 0 0 511.133 511.133" height="512" viewBox="0 0 511.133 511.133" width="512" xmlns="http://www.w3.org/2000/svg"><g><g><path d="m433.97 131.138h-46.345c-4.677 0-8.468 3.791-8.468 8.468v39.039h63.282v-39.039c-.001-4.677-3.792-8.468-8.469-8.468z" fill="#7bacdf"/><path d="m126.552 142.291h-37.71v-29.165c0-4.17 3.381-7.551 7.551-7.551h22.608c4.17 0 7.551 3.381 7.551 7.551z" fill="#f3f0f3"/><g><path d="m289.357 115.385v24.225l17.801 22.036 34.8 33.583h-164.248l28.265-33.583 17.801-22.036v-24.225-43.34h64.521z" fill="#98bce5"/></g><g><path d="m289.357 115.385-.874-35.7-.187-7.641h-41.17-23.35v43.34 24.225l-17.801 22.035-28.264 33.584h35.953l21.834-25.943 17.801-22.035v-.29c0-6.393 5.182-11.575 11.575-11.575h24.483z" fill="#7bacdf"/><g id="XMLID_253_"><g><path d="m487.024 194.795v226.86c0 18.31-14.84 33.15-33.15 33.15h-396.61c-18.31 0-33.15-14.84-33.15-33.15v-226.86c0-18.31 14.84-33.15 33.15-33.15h396.61c18.31 0 33.15 14.84 33.15 33.15z" fill="#b3ceec"/></g></g><path d="m258.284 175.245c-52.576-.685-99.959 22.051-132.362 58.413-5.149 5.778-14.692 2.197-14.692-5.542v-64.263c0-.741.02-1.476.053-2.207h-54.019c-18.308 0-33.15 14.842-33.15 33.15v226.86c0 18.308 14.842 33.15 33.15 33.15h337.328c22.05-28.937 35.27-64.948 35.578-103.982.751-95.507-76.385-174.335-171.886-175.579z" fill="#98bce5"/><g><g><path d="m487.024 256.285v140.46h-1.86-459.2-1.85v-140.46h1.85 459.2z" fill="#e5eef9"/></g></g><path d="m423.641 396.745c4.134-14.623 6.403-30.021 6.529-45.922.273-34.687-9.736-67.169-27.159-94.538h-377.047-1.85v140.46h1.85z" fill="#d5e3f4"/><circle cx="255.973" cy="349.431" fill="#7bacdf" r="154.202"/><path d="m174.687 349.431c0-72.602 50.202-133.476 117.767-149.857-11.69-2.834-23.92-4.345-36.482-4.345-85.163 0-154.202 69.039-154.202 154.202s69.039 154.202 154.202 154.202c12.562 0 24.792-1.513 36.482-4.347-67.565-16.381-117.767-77.253-117.767-149.855z" fill="#5f99d7"/><circle cx="255.973" cy="349.431" fill="#cbc4cc" r="116.525"/><path d="m222.566 237.765c-48.065 14.368-83.119 58.928-83.119 111.666s35.054 97.293 83.119 111.661c-29.483-28.084-47.879-67.727-47.879-111.661s18.395-83.582 47.879-111.666z" fill="#b5adb6"/><circle cx="250.14" cy="360.893" fill="#b5adb6" r="66.659"/><circle cx="250.14" cy="360.894" fill="#a79ba7" r="35.659"/><path d="m278.761 349.431c-19.047 0-34.544-15.496-34.544-34.544s15.496-34.544 34.544-34.544 34.544 15.496 34.544 34.544-15.496 34.544-34.544 34.544z" fill="#f3f0f3"/><path d="m274.568 314.887c0-13.606 7.922-25.395 19.382-31.023-4.584-2.251-9.746-3.521-15.188-3.521-19.047 0-34.544 15.496-34.544 34.544s15.496 34.544 34.544 34.544c5.442 0 10.605-1.27 15.188-3.521-11.46-5.628-19.382-17.417-19.382-31.023z" fill="#e2dee2"/><path d="m136.508 140.347c-1.002-4.698-5.153-8.056-9.957-8.056h-37.709c-4.804 0-8.954 3.358-9.957 8.056l-4.544 21.298v21.016h66.711v-21.016z" fill="#7bacdf"/><path d="m453.036 229.722h-46.303c-2.922 0-5.29-2.368-5.29-5.29v-29.364c0-2.922 2.368-5.29 5.29-5.29h46.303c2.922 0 5.29 2.368 5.29 5.29v29.364c0 2.921-2.369 5.29-5.29 5.29z" fill="#f3f0f3"/><g id="XMLID_255_"><g><g id="XMLID_254_"><g><path d="m159.004 161.645-32.54 41.12c-3.49 4.41-8.8 6.98-14.42 6.98h-86.08-1.85v-14.95c0-18.31 14.84-33.15 33.15-33.15z" fill="#5f99d7"/></g></g></g></g><path d="m320.717 7.5h-128.301c-9.08 0-16.441 7.361-16.441 16.441v32.515l8.771 2.924 2.893 49.636 32.735 3.654c3.35 1.827 18.633 2.716 18.633 2.716h81.711c9.08 0 16.441-7.361 16.441-16.441v-75.004c-.001-9.08-7.362-16.441-16.442-16.441z" fill="#98bce5"/><path d="m222.566 98.945v-75.004c0-9.08 7.361-16.441 16.441-16.441h-46.591c-9.08 0-16.441 7.361-16.441 16.441v75.004c0 9.08 7.361 16.441 16.441 16.441h46.591c-9.08-.001-16.441-7.361-16.441-16.441z" fill="#98bce5"/><path d="m205.975 72.997v-23.109c0-2.852 2.312-5.164 5.164-5.164h90.855c2.852 0 5.164 2.312 5.164 5.164v23.109c0 2.852-2.312 5.164-5.164 5.164h-90.855c-2.852 0-5.164-2.312-5.164-5.164z" fill="#f3f0f3"/><path d="m211.139 44.724c-2.852 0-5.164 2.312-5.164 5.164v23.109c0 2.852 2.312 5.164 5.164 5.164h11.427v-33.437z" fill="#e2dee2"/></g></g><g><path d="m255.973 225.406c-22.804 0-45.1 6.246-64.479 18.062-3.537 2.156-4.656 6.771-2.499 10.308 2.155 3.537 6.771 4.656 10.308 2.499 17.026-10.381 36.623-15.869 56.67-15.869 60.117 0 109.025 48.909 109.025 109.026s-48.909 109.025-109.025 109.025-109.025-48.909-109.025-109.025c0-27.629 10.36-53.987 29.171-74.217 2.821-3.033 2.648-7.779-.385-10.599-3.034-2.821-7.78-2.648-10.6.385-21.401 23.015-33.187 53-33.187 84.432 0 68.388 55.638 124.025 124.025 124.025s124.025-55.638 124.025-124.025c.001-68.39-55.637-124.027-124.024-124.027z"/><path d="m214.138 295.218c-24.018 13.216-38.938 38.401-38.938 65.726 0 41.341 33.634 74.975 74.975 74.975 19.457 0 37.907-7.448 51.954-20.971 14.004-13.482 22.152-31.561 22.944-50.907.169-4.139-3.048-7.631-7.187-7.8-4.142-.176-7.631 3.049-7.8 7.187-1.32 32.238-27.636 57.491-59.911 57.491-33.07 0-59.975-26.905-59.975-59.975 0-21.855 11.943-42.005 31.169-52.584 3.629-1.997 4.952-6.558 2.955-10.187-1.996-3.629-6.557-4.952-10.186-2.955z"/><path d="m227.767 333.24c-3.17-2.667-7.901-2.258-10.567.911-6.487 7.711-10.059 17.496-10.059 27.552 0 23.631 19.225 42.856 42.856 42.856 17 0 32.41-10.082 39.256-25.686 1.665-3.793-.061-8.217-3.854-9.881-3.794-1.666-8.217.061-9.881 3.854-4.455 10.153-14.473 16.713-25.521 16.713-15.36 0-27.856-12.497-27.856-27.856 0-6.529 2.322-12.884 6.538-17.896 2.666-3.169 2.258-7.9-.912-10.567z"/><path d="m320.806 314.887c0-23.183-18.861-42.044-42.044-42.044s-42.043 18.861-42.043 42.044 18.861 42.044 42.043 42.044c23.183 0 42.044-18.861 42.044-42.044zm-69.088 0c0-14.912 12.132-27.044 27.043-27.044 14.912 0 27.044 12.132 27.044 27.044s-12.132 27.044-27.044 27.044c-14.911 0-27.043-12.132-27.043-27.044z"/><path d="m453.872 154.146h-3.934v-14.539c0-8.805-7.164-15.969-15.969-15.969h-46.345c-8.805 0-15.969 7.164-15.969 15.969v14.539h-60.916l-13.883-17.186v-14.074h23.86c13.201 0 23.941-10.74 23.941-23.941v-75.004c.001-13.201-10.739-23.941-23.94-23.941h-128.301c-13.201 0-23.941 10.74-23.941 23.941v75.004c0 13.201 10.74 23.941 23.941 23.941h23.86v14.074l-13.884 17.186h-55.271l-3.278-15.364c-1.177-5.51-4.916-9.987-9.792-12.294v-13.361c0-8.299-6.751-15.051-15.05-15.051h-22.608c-8.299 0-15.051 6.752-15.051 15.051v13.361c-4.876 2.307-8.616 6.784-9.792 12.295l-3.278 15.363h-11.011c-22.415 0-40.651 18.236-40.651 40.651v226.86c0 22.415 18.236 40.651 40.651 40.651h83.046c29.384 30.103 70.376 48.826 115.665 48.826 44.959 0 86.148-18.59 115.708-48.826h82.192c22.415 0 40.651-18.236 40.651-40.651v-226.86c0-22.416-18.236-40.651-40.651-40.651zm25.651 40.65v53.989h-96.988c-5.046-6.333-10.586-12.328-16.608-17.916-29.981-27.819-69.03-43.14-109.955-43.14-51.145 0-96.813 23.874-126.465 61.056h-97.897v-31.535h80.429c7.964 0 15.365-3.582 20.307-9.827l30.287-38.277h291.239c14.144 0 25.651 11.506 25.651 25.65zm-380.288 194.447h-67.625v-125.458h87.267c-15.581 24.852-24.606 54.213-24.606 85.646 0 13.734 1.726 27.072 4.964 39.812zm287.421-249.637c0-.534.435-.969.969-.969h46.345c.534 0 .969.435.969.969v14.539h-48.282v-14.539zm-203.181-40.661v-75.004c0-4.93 4.011-8.941 8.941-8.941h128.302c4.93 0 8.941 4.011 8.941 8.941v75.004c0 4.93-4.011 8.941-8.941 8.941h-128.302c-4.931 0-8.941-4.011-8.941-8.941zm46.135 45.378c1.078-1.334 1.666-2.998 1.666-4.713v-16.725h50.582v16.725c0 1.715.588 3.379 1.666 4.713l7.935 9.822h-69.783zm-133.217-31.247 22.658.051v11.665h-22.689zm-10.172 28.836c.262-1.229 1.365-2.121 2.622-2.121h37.709c1.257 0 2.36.893 2.622 2.121l2.61 12.233h-48.174zm-28.96 27.234h86.244l-22.923 28.97c-2.079 2.627-5.193 4.134-8.544 4.134h-80.428v-7.453c0-14.145 11.507-25.651 25.651-25.651zm0 278.161c-14.144 0-25.651-11.507-25.651-25.651v-17.413h72.231c5.64 15.606 13.618 30.1 23.507 43.064zm198.712 48.826c-80.892 0-146.702-65.81-146.702-146.702s65.81-146.702 146.702-146.702c37.128 0 72.554 13.898 99.752 39.135 27.053 25.103 43.559 59.109 46.476 95.757.329 4.129 3.945 7.206 8.072 6.881 4.129-.329 7.21-3.943 6.881-8.072-2.074-26.045-10.379-50.874-24-72.646h86.369v125.458h-66.794c1.591-6.286 2.822-12.724 3.655-19.297.521-4.109-2.389-7.862-6.498-8.383-4.11-.52-7.862 2.389-8.383 6.498-9.249 73.014-71.813 128.073-145.53 128.073zm197.899-48.826h-69.209c9.868-12.929 17.836-27.416 23.475-43.064h71.385v17.413c0 14.144-11.507 25.651-25.651 25.651z"/><path d="m393.942 195.067v29.364c0 7.052 5.738 12.79 12.79 12.79h46.303c7.052 0 12.79-5.738 12.79-12.79v-29.364c0-7.052-5.738-12.79-12.79-12.79h-46.303c-7.052.001-12.79 5.738-12.79 12.79zm15 2.211h41.883v24.944h-41.883z"/><path d="m261.757 78.162c0-4.142-3.358-7.5-7.5-7.5h-40.782v-18.438h86.184v18.438h-13.439c-4.142 0-7.5 3.358-7.5 7.5s3.358 7.5 7.5 7.5h15.775c6.983 0 12.664-5.681 12.664-12.665v-23.108c0-6.983-5.681-12.665-12.664-12.665h-90.855c-6.983 0-12.664 5.681-12.664 12.665v23.108c0 6.983 5.681 12.665 12.664 12.665h43.118c4.141 0 7.499-3.358 7.499-7.5z"/><path d="m433.161 294.975h7.438c4.142 0 7.5-3.358 7.5-7.5s-3.358-7.5-7.5-7.5h-7.438c-4.142 0-7.5 3.358-7.5 7.5s3.358 7.5 7.5 7.5z"/></g></g></svg>