<svg id="Capa_1" enable-background="new 0 0 510.712 510.712" height="512" viewBox="0 0 510.712 510.712" width="512" xmlns="http://www.w3.org/2000/svg"><g><g><path d="m421.859 68.122-328.611.005-11.905 11.386-26.801 316.796-2.595 42.748 4.499 54.811 18.87 9.33c-.25 0 324.493.013 324.493.013 24.1 0 43.63-19.53 43.63-43.63l.12-369.75c0-11.989-9.72-21.709-21.7-21.709z" fill="#f2fbff"/><g><g><path d="m81.343 79.513-26.801 316.796-2.595 42.748 4.499 54.811 18.87 9.33c-.071 0 25.744.001 62.835.002 23.911-.22 43.223-19.656 43.223-43.62l.12-369.75c0-11.933-9.628-21.613-21.529-21.706l-66.717.001z" fill="#dff6fd"/><g id="XMLID_257_"><g><path d="m104.527 143.432h-65.648c-4.36 0-7.89 3.54-7.89 7.89v308.26c0 24.1 19.53 43.63 43.62 43.63.25 0 .5-.01.75-.01 23.92-.39 42.88-20.41 42.88-44.33v-11.06z" fill="#99e6fc"/><path d="m118.239 93.352v354.46h-40.72c-5.38 0-9.74-4.36-9.74-9.75v-294.63-49.51c0-14.14 11.57-26.06 25.72-25.79 13.71.26 24.74 11.45 24.74 25.22z" fill="#c8effe"/></g></g><path d="m280.413 385.819h-124.226c-2.901 0-5.253-2.352-5.253-5.253v-187.371c0-2.901 2.352-5.253 5.253-5.253h124.227c2.901 0 5.253 2.352 5.253 5.253v187.371c-.001 2.901-2.353 5.253-5.254 5.253z" fill="#ade194"/><path d="m181.462 187.942h-25.276c-2.901 0-5.253 2.352-5.253 5.253v187.371c0 2.901 2.352 5.253 5.253 5.253h25.211z" fill="#97da7b"/><path d="m407.808 458.946h-253.566c-1.827 0-3.308-1.481-3.308-3.308v-27.903c0-1.827 1.481-3.308 3.308-3.308h253.566c1.827 0 3.308 1.481 3.308 3.308v27.903c0 1.827-1.481 3.308-3.308 3.308z" fill="#ade194"/><path d="m181.386 424.428h-27.144c-1.827 0-3.308 1.481-3.308 3.308v27.903c0 1.827 1.481 3.308 3.308 3.308h27.133z" fill="#97da7b"/><path d="m324.012 306.686h80.573c3.607 0 6.532 2.924 6.532 6.532v66.07c0 3.607-2.924 6.532-6.532 6.532h-80.573c-3.607 0-6.532-2.924-6.532-6.532v-66.07c0-3.608 2.924-6.532 6.532-6.532z" fill="#fee97d"/></g><path d="m421.859 68.122-119.764.002c-1.206 6.189-1.845 12.578-1.845 19.114 0 54.995 44.742 99.737 99.737 99.737 15.603 0 30.379-3.605 43.544-10.021l.028-87.123c0-11.989-9.72-21.709-21.7-21.709z" fill="#dff6fd"/><circle cx="399.987" cy="87.237" fill="#f37c7c" r="79.737"/><path d="m368.684 87.237c0-35.593 23.356-65.725 55.551-75.978-7.639-2.432-15.803-3.759-24.248-3.759-44.038 0-79.737 35.699-79.737 79.737s35.7 79.737 79.737 79.737c8.445 0 16.604-1.325 24.242-3.757-32.194-10.253-55.545-40.387-55.545-75.98z" fill="#ee6161"/><path d="m308.416 155.723h-152.02c-3.016 0-5.462-2.445-5.462-5.462v-36.69c0-3.016 2.445-5.462 5.462-5.462h152.021c3.255 0 5.894 2.639 5.894 5.894v35.825c-.001 3.256-2.639 5.895-5.895 5.895z" fill="#fee97d"/><path d="m181.488 108.109h-25.093c-3.016 0-5.462 2.445-5.462 5.462v36.69c0 3.016 2.445 5.462 5.462 5.462h25.077z" fill="#fee45a"/></g></g><g><path d="m443.566 180.442c-.001 0-.002 0-.003 0-4.141 0-7.498 3.356-7.5 7.497l-.123 271.647c0 19.92-16.206 36.126-36.126 36.126h-289.373c9.425-9.432 15.299-22.5 15.299-36.844v-365.513c0-6.508-1.95-12.604-5.289-17.732h171.469c4.142 0 7.5-3.358 7.5-7.5s-3.358-7.5-7.5-7.5c0 0-199.069.01-199.149.012-8.374.073-16.304 3.36-22.413 9.355-6.408 6.287-10.082 15.01-10.082 23.934v42.009h-21.395c-8.487 0-15.393 6.905-15.393 15.392v308.261c0 13.818 5.426 26.764 15.279 36.454 9.642 9.482 22.337 14.673 35.837 14.672h.008.001 325.2c28.191 0 51.126-22.935 51.126-51.123l.123-271.644c.002-4.141-3.354-7.501-7.496-7.503zm-368.29-86.518c0-4.922 2.037-9.743 5.587-13.227 3.342-3.279 7.651-5.073 12.167-5.073.107 0 .216.001.323.003 9.587.182 17.387 8.135 17.387 17.729v346.958h-33.216c-1.24 0-2.248-1.008-2.248-2.248zm-36.788 365.662v-308.261c0-.216.176-.392.393-.392h21.395v287.133c0 9.511 7.737 17.248 17.248 17.248h33.216v3.555c0 19.986-15.928 36.512-35.505 36.838-9.8.152-18.99-3.517-25.95-10.362-6.962-6.847-10.797-15.995-10.797-25.759z"/><path d="m150.934 354.059c-4.142 0-7.5 3.358-7.5 7.5v19.007c0 7.032 5.721 12.753 12.753 12.753h124.227c7.032 0 12.753-5.721 12.753-12.753v-187.371c0-7.032-5.721-12.753-12.753-12.753h-124.227c-7.032 0-12.753 5.721-12.753 12.753v136.401c0 4.142 3.358 7.5 7.5 7.5s7.5-3.358 7.5-7.5v-134.154h119.732v182.876h-119.732v-16.76c0-4.141-3.358-7.499-7.5-7.499z"/><path d="m364.638 451.446c-4.142 0-7.5 3.358-7.5 7.5s3.358 7.5 7.5 7.5h43.17c5.959 0 10.808-4.849 10.808-10.808v-27.902c0-5.959-4.848-10.808-10.808-10.808h-253.566c-5.959 0-10.808 4.849-10.808 10.808v27.902c0 5.959 4.849 10.808 10.808 10.808h178.434c4.142 0 7.5-3.358 7.5-7.5s-3.358-7.5-7.5-7.5h-174.242v-19.519h245.182v19.519z"/><path d="m418.616 313.217c0-7.737-6.294-14.031-14.031-14.031h-80.573c-7.737 0-14.031 6.294-14.031 14.031v66.07c0 7.737 6.294 14.031 14.031 14.031h80.573c7.737 0 14.031-6.294 14.031-14.031zm-15 65.102h-78.636v-64.133h78.636z"/><path d="m411.116 227.861h-93.636c-4.142 0-7.5 3.358-7.5 7.5s3.358 7.5 7.5 7.5h93.636c4.142 0 7.5-3.358 7.5-7.5s-3.358-7.5-7.5-7.5z"/><path d="m309.98 203.492c0 4.142 3.358 7.5 7.5 7.5h93.636c4.142 0 7.5-3.358 7.5-7.5s-3.358-7.5-7.5-7.5h-93.636c-4.142 0-7.5 3.358-7.5 7.5z"/><path d="m411.116 261.657h-93.636c-4.142 0-7.5 3.358-7.5 7.5s3.358 7.5 7.5 7.5h93.636c4.142 0 7.5-3.358 7.5-7.5s-3.358-7.5-7.5-7.5z"/><path d="m399.987 0c-48.103 0-87.237 39.134-87.237 87.237 0 26.269 11.677 50.888 32.037 67.545 3.206 2.624 7.932 2.15 10.554-1.056 2.623-3.206 2.15-7.931-1.056-10.554-16.863-13.796-26.535-34.184-26.535-55.936 0-39.831 32.406-72.236 72.237-72.236s72.237 32.405 72.237 72.237-32.406 72.237-72.237 72.237c-6.695 0-13.376-.938-19.857-2.787-3.983-1.137-8.133 1.171-9.27 5.155-1.136 3.983 1.171 8.133 5.155 9.27 7.819 2.23 15.885 3.362 23.973 3.362 48.103 0 87.237-39.134 87.237-87.237-.001-48.103-39.135-87.237-87.238-87.237z"/><path d="m448.422 72.002c-4.142 0-7.5 3.358-7.5 7.5v3.378h-2.769c-4.142 0-7.5 3.358-7.5 7.5s3.358 7.5 7.5 7.5h2.769v3.379c0 4.142 3.358 7.5 7.5 7.5s7.5-3.358 7.5-7.5v-3.379h2.768c4.142 0 7.5-3.358 7.5-7.5s-3.358-7.5-7.5-7.5h-2.768v-3.378c0-4.142-3.358-7.5-7.5-7.5z"/><path d="m364.027 127.036c4.142 0 7.5-3.358 7.5-7.5v-58.31c0-4.142-3.358-7.5-7.5-7.5h-10.724c-4.142 0-7.5 3.358-7.5 7.5s3.358 7.5 7.5 7.5h3.224v50.81c0 4.142 3.358 7.5 7.5 7.5z"/><path d="m424.295 105.791v-30.82c0-11.714-9.53-21.245-21.245-21.245s-21.245 9.531-21.245 21.245v30.819c0 11.714 9.53 21.245 21.245 21.245s21.245-9.53 21.245-21.244zm-27.49 0v-30.82c0-3.443 2.802-6.245 6.245-6.245s6.245 2.802 6.245 6.245v30.819c0 3.443-2.802 6.245-6.245 6.245s-6.245-2.801-6.245-6.244z"/><path d="m292.25 115.609c4.142 0 7.5-3.358 7.5-7.5s-3.358-7.5-7.5-7.5h-135.855c-7.147 0-12.961 5.814-12.961 12.961v36.69c0 7.147 5.814 12.961 12.961 12.961h157.915c4.142 0 7.5-3.358 7.5-7.5s-3.358-7.5-7.5-7.5h-155.876v-32.613h133.816z"/></g></g></svg>