<svg id="Capa_1" enable-background="new 0 0 511.125 511.125" height="512" viewBox="0 0 511.125 511.125" width="512" xmlns="http://www.w3.org/2000/svg"><g><g><path d="m479.19 451.725h-447.255v-319.765c0-9.607 7.788-17.395 17.395-17.395h414.825c8.303 0 15.035 6.731 15.035 15.035z" fill="#5f99d7"/><path d="m133.099 114.565h-83.769c-9.607 0-17.395 7.788-17.395 17.395v319.765h83.768v-319.765c0-9.607 7.788-17.395 17.396-17.395z" fill="#3c87d0"/><path d="m476.68 473.338h-442.235c-14.881 0-26.945-12.064-26.945-26.945v-6.258c0-2.436 1.974-4.41 4.41-4.41h487.305c2.436 0 4.41 1.974 4.41 4.41v6.258c0 14.881-12.064 26.945-26.945 26.945z" fill="#7bacdf"/><path d="m94.004 446.393v-6.258c0-2.436 1.974-4.41 4.41-4.41h-86.504c-2.436 0-4.41 1.974-4.41 4.41v6.258c0 14.881 12.064 26.945 26.945 26.945h86.504c-14.881 0-26.945-12.064-26.945-26.945z" fill="#5f99d7"/><path d="m464.155 114.565h-159.087v78.563c0 7.057 2.948 13.837 8.089 18.602 4.733 4.388 10.896 6.804 17.354 6.804 7.384 0 14.392-3.234 19.228-8.872l9.438-11.001h110.447c3.266 0 6.459-.308 9.567-.866v-68.195c-.001-8.304-6.733-15.035-15.036-15.035z" fill="#3c87d0"/><path d="m441.443 144.565h-371.761c-4.279 0-7.747 3.469-7.747 7.747v245.665c0 4.279 3.469 7.747 7.747 7.747h123.519l9.496-9.468h106.574l8.653 9.468h123.519c4.279 0 7.747-3.469 7.747-7.747v-245.664c0-4.279-3.468-7.748-7.747-7.748z" fill="#dff6fd"/><path d="m115.703 144.565h-46.021c-4.279 0-7.747 3.469-7.747 7.747v245.665c0 4.279 3.469 7.747 7.747 7.747h46.021z" fill="#c8effe"/><path d="m449.19 152.313c0-4.279-3.469-7.747-7.747-7.747h-136.375v48.563c0 7.057 2.948 13.837 8.089 18.602 4.733 4.388 10.896 6.804 17.354 6.804 7.384 0 14.392-3.234 19.228-8.872l9.438-11.001h90.015v-46.349z" fill="#c8effe"/><g><g><path d="m272.46 327.847 36.974 30.787c5.378 4.488 8.49 11.147 8.49 18.171v28.92h-124.723v-28.92c0-7.024 3.111-13.684 8.49-18.171l37.012-30.912z" fill="#f37c7c"/><path d="m280.093 334.202-7.632-6.355-33.758-.125-37.012 30.912c-5.378 4.488-8.49 11.147-8.49 18.171v28.92h25.003v-22.5c0-7.024 3.111-13.684 8.49-18.171l5.722-4.779c3.639-3.04 8.589-4.156 13.105-2.711 3.168 1.013 6.54 1.563 10.042 1.563 13.615 0 25.338-8.235 30.465-19.982z" fill="#ee6161"/><path d="m273.789 325.9c0 10.066-8.16 18.226-18.226 18.226-10.066 0-18.226-8.16-18.226-18.226v-45.414h36.453v45.414z" fill="#ffe5c2"/><path d="m298.076 224.826c0-9.49-7.693-17.183-17.183-17.183h-48.247l-14.965-4.917c-2.178-.716-4.418.907-4.418 3.199v53.885h84.813z" fill="#a79ba7"/><path d="m235.53 224.304c0-2.292 2.241-3.914 4.418-3.199l12.701 4.173c1.5.493 3.069.744 4.648.744h40.778v-1.197c0-9.49-7.693-17.183-17.183-17.183h-48.247l-14.965-4.917c-2.178-.716-4.418.907-4.418 3.199v53.885h22.267v-35.505z" fill="#918291"/><path d="m250.573 309.808h-13.237v15.626c0 8.939 6.257 16.866 15.061 18.414 3.497.615 6.848.185 9.812-.971-4.279-1.67-7.802-8.521-9.802-13.355-.94-2.27.754-4.711 3.211-4.708h.052c6.386 0 12.492-1.206 18.12-3.382v-11.422z" fill="#fed2a4"/><path d="m255.669 316.814c-23.42 0-42.406-18.986-42.406-42.406v-26.989h84.813v26.989c0 23.42-18.986 42.406-42.407 42.406z" fill="#ffe5c2"/><path d="m235.025 269.9v-22.481h-21.763v26.989c0 23.42 18.986 42.406 42.406 42.406 6.909 0 13.391-1.632 19.155-4.562-22.22-1.332-39.798-19.797-39.798-42.352z" fill="#fed2a4"/></g></g><path d="m469.623 178.661h-113.626c-3.817 0-7.444 1.667-9.929 4.564l-11.508 13.415c-3.261 3.801-9.491 1.495-9.491-3.513v-121.338c0-18.779 15.223-34.002 34.002-34.002h110.554c18.779 0 34.002 15.223 34.002 34.002v72.87c-.002 18.779-15.225 34.002-34.004 34.002z" fill="#ade194"/><path d="m363.262 91.385c0-18.779 15.223-34.002 34.002-34.002l103.17.007c-5.424-11.575-17.184-19.603-30.811-19.603h-110.553c-18.779 0-34.002 15.223-34.002 34.002v121.339c0 5.008 6.23 7.314 9.491 3.513l11.508-13.416c2.485-2.897 6.112-4.564 9.929-4.564h7.266z" fill="#97da7b"/></g><g><path d="m499.215 428.225h-12.525v-220.281c0-4.142-3.357-7.5-7.5-7.5s-7.5 3.358-7.5 7.5v220.281h-62.58c-4.143 0-7.5 3.358-7.5 7.5s3.357 7.5 7.5 7.5h87.015v3.168c0 10.722-8.724 19.445-19.445 19.445h-442.235c-10.722 0-19.445-8.723-19.445-19.445v-3.168h362.148c4.143 0 7.5-3.358 7.5-7.5s-3.357-7.5-7.5-7.5h-337.712v-296.265c0-5.456 4.438-9.895 9.895-9.895h245.738c4.143 0 7.5-3.358 7.5-7.5s-3.357-7.5-7.5-7.5h-245.739c-13.727 0-24.895 11.168-24.895 24.895v296.265h-12.525c-6.567 0-11.91 5.343-11.91 11.91v6.258c0 18.993 15.452 34.445 34.445 34.445h442.235c18.993 0 34.445-15.452 34.445-34.445v-6.258c0-6.567-5.343-11.91-11.91-11.91z"/><path d="m295.068 152.065c4.143 0 7.5-3.358 7.5-7.5s-3.357-7.5-7.5-7.5h-233.133c-4.143 0-7.5 3.358-7.5 7.5v261.16c0 4.142 3.357 7.5 7.5 7.5h64.967c4.143 0 7.5-3.358 7.5-7.5s-3.357-7.5-7.5-7.5h-57.467v-246.16z"/><path d="m305.575 274.408v-49.582c0-13.61-11.072-24.683-24.683-24.683h-47.046l-13.825-4.543c-3.303-1.084-6.951-.515-9.766 1.522-2.813 2.038-4.493 5.328-4.493 8.802v68.483c0 18.07 9.653 33.926 24.073 42.686v8.276l-32.938 27.353c-7.116 5.91-11.197 14.604-11.197 23.855v21.646h-26.838c-4.143 0-7.5 3.358-7.5 7.5s3.357 7.5 7.5 7.5h290.328c4.143 0 7.5-3.358 7.5-7.5v-197.062c0-4.142-3.357-7.5-7.5-7.5s-7.5 3.358-7.5 7.5v189.563h-116.266v-21.646c0-9.25-4.081-17.945-11.197-23.855l-32.938-27.353v-8.154c14.536-8.732 24.286-24.651 24.286-42.808zm-75.269-59.64c.755.249 1.546.375 2.341.375h48.246c5.339 0 9.683 4.344 9.683 9.683v15.093h-69.813v-28.286zm-9.543 40.151h69.813v19.489c0 19.248-15.659 34.906-34.906 34.906s-34.906-15.659-34.906-34.906v-19.489zm89.661 121.659v21.646h-109.723v-21.646c0-4.776 2.107-9.265 5.781-12.315l28.174-23.397c4.673 6.509 12.3 10.76 20.906 10.76s16.233-4.252 20.906-10.76l28.174 23.397c3.674 3.051 5.782 7.539 5.782 12.315zm-44.135-50.678c0 5.915-4.812 10.726-10.727 10.726s-10.727-4.812-10.727-10.726v-2.784c3.49.776 7.112 1.198 10.833 1.198 3.645 0 7.196-.403 10.62-1.149v2.735z"/><path d="m469.623 30.287h-110.554c-22.884 0-41.501 18.618-41.501 41.502v121.339c0 5.454 3.305 10.2 8.419 12.093 1.49.552 3.021.819 4.531.819 3.672 0 7.217-1.583 9.732-4.517l13.179-15.363h44.936c4.143 0 7.5-3.358 7.5-7.5s-3.357-7.5-7.5-7.5h-48.383c-2.188 0-4.268.956-5.692 2.617l-11.722 13.664v-115.652c0-14.613 11.889-26.502 26.501-26.502h110.554c14.613 0 26.502 11.889 26.502 26.502v72.87c0 14.613-11.889 26.502-26.502 26.502h-39.295c-4.143 0-7.5 3.358-7.5 7.5s3.357 7.5 7.5 7.5h39.295c22.884 0 41.502-18.618 41.502-41.502v-72.87c0-22.884-18.618-41.502-41.502-41.502z"/></g></g></svg>