<svg id="Capa_1" enable-background="new 0 0 509.756 509.756" height="512" viewBox="0 0 509.756 509.756" width="512" xmlns="http://www.w3.org/2000/svg"><g><g><g><path d="m482.603 326.614h-445.024l-30.081 64.86v60.47c0 13.98 11.33 25.3 25.3 25.3h444.16c13.97 0 25.3-11.32 25.3-25.3v-60.47z" fill="#5f99d7"/><path d="m90.08 476.79v-150.176h-52.501l-30.081 64.86v60.47c0 13.98 11.33 25.3 25.3 25.3h57.292c-.002-.151-.01-.301-.01-.454z" fill="#3c87d0"/><path d="m502.258 130.404v261.07h-494.76v-261.07c0-13.97 11.33-25.3 25.3-25.3h444.16c13.97 0 25.3 11.33 25.3 25.3z" fill="#f2fbff"/></g><g><path d="m423.503 105.104h-390.705c-13.973 0-25.3 11.327-25.3 25.3v261.07h82.582v-41.358c0-7.812 9.67-11.408 14.812-5.528 16.812 19.223 37.237 35.209 60.207 46.885h180.558c64.993-33.036 109.628-100.565 109.628-178.329 0-39.771-11.679-76.865-31.782-108.04z" fill="#dff6fd"/><circle cx="255.378" cy="213.146" fill="#c8effe" r="179.907"/><circle cx="255.378" cy="213.146" fill="#99e6fc" r="141.204"/><circle cx="255.378" cy="213.146" fill="#62dbfb" r="98.985"/><g id="XMLID_333_"><g><g><path d="m299.958 215.764v28.77c0 24.62-19.96 44.58-44.58 44.58s-44.58-19.96-44.58-44.58v-28.77c0-24.62 19.96-44.58 44.58-44.58 12.31 0 23.46 4.99 31.52 13.06 8.07 8.06 13.06 19.21 13.06 31.52z" fill="#f3f0f3"/></g></g></g><path d="m129.184 440.568v-16.711c0-6.083 6.799-9.694 11.839-6.288l12.364 8.355c4.453 3.009 4.453 9.567 0 12.576l-12.364 8.355c-5.04 3.407-11.839-.204-11.839-6.287z" fill="#f3f0f3"/></g></g><g><path d="m476.955 97.608h-41.24c-4.143 0-7.5 3.358-7.5 7.5s3.357 7.5 7.5 7.5h41.24c9.815 0 17.801 7.985 17.801 17.8v253.57h-25.463c-4.143 0-7.5 3.358-7.5 7.5s3.357 7.5 7.5 7.5h25.463v52.97c0 9.815-7.985 17.8-17.801 17.8h-444.154c-9.815 0-17.801-7.985-17.801-17.8v-52.97h422.33c4.143 0 7.5-3.358 7.5-7.5s-3.357-7.5-7.5-7.5h-422.33v-253.57c0-9.815 7.985-17.8 17.801-17.8h42.24c4.143 0 7.5-3.358 7.5-7.5s-3.357-7.5-7.5-7.5h-42.24c-18.087 0-32.801 14.714-32.801 32.8v321.541c0 18.086 14.714 32.8 32.801 32.8h444.154c18.087 0 32.801-14.714 32.801-32.8v-321.541c0-18.086-14.714-32.8-32.801-32.8z"/><path d="m337.46 244.532v-28.764c0-4.142-3.357-7.5-7.5-7.5s-7.5 3.358-7.5 7.5v21.264h-15v-21.265c0-28.718-23.364-52.082-52.082-52.082s-52.082 23.364-52.082 52.082v21.265h-15v-21.264c0-4.142-3.357-7.5-7.5-7.5s-7.5 3.358-7.5 7.5v28.764c0 42.731 32.826 77.923 74.582 81.725v17.75h-33.457c-4.143 0-7.5 3.358-7.5 7.5s3.357 7.5 7.5 7.5h81.914c4.143 0 7.5-3.358 7.5-7.5s-3.357-7.5-7.5-7.5h-33.457v-17.75c41.756-3.802 74.582-38.995 74.582-81.725zm-74.582 66.652v-15.118c22.726-3.293 40.742-21.309 44.034-44.035h15.118c-3.467 31.007-28.145 55.687-59.152 59.153zm-7.5-132.499c17.879 0 32.842 12.718 36.319 29.583h-72.638c3.477-16.865 18.44-29.583 36.319-29.583zm-66.652 73.347h15.109c.593 4.091 1.674 8.093 3.235 11.964 1.548 3.84 5.915 5.698 9.761 4.15 3.841-1.549 5.699-5.919 4.149-9.761-1.781-4.417-2.685-9.078-2.685-13.853v-21.264h74.164v21.264c0 20.447-16.635 37.083-37.082 37.083-5.702 0-11.175-1.263-16.266-3.752-3.722-1.819-8.213-.278-10.032 3.442-1.82 3.721-.278 8.212 3.442 10.032 4.893 2.393 10.037 3.959 15.355 4.724v15.123c-31.005-3.466-55.683-28.146-59.15-59.152z"/><path d="m254.878 255.676c4.143 0 7.5-3.358 7.5-7.5v-3.644c0-4.142-3.357-7.5-7.5-7.5s-7.5 3.358-7.5 7.5v3.644c0 4.142 3.357 7.5 7.5 7.5z"/><path d="m145.223 411.354c-4.637-3.132-10.585-3.449-15.527-.824-4.941 2.625-8.011 7.731-8.011 13.326v16.711c0 5.595 3.069 10.701 8.011 13.326 2.227 1.183 4.657 1.768 7.081 1.768 2.955 0 5.899-.871 8.446-2.592l12.363-8.355c4.158-2.81 6.641-7.484 6.641-12.502s-2.482-9.692-6.641-12.502zm3.965 20.933-12.39 8.383c-.032-.002-.097-.036-.107-.036h-.001s-.005-.02-.005-.066l-.009-16.748c.021-.027.089-.063.148-.037l12.395 8.376c.01.024.01.083-.031.128z"/><path d="m85.852 416.255v31.915c0 4.142 3.357 7.5 7.5 7.5s7.5-3.358 7.5-7.5v-31.915c0-4.142-3.357-7.5-7.5-7.5s-7.5 3.358-7.5 7.5z"/><path d="m54.981 416.255v31.915c0 4.142 3.357 7.5 7.5 7.5s7.5-3.358 7.5-7.5v-31.915c0-4.142-3.357-7.5-7.5-7.5s-7.5 3.358-7.5 7.5z"/><path d="m197.515 424.712c-4.143 0-7.5 3.358-7.5 7.5s3.357 7.5 7.5 7.5h47.302c4.143 0 7.5-3.358 7.5-7.5s-3.357-7.5-7.5-7.5z"/><circle cx="291.455" cy="432.212" fill="#f3f0f3" r="15.958"/><path d="m291.455 455.67c-12.935 0-23.458-10.523-23.458-23.458s10.523-23.458 23.458-23.458 23.457 10.523 23.457 23.458-10.522 23.458-23.457 23.458zm0-31.915c-4.664 0-8.458 3.794-8.458 8.458s3.794 8.458 8.458 8.458c4.663 0 8.457-3.794 8.457-8.458s-3.794-8.458-8.457-8.458z"/><path d="m465.425 439.712h-127.331c-4.143 0-7.5-3.358-7.5-7.5s3.357-7.5 7.5-7.5h127.331c4.143 0 7.5 3.358 7.5 7.5s-3.358 7.5-7.5 7.5z"/><path d="m348.856 200.836c.494 0 .997-.049 1.5-.151 4.06-.824 6.682-4.783 5.857-8.842-9.683-47.702-52.091-82.325-100.836-82.325s-91.153 34.623-100.836 82.325c-.824 4.06 1.798 8.018 5.857 8.842 4.065.825 8.019-1.799 8.842-5.858 8.271-40.74 44.496-70.309 86.137-70.309s77.866 29.569 86.137 70.309c.722 3.556 3.849 6.009 7.342 6.009z"/><path d="m106.235 325.892c2.51 3.294 7.214 3.931 10.512 1.42 3.294-2.51 3.93-7.216 1.42-10.511-23.025-30.218-35.196-66.314-35.196-104.387 0-95.065 77.342-172.407 172.407-172.407s172.407 77.342 172.407 172.407c0 38.073-12.171 74.169-35.196 104.387-2.51 3.294-1.874 8 1.42 10.511 1.358 1.035 2.955 1.535 4.54 1.535 2.261 0 4.495-1.018 5.972-2.955 25.033-32.852 38.265-72.092 38.265-113.478 0-103.336-84.07-187.407-187.407-187.407s-187.408 84.071-187.408 187.407c0 41.385 13.231 80.626 38.264 113.478z"/><path d="m356.951 308.549c1.411 1.2 3.137 1.787 4.854 1.787 2.124 0 4.234-.897 5.718-2.641 22.581-26.554 35.018-60.392 35.018-95.28 0-29.95-8.952-58.779-25.89-83.371-2.351-3.411-7.02-4.274-10.431-1.923-3.411 2.35-4.272 7.02-1.923 10.431 15.206 22.079 23.243 47.965 23.243 74.863 0 31.332-11.167 61.718-31.445 85.563-2.682 3.154-2.299 7.887.856 10.571z"/><path d="m255.378 80.251c33.005 0 64.607 12.234 88.985 34.447 3.063 2.79 7.804 2.57 10.596-.492 2.79-3.062 2.569-7.806-.492-10.595-27.147-24.737-62.338-38.36-99.089-38.36-81.146 0-147.162 66.017-147.162 147.163 0 34.302 12.062 67.697 33.964 94.034 1.483 1.784 3.619 2.705 5.771 2.705 1.69 0 3.391-.568 4.792-1.733 3.185-2.648 3.619-7.377.971-10.562-19.666-23.649-30.497-53.638-30.497-84.443-.001-72.875 59.287-132.164 132.161-132.164z"/></g></g></svg>