<svg id="Capa_1" enable-background="new 0 0 512.651 512.651" height="512" viewBox="0 0 512.651 512.651" width="512" xmlns="http://www.w3.org/2000/svg"><g><g><path d="m296.079 330.784 76.769 59.639c21.156 16.435 33.533 41.723 33.533 68.513v36.72c0 5.244-4.251 9.495-9.495 9.495h-281.122c-5.244 0-9.495-4.251-9.495-9.495v-36.72c0-26.79 12.377-52.077 33.533-68.513l76.769-59.639 27.615-20.972h26.373z" fill="#5f99d7"/><path d="m296.079 330.784-4.484-3.685-22.871 10.245 18.365-13.948-16.531-13.585h-26.373l-27.615 20.972-76.769 59.639c-21.156 16.435-33.533 41.723-33.533 68.513v36.72c0 5.244 4.251 9.495 9.495 9.495h37.49v-35.729c0-26.79 12.377-52.077 33.533-68.513l12.208-9.484c10.04-7.8 23.472-9.817 35.281-5.107 6.824 2.722 14.265 4.22 22.05 4.22 28.055 0 51.643-19.439 58.035-45.552z" fill="#3c87d0"/><path d="m296.079 330.784c0 21.955-17.798 39.754-39.754 39.754-21.955 0-39.754-17.798-39.754-39.754v-81.698h79.508z" fill="#ffe5c2"/><path d="m340.095 171.758v-41.158c0-16.847-13.657-30.504-30.504-30.504h-62.675-31.734l-4.84-9.258c-1.687-3.226-6.045-5.866-9.685-5.866-16.031 10.761-25.648 28.8-25.648 48.107v38.679l30.483 35.698h78.098z" fill="#a79ba7"/><path d="m247.055 203.555-30.483-35.698v-38.679c0-10.375 2.799-20.372 7.857-29.082h-9.246l-4.84-9.258c-1.687-3.226-6.045-5.866-9.685-5.866-16.031 10.761-25.648 28.8-25.648 48.107v38.679l30.483 35.698h78.098l6.175-3.901z" fill="#918291"/><g><path d="m257.552 327.83c13.621 0 26.626-2.676 38.527-7.519v-71.225h-79.508v81.698c0 21.955 17.798 39.754 39.754 39.754 4.312 0 8.486-.694 12.374-1.964-8.698-2.841-16.104-15.147-21.007-25.717-3.278-7.067 1.903-15.041 9.693-15.028.056.001.112.001.167.001z" fill="#fed2a4"/><path d="m175.009 171.758v53.529c0 21.369 8.12 40.842 21.443 55.5l1.794-9.627 68.564 31.112 14.088.822 6.429-.822c30.868-11.948 52.768-41.899 52.768-76.985v-53.529c-55.335-10.121-110.367-10.235-165.086 0z" fill="#ffe5c2"/><path d="m216.571 206.485v-40.509c-13.874 1.27-27.729 3.194-41.563 5.781v53.529c0 45.587 36.956 82.543 82.543 82.543 10.502 0 20.536-1.982 29.775-5.558-40.002-6.706-70.755-47.032-70.755-95.786z" fill="#fed2a4"/><path d="m385.747 50.24h-37.513v-37.512c0-2.887-2.34-5.228-5.228-5.228h-24.479c-2.887 0-5.228 2.34-5.228 5.228v37.512h-37.513c-2.887 0-5.228 2.341-5.228 5.228v24.479c0 2.887 2.34 5.228 5.228 5.228h37.514v37.513c0 2.887 2.34 5.228 5.228 5.228h24.479c2.887 0 5.228-2.341 5.228-5.228v-37.513h37.513c2.887 0 5.228-2.34 5.228-5.228v-24.479c-.001-2.887-2.342-5.228-5.229-5.228z" fill="#f37c7c"/></g></g><g><path d="m130.474 388.435c-20.149 17.875-31.705 43.571-31.705 70.5v46.215c0 4.142 3.358 7.5 7.5 7.5s7.5-3.358 7.5-7.5v-46.215c0-22.643 9.717-44.25 26.659-59.28 3.099-2.749 3.382-7.489.633-10.587-2.748-3.098-7.488-3.381-10.587-.633z"/><path d="m377.45 384.5-73.871-57.387v-24.441c1.777-1.061 3.528-2.177 5.24-3.366 14.738-10.234 25.989-24.442 32.535-41.087 1.516-3.855-.38-8.208-4.234-9.725-3.854-1.516-8.208.379-9.725 4.234-11.373 28.917-38.788 47.602-69.843 47.602-41.379 0-75.043-33.664-75.043-75.043v-47.257c49.306-8.5 99.729-8.493 150.086.023v44.845c0 4.142 3.358 7.5 7.5 7.5s7.5-3.358 7.5-7.5v-64.982c0-4.142-3.358-7.5-7.5-7.5s-7.5 3.358-7.5 7.5v4.938c-50.334-8.24-100.736-8.25-150.086-.031v-29.743c0-16.011 7.547-30.953 20.306-40.451l5.72 10.942c1.293 2.475 3.854 4.025 6.646 4.025h31.734c4.142 0 7.5-3.358 7.5-7.5s-3.358-7.5-7.5-7.5h-27.191l-4.788-9.158c-1.682-3.217-4.664-5.575-8.182-6.469-3.518-.897-7.265-.248-10.279 1.776-18.138 12.176-28.967 32.488-28.967 54.334v92.208c0 31.814 16.585 59.827 41.563 75.848v25.978l-52.123 40.492c-3.271 2.541-3.863 7.253-1.322 10.524 1.479 1.903 3.691 2.899 5.928 2.899 1.608 0 3.228-.515 4.596-1.578l44.963-34.93c5.899 19.376 23.932 33.517 45.211 33.517s39.312-14.141 45.211-33.517l66.711 51.825c19.468 15.124 30.634 37.938 30.634 62.59v46.215c0 4.142 3.358 7.5 7.5 7.5s7.5-3.358 7.5-7.5v-46.215c.002-29.317-13.277-56.448-36.43-74.435zm-121.125-21.462c-17.785 0-32.254-14.469-32.254-32.254v-21.913c10.355 4.163 21.654 6.459 33.48 6.459 10.71 0 21.174-1.881 31.027-5.501v20.956c.001 17.784-14.468 32.253-32.253 32.253z"/><path d="m166.336 456.52c-4.142 0-7.5 3.358-7.5 7.5v41.131c0 4.142 3.358 7.5 7.5 7.5s7.5-3.358 7.5-7.5v-41.131c0-4.143-3.358-7.5-7.5-7.5z"/><path d="m346.315 456.52c-4.142 0-7.5 3.358-7.5 7.5v41.131c0 4.142 3.358 7.5 7.5 7.5s7.5-3.358 7.5-7.5v-41.131c0-4.143-3.358-7.5-7.5-7.5z"/><path d="m275.787 92.675h30.013v30.013c0 7.018 5.709 12.728 12.728 12.728h24.479c7.018 0 12.728-5.709 12.728-12.728v-30.013h30.013c7.018 0 12.728-5.709 12.728-12.728v-24.479c0-7.018-5.709-12.728-12.728-12.728h-30.013v-30.012c-.001-7.019-5.71-12.728-12.728-12.728h-24.479c-7.018 0-12.728 5.709-12.728 12.728v30.013h-30.013c-7.018 0-12.728 5.709-12.728 12.728v24.479c0 7.017 5.71 12.727 12.728 12.727zm2.272-34.934h35.241c4.142 0 7.5-3.358 7.5-7.5v-35.241h19.934v35.241c0 4.142 3.358 7.5 7.5 7.5h35.241v19.934h-35.241c-4.142 0-7.5 3.358-7.5 7.5v35.241h-19.934v-35.241c0-4.142-3.358-7.5-7.5-7.5h-35.241z"/></g></g></svg>