<svg id="Capa_1" enable-background="new 0 0 512.651 512.651" height="512" viewBox="0 0 512.651 512.651" width="512" xmlns="http://www.w3.org/2000/svg"><g><g><path d="m370.344 164.499c0-55.476-44.972-100.449-100.449-100.449h-29.336c-55.508 7.679-98.252 55.308-98.252 112.928v258.442h228.037z" fill="#a79ba7"/><path d="m285.565 65.27c-5.106-.8-10.339-1.219-15.67-1.219h-29.336c-55.508 7.679-98.252 55.308-98.252 112.928v258.442h52.112v-258.442c0-55.136 39.139-101.118 91.146-111.709z" fill="#918291"/><g><path d="m406.382 495.56v-36.624c0-26.79-12.377-52.077-33.533-68.513l-76.769-59.639-17.068-13.298h-45.763l-16.677 13.298-76.769 59.639c-21.156 16.435-33.533 41.723-33.533 68.513v36.624c0 5.297 4.294 9.591 9.591 9.591h280.931c5.296 0 9.59-4.294 9.59-9.591z" fill="#ade194"/><path d="m296.079 330.784-17.068-13.298h-45.763l-93.447 72.937c-21.156 16.435-33.533 41.723-33.533 68.513v36.624c0 5.297 4.294 9.591 9.591 9.591h30.163v-15.202c0-26.79 12.377-52.077 33.533-68.513l28.945-22.486c10.602-8.236 24.19-11.667 37.41-9.325 3.383.599 6.863.912 10.415.912 28.055 0 51.643-19.439 58.035-45.552z" fill="#97da7b"/><path d="m296.079 330.784c0 21.955-17.798 39.754-39.754 39.754-21.955 0-39.754-17.798-39.754-39.754v-84.378h79.508z" fill="#ffe5c2"/><path d="m257.552 327.83c13.621 0 26.626-2.676 38.527-7.519v-73.905h-79.508v84.378c0 21.955 17.798 39.754 39.754 39.754 4.862 0 9.518-.876 13.824-2.474-8.976-3.33-16.423-17.162-20.999-27.872-2.523-5.904 1.845-12.371 8.266-12.363.046.001.091.001.136.001z" fill="#fed2a4"/><path d="m323.674 169.047c-44.294-6.52-88.392-6.593-132.29-.042-9.425 1.406-16.375 9.552-16.375 19.081v37.201c0 13.522 3.273 26.272 9.036 37.537l7.492-7.492 39.795 39.637 39.637 9.234h10.831c33.752-10.359 58.294-41.769 58.294-78.916v-37.152c.001-9.546-6.975-17.697-16.42-19.088z" fill="#ffe5c2"/><path d="m213.536 222.919v-54.201c0-.833.071-1.649.174-2.457-7.448.73-14.891 1.634-22.327 2.744-9.425 1.406-16.375 9.552-16.375 19.081v37.201c0 45.587 36.956 82.543 82.543 82.543 8.438 0 16.588-1.274 24.255-3.627-38.775-6.768-68.27-40.571-68.27-81.284z" fill="#fed2a4"/><path d="m385.747 50.24h-37.513v-37.512c0-2.887-2.34-5.228-5.228-5.228h-24.479c-2.887 0-5.228 2.34-5.228 5.228v37.512h-37.513c-2.887 0-5.228 2.341-5.228 5.228v24.479c0 2.887 2.34 5.228 5.228 5.228h37.514v37.513c0 2.887 2.34 5.228 5.228 5.228h24.479c2.887 0 5.228-2.341 5.228-5.228v-37.513h37.513c2.887 0 5.228-2.34 5.228-5.228v-24.479c-.001-2.887-2.342-5.228-5.229-5.228z" fill="#f37c7c"/></g></g><g><path d="m169.748 367.16c-2.542-3.271-7.254-3.863-10.524-1.322l-9.417 7.316v-196.175c0-25.877 9.392-50.823 26.446-70.243 16.9-19.245 40.103-31.766 65.334-35.256 4.103-.567 6.969-4.354 6.401-8.457s-4.353-6.975-8.457-6.401c-28.798 3.984-55.273 18.266-74.549 40.216-19.459 22.158-30.175 50.62-30.175 80.141v207.836c-22.907 17.988-36.038 44.97-36.038 74.12v46.215c0 4.142 3.358 7.5 7.5 7.5s7.5-3.358 7.5-7.5v-46.215c0-24.652 11.166-47.466 30.634-62.59l24.023-18.662c3.272-2.54 3.863-7.252 1.322-10.523z"/><path d="m377.844 384.815v-207.836c0-10.213-1.273-20.372-3.784-30.192-1.026-4.014-5.111-6.438-9.124-5.408-4.013 1.026-6.435 5.111-5.408 9.124 2.201 8.607 3.316 17.515 3.316 26.476v196.174l-59.265-46.04v-24.503c10.322-6.141 19.457-14.341 26.705-24.259 2.444-3.344 1.713-8.037-1.631-10.48-3.343-2.444-8.036-1.713-10.48 1.631-14.105 19.304-36.768 30.829-60.621 30.829-20.045 0-38.89-7.806-53.063-21.979s-21.979-33.019-21.979-53.063v-37.201c0-5.8 4.291-10.814 9.981-11.663 42.767-6.381 86.536-6.366 130.091.044 5.708.84 10.013 5.856 10.013 11.668v37.151c0 6-.727 12.016-2.161 17.881-.983 4.024 1.481 8.083 5.504 9.067 4.023.979 8.083-1.481 9.067-5.504 1.718-7.03 2.59-14.245 2.59-21.443v-37.151c0-13.197-9.814-24.593-22.829-26.508-45.016-6.627-90.264-6.64-134.49-.041-12.979 1.938-22.767 13.33-22.767 26.499v37.201c0 24.051 9.366 46.663 26.373 63.67 4.666 4.666 9.766 8.734 15.19 12.214v25.942l-23.587 18.324c-3.271 2.541-3.863 7.253-1.322 10.524 1.479 1.903 3.691 2.899 5.928 2.899 1.608 0 3.228-.515 4.596-1.578l16.428-12.762c5.899 19.376 23.932 33.517 45.211 33.517s39.312-14.141 45.211-33.517l66.711 51.825c19.468 15.124 30.634 37.938 30.634 62.59v46.215c0 4.142 3.358 7.5 7.5 7.5s7.5-3.358 7.5-7.5v-46.215c0-29.151-13.131-56.134-36.038-74.122zm-121.519-21.777c-17.785 0-32.254-14.469-32.254-32.254v-21.879c10.508 4.205 21.821 6.425 33.48 6.425 10.697 0 21.192-1.932 31.027-5.559v21.013c.001 17.785-14.468 32.254-32.253 32.254z"/><path d="m166.336 456.52c-4.142 0-7.5 3.358-7.5 7.5v41.131c0 4.142 3.358 7.5 7.5 7.5s7.5-3.358 7.5-7.5v-41.131c0-4.143-3.358-7.5-7.5-7.5z"/><path d="m346.315 456.52c-4.142 0-7.5 3.358-7.5 7.5v41.131c0 4.142 3.358 7.5 7.5 7.5s7.5-3.358 7.5-7.5v-41.131c0-4.143-3.358-7.5-7.5-7.5z"/><path d="m275.787 92.675h30.013v30.013c0 7.018 5.709 12.728 12.728 12.728h24.479c7.018 0 12.728-5.709 12.728-12.728v-30.013h30.013c7.018 0 12.728-5.709 12.728-12.728v-24.479c0-7.018-5.709-12.728-12.728-12.728h-30.013v-30.012c-.001-7.019-5.71-12.728-12.728-12.728h-24.479c-7.018 0-12.728 5.709-12.728 12.728v30.013h-30.013c-7.018 0-12.728 5.709-12.728 12.728v24.479c0 7.017 5.71 12.727 12.728 12.727zm2.272-34.934h35.241c4.142 0 7.5-3.358 7.5-7.5v-35.241h19.934v35.241c0 4.142 3.358 7.5 7.5 7.5h35.241v19.934h-35.241c-4.142 0-7.5 3.358-7.5 7.5v35.241h-19.934v-35.241c0-4.142-3.358-7.5-7.5-7.5h-35.241z"/></g></g></svg>