<svg id="Capa_1" enable-background="new 0 0 510.629 510.629" height="512" viewBox="0 0 510.629 510.629" width="512" xmlns="http://www.w3.org/2000/svg"><g><g><g><g><g id="XMLID_339_"><g><path d="m454.52 213.074-38.1-38.55-163.87-165.82c-1.59-1.61-4.19-1.61-5.77.01l-200.99 204.37 117.138 196.71h233.215l58.387-196.71z" fill="#fee97d"/><path d="m454.52 213.074-14.287-14.455-34.596 23.504-89.601 60.899c-11.604 7.887-27.134 6.635-37.325-3.01-7.744-7.334-17.885-11.373-28.552-11.373s-20.808 4.039-28.548 11.369l-.005.004c-10.19 9.645-25.72 10.897-37.324 3.011l-124.238-84.433-14.254 14.494 117.138 196.71h233.215l58.387-196.71z" fill="#fee45a"/><g id="XMLID_345_"><g><path d="m416.42 361.114h-333.31v-275.91c0-6.58 5.33-11.91 11.9-11.91h321.41z" fill="#dff6fd"/></g></g></g></g></g><path d="m405.637 222.123-89.601 60.899c-11.604 7.887-27.134 6.635-37.325-3.01-7.744-7.334-17.885-11.373-28.552-11.373s-20.808 4.039-28.548 11.369c-10.186 9.65-25.717 10.907-37.322 3.02l-24.871-16.903c-9.087-6.176-14.527-16.45-14.527-27.438v-162.041c0-1.165.175-2.288.486-3.352h-50.367c-6.572 0-11.9 5.328-11.9 11.9v275.92h54.246 279.064v-8.558-137.759z" fill="#c8effe"/><g id="XMLID_341_"><g><circle cx="250.16" cy="245.624" fill="#c8effe" r="98.47"/></g></g><path d="m250.16 344.094c48.88 0 89.439-35.625 97.145-82.324l-31.268 21.252c-11.604 7.887-27.134 6.635-37.325-3.01-7.744-7.334-17.885-11.373-28.552-11.373s-20.808 4.039-28.548 11.369l-.005.004c-10.19 9.645-25.72 10.897-37.324 3.011l-31.267-21.25c7.707 46.697 48.265 82.321 97.144 82.321z" fill="#99e6fc"/><g id="XMLID_343_"><g fill="#dff6fd"><path d="m250.16 259.714c15.17 0 28.95 5.92 39.17 15.58 10.21 9.66 16.85 23.05 17.75 38v12.69c-16.07 11.41-35.71 18.11-56.92 18.11s-40.85-6.7-56.92-18.11v-12.69c1.79-29.89 26.58-53.58 56.92-53.58z"/><path d="m250.16 176.004c23.12 0 41.86 18.74 41.86 41.85 0 23.12-18.74 41.86-41.86 41.86s-41.86-18.74-41.86-41.86c0-23.11 18.74-41.85 41.86-41.85z"/></g></g><path d="m334.924 74.891c0 41.653 33.887 75.54 75.54 75.54 2.006 0 3.988-.103 5.955-.257v-76.88h-81.455c-.01.533-.04 1.061-.04 1.597z" fill="#c8effe"/><circle cx="410.465" cy="74.891" fill="#f37c7c" r="55.54"/><path d="m438.035 117.589c-30.674 0-55.54-24.866-55.54-55.54 0-16.788 7.478-31.838 19.25-42.022-26.521 4.192-46.821 27.163-46.821 54.863 0 30.674 24.866 55.54 55.54 55.54 13.886 0 26.614-5.124 36.352-13.548-2.847.451-5.807.707-8.781.707z" fill="#ee6161"/></g><path d="m307.08 325.984v-12.69c-.549-9.118-3.242-17.649-7.569-25.114-7.524.065-15.02-2.698-20.799-8.168-7.744-7.334-17.885-11.373-28.552-11.373s-20.808 4.039-28.548 11.369l-.005.004c-5.779 5.47-13.275 8.233-20.799 8.169-4.329 7.466-7.023 15.998-7.569 25.113v12.69c16.07 11.41 35.71 18.11 56.92 18.11s40.851-6.7 56.921-18.11z" fill="#c8effe"/><path d="m206.22 322.114-160.43-109.03c-.75.75-1.16 1.78-1.16 2.84v259.18l54.784 3.014 156.662-137.079z" fill="#fef0ae"/><path d="m454.53 213.084-160.43 109.03-85.8 47.171 227.182 120.514 20.208-14.694v-259.17c0-1.071-.42-2.091-1.16-2.851z" fill="#fef0ae"/><g fill="#fee97d"><path d="m109.613 256.459-63.823-43.375c-.75.75-1.16 1.78-1.16 2.84v259.18l54.784 3.014 10.2-8.925v-212.734z"/><path d="m256.076 341.038-49.856-18.924-16.935-11.509-144.655 136.957v27.542l54.783 3.014z"/><path d="m311.034 310.605-16.934 11.509-85.8 47.17 227.182 120.514 20.208-14.694v-27.542z"/></g><path d="m84.16 475.771 15.253.84 10.2-8.925v-81.649l-64.983 61.525v27.542l39.621 2.18z" fill="#fee45a"/><path d="m294.1 322.114 161.59 152.99c0 15.48-12.54 28.03-28.02 28.03h-355.02c-15.48 0-28.02-12.55-28.02-28.03l161.59-152.99 29.14-27.58c8.3-7.86 21.3-7.86 29.6 0z" fill="#fef0ae"/><g><path d="m133.306 502.8c-13.424-2.081-23.693-13.688-23.693-27.696v-61.525l-64.983 61.525c0 15.48 12.54 28.03 28.02 28.03h60.656z" fill="#fee97d"/></g></g><g><path d="m423.923 171.444v-11.243c0-4.142-3.357-7.5-7.5-7.5s-7.5 3.358-7.5 7.5v74.808l-59.046 40.131c3.282-10.245 4.981-20.996 4.981-31.94 0-57.731-46.968-104.699-104.699-104.699-21.865 0-42.813 6.673-60.581 19.298-3.377 2.399-4.169 7.082-1.77 10.458 2.397 3.376 7.081 4.169 10.457 1.77 15.216-10.811 33.16-16.525 51.894-16.525 49.46 0 89.699 40.239 89.699 89.699 0 17.253-4.908 33.948-14.182 48.388l-13.099 8.903c-4.823-18.566-17.679-33.813-34.546-41.926 12.963-8.904 21.485-23.826 21.485-40.706 0-27.215-22.142-49.357-49.357-49.357s-49.357 22.142-49.357 49.357c0 16.883 8.525 31.808 21.492 40.711-16.87 8.113-29.73 23.353-34.553 41.921l-13.099-8.903c-9.274-14.44-14.182-31.135-14.182-48.388 0-18.741 5.719-36.691 16.538-51.91 2.399-3.376 1.608-8.059-1.768-10.458-3.375-2.401-8.059-1.608-10.459 1.767-12.634 17.772-19.312 38.728-19.312 60.602 0 10.943 1.699 21.693 4.979 31.938l-59.83-40.664v-149.274c0-2.428 1.976-4.403 4.403-4.403h229.951c4.143 0 7.5-3.358 7.5-7.5s-3.357-7.5-7.5-7.5h-5.445l-61.63-62.365c-2.188-2.215-5.106-3.434-8.22-3.434h-.012c-3.118.003-6.04 1.229-8.229 3.453l-61.313 62.346h-85.1c-10.699 0-19.403 8.704-19.403 19.403v86.859l-35.169 35.761c-2.139 2.175-3.316 5.052-3.316 8.102v259.185c0 19.586 15.935 35.521 35.521 35.521h355.027c19.587 0 35.521-15.935 35.521-35.521v-259.18c0-3.062-1.186-5.947-3.337-8.123zm-174.251-154.982 48.757 49.337h-97.277zm174.251 176.323 18.934 19.16-18.934 12.869zm-208.121 25.073c0-18.944 15.413-34.357 34.357-34.357s34.357 15.413 34.357 34.357c0 18.945-15.413 34.357-34.357 34.357s-34.357-15.412-34.357-34.357zm34.358 49.357c24.76 0 45.525 18.313 48.999 42.396l-4.285 2.913-24.753-23.435c-11.193-10.595-28.729-10.598-39.922 0l-24.753 23.435-4.285-2.913c3.474-24.083 24.238-42.396 48.999-42.396zm-55.866 55.866-142.169 134.599v-231.226zm-118.684-98.802-18.171-12.35 18.171-18.476zm352.063 271.35h-355.027c-10.295 0-18.819-7.628-20.277-17.524l188.143-178.123c5.41-5.122 13.887-5.121 19.297 0l71.708 67.889c3.007 2.847 7.755 2.717 10.603-.29 2.848-3.008 2.718-7.755-.29-10.603l-35.803-33.897 142.17-96.627v231.226l-83.145-78.717c-3.008-2.848-7.756-2.718-10.603.29-2.848 3.008-2.718 7.755.29 10.603l93.213 88.249c-1.459 9.896-9.984 17.524-20.279 17.524z"/><path d="m368.266 111.756c3.454-2.287 4.4-6.94 2.114-10.394-5.205-7.862-7.956-17.016-7.956-26.471 0-26.489 21.551-48.04 48.04-48.04s48.04 21.551 48.04 48.04-21.551 48.04-48.04 48.04c-6.537 0-12.876-1.291-18.84-3.837-3.812-1.626-8.217.144-9.843 3.953-1.627 3.81.144 8.216 3.952 9.842 7.837 3.346 16.157 5.042 24.73 5.042 34.761 0 63.04-28.28 63.04-63.04s-28.279-63.04-63.04-63.04-63.04 28.28-63.04 63.04c0 12.409 3.613 24.426 10.448 34.751 2.289 3.455 6.943 4.4 10.395 2.114z"/><path d="m410.464 44.153c-4.143 0-7.5 3.358-7.5 7.5v15.738h-15.738c-4.143 0-7.5 3.358-7.5 7.5s3.357 7.5 7.5 7.5h15.738v15.738c0 4.142 3.357 7.5 7.5 7.5s7.5-3.358 7.5-7.5v-15.738h15.738c4.143 0 7.5-3.358 7.5-7.5s-3.357-7.5-7.5-7.5h-15.738v-15.738c0-4.142-3.357-7.5-7.5-7.5z"/></g></g></svg>