<svg id="Capa_1" enable-background="new 0 0 513.949 513.949" height="512" viewBox="0 0 513.949 513.949" width="512" xmlns="http://www.w3.org/2000/svg"><g><g><circle cx="114.448" cy="400.972" fill="#f2fbff" r="105.478"/><path d="m59.041 400.972c0-49.626 34.303-91.242 80.47-102.482-8.026-1.954-16.436-2.996-25.063-2.996-58.254 0-105.478 47.224-105.478 105.478s47.224 105.478 105.478 105.478c8.627 0 17.037-1.045 25.063-2.999-46.167-11.241-80.47-52.853-80.47-102.479z" fill="#dff6fd"/><circle cx="399.501" cy="400.972" fill="#f2fbff" r="105.478"/><path d="m344.094 400.972c0-49.626 34.294-91.244 80.461-102.484-8.026-1.954-16.427-2.994-25.054-2.994-58.254 0-105.478 47.224-105.478 105.478s47.224 105.478 105.478 105.478c8.627 0 17.033-1.041 25.058-2.994-46.166-11.241-80.465-52.858-80.465-102.484z" fill="#dff6fd"/><circle cx="399.501" cy="112.977" fill="#f2fbff" r="105.478"/><path d="m344.094 112.978c0-49.626 34.293-91.245 80.46-102.484-8.025-1.955-16.425-2.994-25.053-2.994-58.254 0-105.478 47.224-105.478 105.478 0 58.253 47.224 105.478 105.478 105.478 8.627 0 17.042-1.047 25.067-3.001-46.166-11.241-80.474-52.851-80.474-102.477z" fill="#dff6fd"/><circle cx="114.448" cy="112.977" fill="#f2fbff" r="105.478"/><path d="m59.041 112.978c0-49.626 34.295-91.244 80.462-102.484-8.026-1.954-16.428-2.994-25.055-2.994-58.254 0-105.478 47.224-105.478 105.478 0 58.253 47.224 105.478 105.478 105.478 8.627 0 17.029-1.044 25.055-2.998-46.167-11.241-80.462-52.854-80.462-102.48z" fill="#dff6fd"/><g><g><path d="m168.782 449.354c1.802 2.445 1.28 5.887-1.165 7.689l-4.092 3.015c-8.669 6.388-20.876 4.539-27.264-4.13l-76.148-103.338c-1.802-2.445-1.28-5.887 1.165-7.689l4.091-3.015c8.669-6.388 20.876-4.539 27.265 4.13z" fill="#f3f0f3"/></g></g><g><g><path d="m377.688 455.927c-6.388 8.669-18.595 10.518-27.264 4.13l-4.092-3.015c-2.445-1.802-2.966-5.244-1.165-7.689l76.148-103.337c6.388-8.669 18.595-10.519 27.265-4.13l4.091 3.015c2.445 1.802 2.966 5.244 1.165 7.689z" fill="#f3f0f3"/></g></g><g><g><path d="m453.836 161.359c1.802 2.445 1.28 5.887-1.165 7.689l-4.091 3.015c-8.669 6.388-20.876 4.539-27.265-4.13l-76.148-103.337c-1.802-2.445-1.28-5.887 1.165-7.689l4.092-3.015c8.669-6.388 20.876-4.539 27.264 4.13z" fill="#f3f0f3"/></g></g><g><g><path d="m168.782 64.596c1.802-2.445 1.28-5.887-1.165-7.689l-4.092-3.015c-8.669-6.388-20.876-4.539-27.264 4.13l-76.148 103.337c-1.802 2.445-1.28 5.887 1.165 7.689l4.091 3.015c8.669 6.388 20.876 4.539 27.265-4.13z" fill="#f3f0f3"/></g></g><path d="m397.505 364.265c-3.35 0-6.58.49-9.64 1.4l-53.77-59.72c-3.13-3.47-4.86-7.97-4.86-12.64v-20.437l-3.747-2.816v-27.834l3.747-2.531v-20.043c0-4.67 1.73-9.17 4.86-12.64l53.03-58.9c3.27 1.06 6.76 1.63 10.38 1.63 18.64 0 33.76-15.11 33.76-33.76 0-18.64-15.12-33.76-33.76-33.76-18.65 0-33.76 15.12-33.76 33.76 0 4.08.72 7.99 2.04 11.6l-61.93 53.02c-2.47 2.11-5.62 3.28-8.86 3.28h-21.432l-2.145 4.671h-26.499l-4.53-4.671h-23.874c-3.41 0-6.7-1.29-9.22-3.6l-58.71-53.94c1.05-3.26 1.62-6.74 1.62-10.36 0-18.64-15.11-33.76-33.76-33.76-18.64 0-33.76 15.12-33.76 33.76 0 18.65 15.12 33.76 33.76 33.76 3.43 0 6.73-.51 9.85-1.46l52.88 58.73c3.13 3.47 4.86 7.97 4.86 12.64v20.043l3.228 1.902-.31 29.102-2.917 2.177v20.437c0 4.67-1.73 9.17-4.86 12.64l-53.63 59.57c-2.9-.81-5.95-1.25-9.1-1.25-18.64 0-33.76 15.11-33.76 33.76s15.12 33.76 33.76 33.76c18.65 0 33.76-15.11 33.76-33.76 0-3.9-.66-7.63-1.88-11.11l58.84-52.98c3.47-3.13 7.97-4.86 12.64-4.86h20.58l2.303-1.659h28.925l1.953 1.659h19.9c4.67 0 9.17 1.73 12.64 4.86l59.36 53.45c-1.11 3.34-1.72 6.92-1.72 10.64 0 18.65 15.11 33.76 33.76 33.76 18.64 0 33.76-15.11 33.76-33.76-.002-18.65-15.122-33.76-33.762-33.76z" fill="#e2dee2"/><g><path d="m240.384 183.87h33.18v145.204h-33.18z" fill="#cbc4cc"/><path d="m184.035 239.688h145.2v33.18h-145.2z" fill="#cbc4cc"/><circle cx="256.475" cy="255.475" fill="#e2dee2" r="26.745"/></g></g><g><path d="m399.501 287.994c-20.926 0-40.536 5.726-57.36 15.682l-2.476-2.749c-1.887-2.095-2.926-4.802-2.926-7.622v-73.661c0-2.82 1.039-5.527 2.926-7.622l1.888-2.097c16.954 10.172 36.779 16.03 57.948 16.03 62.296 0 112.978-50.682 112.978-112.978s-50.682-112.977-112.978-112.977-112.978 50.682-112.978 112.978c0 21.419 5.992 41.465 16.387 58.551l-3.937 3.37c-1.109.949-2.523 1.472-3.983 1.472h-78.474c-1.539 0-3.011-.573-4.144-1.615l-2.129-1.956c10.88-17.36 17.181-37.867 17.181-59.822.002-62.296-50.68-112.978-112.976-112.978s-112.977 50.682-112.977 112.978 50.682 112.978 112.978 112.978c20.985 0 40.648-5.758 57.504-15.767l1.652 1.834c1.887 2.095 2.926 4.802 2.926 7.622v73.661c0 2.82-1.039 5.527-2.926 7.622l-2.239 2.487c-16.725-9.795-36.175-15.42-56.917-15.42-62.296 0-112.978 50.682-112.978 112.978s50.682 112.978 112.978 112.978 112.978-50.682 112.978-112.978c0-21.928-6.286-42.412-17.141-59.757l1.899-1.71c2.095-1.886 4.801-2.925 7.621-2.925h73.66c2.82 0 5.526 1.039 7.622 2.926l2.333 2.101c-10.705 17.262-16.896 37.603-16.896 59.366 0 62.296 50.682 112.978 112.978 112.978s112.978-50.682 112.978-112.978-50.684-112.98-112.98-112.98zm-59.782 35.409 42.575 47.281c1.937 2.151 4.941 2.996 7.711 2.17 2.436-.725 4.958-1.092 7.497-1.092 14.48 0 26.262 11.781 26.262 26.262 0 14.48-11.781 26.261-26.262 26.261s-26.262-11.781-26.262-26.261c0-2.817.451-5.603 1.34-8.281.938-2.828.114-5.942-2.1-7.936l-47.116-42.427c4.813-5.938 10.303-11.303 16.355-15.977zm78.758 39.108 8.876-12.046c1.901-2.58 4.693-4.265 7.861-4.745 3.166-.479 6.335.302 8.916 2.204l2.48 1.828-16.745 22.723c-3.146-3.978-7.005-7.365-11.388-9.964zm-35.804 74.007-11.024 14.96c-3.923 5.326-11.447 6.466-16.777 2.542l-2.48-1.828 17.405-23.618c3.733 3.389 8.093 6.095 12.876 7.944zm-81.15-323.54c0-54.025 43.952-97.978 97.978-97.978s97.978 43.953 97.978 97.978-43.952 97.978-97.978 97.978c-17.303 0-33.569-4.515-47.693-12.419l37.861-42.045c2.575.497 5.195.748 7.833.748 2.13 0 4.223-.162 6.266-.475l11.509 15.617c4.278 5.806 10.561 9.598 17.691 10.678 1.37.208 2.74.311 4.101.311 5.719 0 11.27-1.813 15.961-5.27l4.089-3.014c2.796-2.06 4.622-5.084 5.143-8.518.52-3.433-.328-6.863-2.388-9.658l-22.457-30.475c.876-3.341 1.346-6.845 1.346-10.458 0-22.135-17.522-40.25-39.424-41.215l-15.615-21.19c-8.832-11.984-25.767-14.55-37.752-5.717l-4.089 3.014c-2.796 2.06-4.622 5.084-5.143 8.518-.52 3.433.328 6.863 2.388 9.658l21.28 28.878c-2.667 5.457-4.168 11.583-4.168 18.055 0 3.066.334 6.092.995 9.046l-5.905 5.055c-3.147 2.694-3.515 7.428-.82 10.575 2.693 3.147 7.429 3.513 10.574.82l9.578-8.199c2.378-2.036 3.242-5.334 2.167-8.274-1.055-2.881-1.589-5.917-1.589-9.023 0-14.481 11.781-26.262 26.262-26.262s26.262 11.781 26.262 26.262-11.781 26.262-26.262 26.262c-2.748 0-5.464-.427-8.071-1.269-2.817-.91-5.898-.079-7.878 2.119l-42.366 47.049c-6.003-4.703-11.442-10.093-16.206-16.045l13.75-11.771c3.147-2.694 3.515-7.428.82-10.575-2.693-3.146-7.43-3.514-10.574-.82l-12.499 10.7c-8.239-14.345-12.955-30.958-12.955-48.651zm116.981 38.497c4.381-2.602 8.238-5.993 11.382-9.974l16.725 22.696-2.48 1.828c-2.58 1.901-5.744 2.683-8.916 2.204-3.168-.48-5.96-2.165-7.861-4.746zm-35.801-74.004c-4.785 1.845-9.147 4.55-12.883 7.936l-17.428-23.649 2.48-1.828c5.328-3.925 12.854-2.784 16.777 2.541zm-268.255 133.484c-54.025 0-97.978-43.953-97.978-97.978s43.953-97.977 97.978-97.977 97.978 43.953 97.978 97.978c0 18.037-4.905 34.947-13.442 49.478l-42.03-38.612c.502-2.586.755-5.217.755-7.866 0-6.472-1.501-12.598-4.168-18.055l21.279-28.877c2.061-2.795 2.908-6.226 2.389-9.659-.521-3.434-2.347-6.458-5.141-8.517l-4.092-3.016c-11.987-8.831-28.921-6.264-37.752 5.719l-15.615 21.19c-21.902.966-39.424 19.08-39.424 41.215 0 3.612.47 7.116 1.346 10.458l-22.455 30.474c-2.061 2.795-2.908 6.226-2.389 9.659.521 3.434 2.347 6.458 5.141 8.517l4.092 3.016c4.812 3.545 10.42 5.253 15.981 5.253 8.294 0 16.484-3.799 21.771-10.972l11.509-15.618c2.044.313 4.136.475 6.266.475 2.438 0 4.863-.214 7.251-.639l37.991 42.189c-14.018 7.747-30.122 12.165-47.241 12.165zm29.682-125.548c-3.736-3.387-8.098-6.091-12.883-7.936l11.053-15c3.925-5.326 11.449-6.466 16.776-2.542l2.481 1.829zm-48.685 66.068-8.85 12.009c-3.926 5.327-11.453 6.465-16.776 2.542l-2.481-1.829 16.725-22.696c3.144 3.981 7.001 7.371 11.382 9.974zm78.916 38.971-42.493-47.189c-1.948-2.164-4.975-3.005-7.758-2.156-2.48.755-5.059 1.138-7.663 1.138-14.48 0-26.262-11.781-26.262-26.262s11.781-26.262 26.262-26.262 26.262 11.781 26.262 26.262c0 2.743-.426 5.455-1.265 8.061-.897 2.787-.092 5.842 2.064 7.822l46.826 43.018c-4.716 5.774-10.078 10.998-15.973 15.568zm38.065 210.526c0 54.025-43.952 97.978-97.978 97.978s-97.978-43.953-97.978-97.978 43.952-97.978 97.978-97.978c16.874 0 32.765 4.288 46.642 11.831l-38.218 42.442c-2.126-.336-4.273-.505-6.425-.505-2.118 0-4.198.161-6.231.471l-11.544-15.666c-8.834-11.986-25.769-14.549-37.752-5.718l-4.091 3.014c-2.795 2.06-4.621 5.085-5.142 8.518-.52 3.433.328 6.863 2.388 9.658l22.467 30.489c-.883 3.353-1.357 6.869-1.357 10.495 0 22.148 17.543 40.27 39.463 41.216l15.575 21.136c4.278 5.806 10.561 9.598 17.691 10.678 1.37.208 2.74.311 4.101.311 5.719 0 11.27-1.814 15.96-5.27l4.091-3.014c2.795-2.06 4.621-5.085 5.142-8.518.52-3.433-.328-6.863-2.388-9.658l-21.264-28.856c2.658-5.449 4.153-11.564 4.153-18.024 0-2.919-.307-5.811-.914-8.645l6.126-5.516c3.078-2.771 3.326-7.514.555-10.592-2.771-3.079-7.514-3.327-10.592-.555l-9.574 8.622c-2.244 2.021-3.058 5.191-2.063 8.043.971 2.783 1.463 5.691 1.463 8.643 0 14.48-11.781 26.261-26.262 26.261s-26.262-11.781-26.262-26.261c0-14.481 11.781-26.262 26.262-26.262 2.384 0 4.765.327 7.077.973 2.737.764 5.684-.088 7.59-2.205l42.714-47.435c6.09 4.655 11.621 10.003 16.471 15.931l-13.63 12.274c-3.078 2.771-3.326 7.514-.555 10.592 2.771 3.079 7.515 3.326 10.592.555l12.238-11.02c8.561 14.545 13.481 31.48 13.481 49.545zm-116.954-38.461c-4.383 2.599-8.242 5.986-11.389 9.964l-16.745-22.723 2.48-1.828c5.329-3.925 12.854-2.783 16.777 2.542zm35.804 74.007c4.783-1.849 9.143-4.555 12.877-7.944l17.405 23.618-2.48 1.828c-2.581 1.901-5.745 2.684-8.916 2.204-3.168-.48-5.961-2.165-7.861-4.746zm162.189-114.939h-12.4v-13.613c0-4.142-3.357-7.5-7.5-7.5s-7.5 3.358-7.5 7.5v13.613h-18.18v-13.613c0-4.142-3.357-7.5-7.5-7.5s-7.5 3.358-7.5 7.5v13.613h-13.08c-6.534 0-12.806 2.408-17.659 6.779l-.692.623c-5.221-6.299-11.112-12.022-17.561-17.063l.859-.954c4.372-4.854 6.779-11.126 6.779-17.659v-12.937h13.149c4.143 0 7.5-3.358 7.5-7.5s-3.357-7.5-7.5-7.5h-13.15v-18.181h13.149c4.143 0 7.5-3.358 7.5-7.5s-3.357-7.5-7.5-7.5h-13.149v-12.543c0-6.533-2.407-12.805-6.779-17.659l-.332-.369c6.219-4.92 11.911-10.479 16.974-16.578l.83.762c3.908 3.591 8.984 5.569 14.293 5.569h16.368v12.613c0 4.142 3.357 7.5 7.5 7.5s7.5-3.358 7.5-7.5v-12.612h18.18v12.613c0 4.142 3.357 7.5 7.5 7.5s7.5-3.358 7.5-7.5v-12.613h13.926c5.034 0 9.913-1.803 13.737-5.077l2.858-2.447c5.198 6.435 11.085 12.291 17.55 17.452l-.618.686c-4.372 4.854-6.779 11.126-6.779 17.659v12.543h-14.47c-4.143 0-7.5 3.358-7.5 7.5s3.357 7.5 7.5 7.5h14.47v18.181h-14.47c-4.143 0-7.5 3.358-7.5 7.5s3.357 7.5 7.5 7.5h14.47v12.937c0 6.533 2.407 12.805 6.779 17.659l1.139 1.265c-6.413 5.058-12.266 10.796-17.452 17.103l-1.081-.974c-4.852-4.37-11.124-6.778-17.658-6.778zm106.036 177.37c-54.025 0-97.978-43.953-97.978-97.978 0-17.899 4.829-34.69 13.246-49.146l42.279 38.071c-.537 2.671-.808 5.39-.808 8.128 0 6.459 1.495 12.575 4.153 18.024l-21.263 28.856c-2.061 2.795-2.908 6.226-2.389 9.659.521 3.433 2.347 6.458 5.142 8.518l4.091 3.015c4.812 3.546 10.419 5.254 15.982 5.254 8.292 0 16.483-3.799 21.77-10.972l15.576-21.137c21.92-.946 39.462-19.068 39.462-41.216 0-3.626-.474-7.143-1.357-10.495l22.466-30.489c2.061-2.795 2.908-6.226 2.389-9.659-.521-3.433-2.347-6.458-5.142-8.518l-4.091-3.015c-5.806-4.278-12.93-6.038-20.061-4.959-7.131 1.08-13.413 4.872-17.691 10.678l-11.544 15.666c-2.033-.309-4.114-.471-6.231-.471-2.356 0-4.703.201-7.018.601l-38.077-42.285c13.983-7.698 30.035-12.083 47.094-12.083 54.025 0 97.978 43.953 97.978 97.978s-43.953 97.975-97.978 97.975z"/><path d="m256.475 221.23c-18.883 0-34.245 15.362-34.245 34.245s15.362 34.245 34.245 34.245 34.245-15.362 34.245-34.245-15.363-34.245-34.245-34.245zm0 53.489c-10.611 0-19.245-8.633-19.245-19.245s8.634-19.245 19.245-19.245 19.245 8.633 19.245 19.245-8.634 19.245-19.245 19.245z"/><path d="m115.448 104.831c-4.143 0-7.5 3.358-7.5 7.5v4.957c0 4.142 3.357 7.5 7.5 7.5s7.5-3.358 7.5-7.5v-4.957c0-4.143-3.357-7.5-7.5-7.5z"/><path d="m398.501 124.787c4.143 0 7.5-3.358 7.5-7.5v-4.957c0-4.142-3.357-7.5-7.5-7.5s-7.5 3.358-7.5 7.5v4.957c0 4.142 3.357 7.5 7.5 7.5z"/><path d="m115.448 388.162c-4.143 0-7.5 3.358-7.5 7.5v4.957c0 4.142 3.357 7.5 7.5 7.5s7.5-3.358 7.5-7.5v-4.957c0-4.142-3.357-7.5-7.5-7.5z"/><path d="m398.501 408.119c4.143 0 7.5-3.358 7.5-7.5v-4.957c0-4.142-3.357-7.5-7.5-7.5s-7.5 3.358-7.5 7.5v4.957c0 4.142 3.357 7.5 7.5 7.5z"/></g></g></svg>