<svg id="Capa_1" enable-background="new 0 0 508.735 508.735" height="512" viewBox="0 0 508.735 508.735" width="512" xmlns="http://www.w3.org/2000/svg"><g><g><path d="m74.312 384.979c0 18.081 14.658 32.739 32.739 32.739h163.245c20.106 0 36.406-16.299 36.406-36.406v-341.073c0-18.081-14.658-32.739-32.739-32.739h-166.912c-18.081 0-32.739 14.658-32.739 32.739z" fill="#5f99d7"/><path d="m96.141 130.985c9.67 7.85 11.14 22.05 3.29 31.71-4.45 5.48-10.95 8.33-17.51 8.33-4.64 0-9.31-1.43-13.31-4.36l-31.29-25.37c-9.66-7.85-11.13-22.04-3.28-31.71 4.45-5.48 10.95-8.33 17.51-8.33 4.99 0 10.01 1.65 14.19 5.04z" fill="#ffe5c2"/><path d="m95.525 156.403c-4.64 0-9.31-1.43-13.31-4.36l-31.29-25.37c-7.294-5.927-9.907-15.476-7.376-23.957-3.602 1.363-6.908 3.668-9.507 6.87-7.85 9.67-6.38 23.86 3.28 31.71l31.29 25.37c4 2.93 8.67 4.36 13.31 4.36 6.56 0 13.06-2.85 17.51-8.33 1.924-2.368 3.285-5.018 4.106-7.771-2.565.969-5.285 1.478-8.013 1.478z" fill="#fed2a4"/><path d="m137.382 384.979v-344.74c0-18.081 14.658-32.739 32.739-32.739h-63.069c-18.081 0-32.739 14.658-32.739 32.739v344.74c0 18.081 14.658 32.739 32.739 32.739h63.069c-18.082 0-32.739-14.657-32.739-32.739z" fill="#3c87d0"/><path d="m278.22 162.997c-5.911-6.271-14.243-9.867-22.859-9.867-9.081 0-17.712 3.925-23.68 10.769l-1.857 2.129c-19.506 22.367-20.42 55.589-2.174 78.995l33.288 42.698-35.923 63.022c-11.008 19.313-14.608 41.94-10.137 63.717l.669 3.258h54.748c20.106 0 36.406-16.299 36.406-36.406v-188.096z" fill="#3c87d0"/><path d="m104.312 384.979c0 1.513 1.226 2.739 2.739 2.739h96.319 67.222c3.374 0 6.109-2.735 6.109-6.109v-341.37c0-1.513-1.226-2.739-2.739-2.739h-20.015c-3.867 0-7.506 1.93-9.581 5.193-4.767 7.496-13.138 12.4-22.565 12.4h-61.958c-9.427 0-17.799-4.905-22.565-12.4-2.075-3.263-5.714-5.193-9.581-5.193h-20.646c-1.513 0-2.739 1.226-2.739 2.739z" fill="#dff6fd"/><g fill="#c8effe"><path d="m137.382 42.845c-.033-.052-.07-.1-.103-.152-2.075-3.263-5.714-5.193-9.581-5.193h-20.646c-1.513 0-2.739 1.226-2.739 2.739v344.74c0 1.513 1.226 2.739 2.739 2.739h30.453c-.075-.904-.123-1.816-.123-2.74z"/><path d="m104.312 370.839c7.076-2.684 13.413-7.196 18.348-13.26 9.914-12.227 12.09-28.257 7.151-42.11-.814-2.284-.229-4.811 1.437-6.572.752-.795 1.478-1.621 2.176-2.479 8.972-11.052 11.612-25.209 8.392-38.058-.542-2.162.138-4.454 1.712-6.032 1.024-1.027 2.003-2.11 2.929-3.25 7.333-9.024 10.711-20.364 9.512-31.932s-6.833-21.976-15.859-29.304l-25.506-20.714c-.376-.306-.433-.858-.128-1.234 6.897-8.486 10.628-19.228 9.912-30.14-.785-11.965-6.39-22.784-15.639-30.292l-4.438-3.604v258.981z"/><path d="m213.409 387.719h57.183c3.374 0 6.109-2.735 6.109-6.109v-220.104c-5.776-5.342-13.436-8.376-21.341-8.376-9.081 0-17.712 3.925-23.68 10.769l-1.857 2.129c-19.506 22.367-20.42 55.589-2.174 78.995l33.288 42.698-35.923 63.022c-6.524 11.449-10.424 24.065-11.605 36.976z"/></g><g><path d="m471.422 491.446-82.969-97.601c-2.783-3.274-4.311-7.431-4.311-11.727v-38.613c0-25.028-9.561-49.111-26.727-67.325l-93.747-99.463c-4.627-4.909-12.478-4.757-16.912.327l-1.857 2.13c-13.252 15.195-13.869 37.652-1.474 53.553l34.75 44.575c4.098 5.257 4.618 12.467 1.318 18.258l-37.101 65.089c-8.598 15.084-11.413 32.781-7.921 49.789l2.764 13.46c5.974 29.091 29.31 51.46 58.627 56.199l12.033 15.698c2.629 3.43 6.705 5.442 11.028 5.442h147.973c5.063-.002 7.806-5.933 4.526-9.791z" fill="#ffe5c2"/><path d="m331.831 481.454c-2.421-3.454-6.027-5.863-10.113-6.912-26.381-6.771-46.903-28.264-52.451-55.629l-3.817-18.827c-2.814-13.879-.546-28.321 6.382-40.63l40.266-71.553c2.96-5.26 2.492-11.781-1.19-16.564l-42.497-55.216c-7.876-10.233-7.896-24.459-.306-34.697l-4.439-4.71c-4.627-4.909-12.478-4.757-16.912.327l-1.857 2.13c-13.252 15.195-13.869 37.652-1.474 53.553l34.75 44.575c4.098 5.257 4.618 12.467 1.318 18.258l-37.101 65.088c-8.598 15.084-11.413 32.781-7.921 49.789l2.764 13.46c5.974 29.091 29.31 51.46 58.627 56.199l12.033 15.698c2.63 3.43 6.706 5.442 11.028 5.442h26.772z" fill="#fed2a4"/><g id="XMLID_352_"><g fill="#ffe5c2"><path d="m127.503 213.367c10.093 8.193 11.627 23.015 3.434 33.097-4.645 5.72-11.429 8.694-18.276 8.694-4.843 0-9.717-1.493-13.892-4.551l-32.659-26.48c-10.083-8.193-11.617-23.004-3.423-33.097 4.645-5.72 11.429-8.694 18.276-8.694 5.208 0 10.448 1.722 14.811 5.26z"/><path d="m114.463 260.715c10.093 8.193 11.627 23.004 3.434 33.097-4.655 5.72-11.439 8.694-18.276 8.694-4.822 0-9.676-1.472-13.83-4.499l-32.721-26.531c-10.083-8.193-11.627-23.015-3.434-33.097 4.655-5.72 11.439-8.694 18.286-8.694 4.833 0 9.696 1.482 13.861 4.53z"/><path d="m103.692 311.886c10.083 8.193 11.617 23.004 3.434 33.097-4.655 5.72-11.439 8.694-18.276 8.694-5.219 0-10.458-1.733-14.821-5.271l-31.73-25.77c-10.093-8.183-11.627-23.004-3.434-33.087 4.655-5.73 11.429-8.705 18.276-8.705 4.822 0 9.676 1.482 13.83 4.509z"/></g></g><g id="XMLID_32_"><g fill="#fed2a4"><path d="m124.982 237.42c-4.843 0-9.717-1.493-13.892-4.551l-32.659-26.48c-6.573-5.342-9.51-13.496-8.49-21.322-2.718 1.437-5.197 3.429-7.255 5.964-8.193 10.093-6.659 24.904 3.424 33.097l32.659 26.48c4.175 3.058 9.049 4.551 13.892 4.551 6.847 0 13.631-2.975 18.276-8.694 2.853-3.51 4.523-7.595 5.066-11.775-3.415 1.805-7.208 2.73-11.021 2.73z"/><path d="m111.942 284.768c-4.822 0-9.675-1.472-13.83-4.499l-32.721-26.532c-6.571-5.34-9.513-13.495-8.498-21.319-2.716 1.436-5.196 3.428-7.257 5.96-8.193 10.083-6.649 24.904 3.434 33.097l32.721 26.532c4.154 3.027 9.008 4.499 13.83 4.499 6.836 0 13.621-2.975 18.276-8.694 2.852-3.514 4.523-7.6 5.066-11.779-3.418 1.809-7.211 2.735-11.021 2.735z"/><path d="m101.171 335.939c-5.219 0-10.458-1.733-14.821-5.271l-31.73-25.77c-6.581-5.335-9.52-13.492-8.5-21.318-2.715 1.438-5.194 3.432-7.256 5.97-8.193 10.083-6.659 24.904 3.434 33.087l31.73 25.77c4.363 3.538 9.602 5.271 14.821 5.271 6.837 0 13.621-2.975 18.276-8.694 2.848-3.513 4.516-7.597 5.059-11.775-3.416 1.805-7.206 2.73-11.013 2.73z"/></g></g><circle cx="187.657" cy="309.799" fill="#ade194" r="27.384"/></g></g><g><path d="m205.339 410.219h-98.288c-13.917 0-25.239-11.322-25.239-25.239v-27.638c2.208.514 4.475.799 6.777.799 1.047 0 2.101-.054 3.156-.164 1.732-.179 3.424-.512 5.067-.972v27.975c0 5.646 4.593 10.239 10.239 10.239h96.319c4.142 0 7.5-3.357 7.5-7.5s-3.358-7.5-7.5-7.5h-91.558v-33.005c.05-.061.103-.118.153-.179 5.059-6.229 7.389-14.055 6.561-22.036-.735-7.091-3.889-13.546-8.951-18.446 4.931-1.851 9.306-4.979 12.714-9.176 9.875-12.16 8.646-29.771-2.394-40.48 4.932-1.851 9.308-4.979 12.717-9.177 5.058-6.229 7.388-14.055 6.56-22.036-.828-7.98-4.714-15.162-10.943-20.22l-16.417-13.332v-75.046c0-4.143-3.358-7.5-7.5-7.5s-7.5 3.357-7.5 7.5v62.906c-4.431-3.302-9.59-5.285-15-5.803v-133.95c0-13.917 11.323-25.239 25.24-25.239h166.912c13.917 0 25.239 11.322 25.239 25.239v138.396c0 4.143 3.358 7.5 7.5 7.5s7.5-3.357 7.5-7.5v-138.396c-.001-22.188-18.052-40.239-40.24-40.239h-166.911c-22.188 0-40.24 18.051-40.24 40.239v57.534c-5.508-3.268-11.892-4.68-18.376-4.008-7.981.828-15.162 4.714-20.22 10.943s-7.388 14.055-6.56 22.036c.828 7.98 4.714 15.162 10.942 20.22l34.214 27.784v1.831c-4.33 1.895-8.177 4.802-11.243 8.577-5.058 6.229-7.388 14.055-6.56 22.036.735 7.09 3.889 13.545 8.951 18.445-4.931 1.851-9.305 4.979-12.714 9.176-9.88 12.167-8.645 29.789 2.41 40.496-4.828 1.81-9.254 4.877-12.732 9.161-5.059 6.229-7.389 14.055-6.561 22.036.828 7.98 4.714 15.162 10.942 20.221l27.507 22.337v35.915c0 22.188 18.051 40.239 40.239 40.239h98.288c4.142 0 7.5-3.357 7.5-7.5s-3.358-7.499-7.5-7.499zm-163.285-274.9c-3.119-2.532-5.064-6.127-5.479-10.123s.752-7.914 3.285-11.033c2.532-3.118 6.127-5.063 10.124-5.479 3.992-.413 7.914.752 11.032 3.285l5.796 4.707v38.748zm25.16 59.292c2.532-3.118 6.127-5.063 10.124-5.479.528-.055 1.055-.082 1.58-.082 3.438 0 6.747 1.17 9.453 3.367l30.404 24.689c3.118 2.532 5.064 6.127 5.479 10.123.414 3.996-.752 7.914-3.285 11.033-2.532 3.118-6.127 5.063-10.124 5.479-3.831.397-7.585-.674-10.638-2.996l-30.798-24.979c-3.119-2.532-5.064-6.127-5.479-10.123s.751-7.913 3.284-11.032zm-10.323 49.658c2.532-3.118 6.127-5.063 10.124-5.479 3.829-.397 7.584.674 10.637 2.995l30.799 24.98c6.438 5.228 7.422 14.719 2.194 21.156-2.532 3.118-6.127 5.064-10.124 5.479-3.826.395-7.575-.671-10.626-2.986l-30.81-24.988c-6.438-5.228-7.422-14.719-2.194-21.157zm-10.323 49.658c2.968-3.655 7.311-5.553 11.689-5.553 3.156 0 6.325 1 9.015 3.023l30.855 25.025c3.119 2.532 5.064 6.128 5.479 10.124.415 3.995-.752 7.913-3.285 11.032-2.532 3.118-6.128 5.064-10.124 5.479-3.994.413-7.913-.753-11.032-3.285l-30.404-24.689c-6.437-5.228-7.421-14.719-2.193-21.156z"/><path d="m276.702 156.58c4.142 0 7.5-3.357 7.5-7.5v-108.841c0-5.646-4.593-10.239-10.239-10.239h-20.015c-6.51 0-12.458 3.24-15.91 8.669-3.554 5.589-9.624 8.925-16.236 8.925h-61.958c-6.613 0-12.683-3.337-16.237-8.925-3.452-5.429-9.399-8.669-15.91-8.669h-20.646c-5.646 0-10.239 4.594-10.239 10.239v44.884c0 4.143 3.358 7.5 7.5 7.5s7.5-3.357 7.5-7.5v-40.123h15.885c1.332 0 2.579.658 3.252 1.718 6.322 9.941 17.124 15.876 28.894 15.876h61.958c11.771 0 22.572-5.935 28.894-15.875.674-1.061 1.92-1.719 3.253-1.719h15.254v104.08c0 4.143 3.358 7.5 7.5 7.5z"/><path d="m485.458 496.378-91.291-107.391c-1.628-1.916-2.525-4.355-2.525-6.87v-38.613c0-27.049-10.217-52.785-28.769-72.469l-93.747-99.462c-3.654-3.877-8.808-6.064-14.131-5.939-5.327.103-10.391 2.464-13.892 6.479l-1.857 2.13c-15.58 17.864-16.31 44.398-1.736 63.094l34.75 44.575c2.238 2.871 2.52 6.77.717 9.933l-8.457 14.837c-2.051 3.599-.797 8.179 2.802 10.229 3.597 2.051 8.178.798 10.229-2.802l8.458-14.837c4.824-8.464 4.071-18.898-1.918-26.583l-34.75-44.575c-10.167-13.041-9.657-31.551 1.211-44.012l1.857-2.13c.993-1.139 2.228-1.329 2.876-1.342.644-.028 1.889.131 2.925 1.23l93.747 99.463c15.918 16.889 24.685 38.971 24.685 62.18v38.613c0 6.07 2.165 11.96 6.097 16.585l91.291 107.391c1.483 1.745 3.594 2.643 5.718 2.643 1.717 0 3.443-.586 4.854-1.786 3.155-2.682 3.538-7.416.856-10.571z"/><path d="m301.814 475.533c-1.165-1.52-2.866-2.536-4.756-2.842-26.075-4.215-47.164-24.431-52.478-50.304l-2.764-13.461c-3.128-15.23-.61-31.057 7.09-44.565l12.815-22.483c2.051-3.599.797-8.179-2.802-10.229-3.597-2.05-8.179-.797-10.229 2.802l-12.815 22.483c-9.505 16.674-12.613 36.211-8.752 55.011l2.764 13.461c6.354 30.941 30.984 55.327 61.782 61.55l14.443 18.843c1.477 1.927 3.705 2.938 5.958 2.938 1.592 0 3.196-.505 4.557-1.548 3.288-2.52 3.91-7.228 1.39-10.515z"/><path d="m152.927 149.865c-2.836-3.019-7.582-3.167-10.602-.332-3.019 2.837-3.167 7.583-.331 10.602 11.968 12.74 28.185 19.756 45.664 19.756s33.695-7.016 45.662-19.756c2.836-3.019 2.688-7.766-.331-10.602-3.02-2.835-7.766-2.688-10.602.332-9.102 9.689-21.436 15.025-34.73 15.025s-25.628-5.335-34.73-15.025z"/><path d="m173.175 114.018v-12.914c0-4.143-3.358-7.5-7.5-7.5s-7.5 3.357-7.5 7.5v12.914c0 4.143 3.358 7.5 7.5 7.5s7.5-3.358 7.5-7.5z"/><path d="m214.745 114.018v-12.914c0-4.143-3.358-7.5-7.5-7.5s-7.5 3.357-7.5 7.5v12.914c0 4.143 3.358 7.5 7.5 7.5s7.5-3.358 7.5-7.5z"/><path d="m187.657 274.915c-19.235 0-34.884 15.648-34.884 34.884s15.649 34.884 34.884 34.884 34.884-15.648 34.884-34.884-15.649-34.884-34.884-34.884zm0 54.768c-10.964 0-19.884-8.92-19.884-19.884s8.92-19.884 19.884-19.884 19.884 8.92 19.884 19.884-8.92 19.884-19.884 19.884z"/></g></g></svg>