<svg id="Capa_1" enable-background="new 0 0 510.854 510.854" height="512" viewBox="0 0 510.854 510.854" width="512" xmlns="http://www.w3.org/2000/svg"><g><g><path d="m490.331 78.719h-469.81c-7.19 0-13.02 5.83-13.02 13.02v30.36l49.808 98.836h420.383l25.659-98.836v-30.36c0-7.19-5.83-13.02-13.02-13.02z" fill="#5f99d7"/><path d="m71.023 78.719h368.807v142.216h-368.807z" fill="#3c87d0"/><path d="m84.537 91.739c0-7.19 5.83-13.02 13.02-13.02h-77.036c-7.19 0-13.02 5.83-13.02 13.02v30.36l49.808 98.836h27.229v-129.196z" fill="#3c87d0"/><g><g id="XMLID_354_"><g><path d="m503.351 122.099v343.42c0 7.19-5.83 13.02-13.02 13.02h-469.81c-7.19 0-13.02-5.83-13.02-13.02v-343.42h1 493.85z" fill="#dff6fd"/></g></g></g><path d="m8.501 122.099h-1v343.42c0 7.191 5.829 13.02 13.02 13.02h77.035c-7.189-.001-13.019-5.831-13.019-13.02v-169.899c0-12.653 11.159-22.314 23.704-20.666 1.832.241 3.7.365 5.597.365h283.177c23.646 0 42.815-19.169 42.815-42.815v-110.405z" fill="#c8effe"/><path d="m397.016 255.319h-283.177c-12.6 0-22.815-10.215-22.815-22.815v-177.376c0-12.6 10.215-22.815 22.815-22.815h283.177c12.6 0 22.815 10.215 22.815 22.815v177.376c0 12.6-10.215 22.815-22.815 22.815z" fill="#f37c7c"/><path d="m153.943 232.504v-177.376c0-12.6 10.215-22.815 22.815-22.815h-62.919c-12.6 0-22.815 10.215-22.815 22.815v177.376c0 12.6 10.215 22.815 22.815 22.815h62.919c-12.6 0-22.815-10.215-22.815-22.815z" fill="#ee6161"/><path d="m223.1 169.485v-51.339c0-11.781 13.167-18.775 22.928-12.178l37.985 25.669c8.624 5.828 8.624 18.528 0 24.356l-37.985 25.669c-9.762 6.598-22.928-.395-22.928-12.177z" fill="#f3f0f3"/><circle cx="161.841" cy="399.84" fill="#f37c7c" r="38.569"/></g><g><path d="m503.354 424.493c-4.142 0-7.5 3.357-7.5 7.5v33.526c0 3.045-2.477 5.521-5.521 5.521h-469.811c-3.045 0-5.522-2.477-5.522-5.521v-335.923h46.023c4.142 0 7.5-3.357 7.5-7.5s-3.358-7.5-7.5-7.5h-46.023v-22.852c0-3.045 2.477-5.521 5.522-5.521h40.501c4.142 0 7.5-3.357 7.5-7.5s-3.358-7.5-7.5-7.5h-40.501c-11.316 0-20.522 9.206-20.522 20.521v373.776c0 11.315 9.206 20.521 20.522 20.521h469.811c11.315 0 20.521-9.206 20.521-20.521v-33.526c0-4.143-3.358-7.501-7.5-7.501z"/><path d="m490.333 71.223h-40.502c-4.142 0-7.5 3.357-7.5 7.5s3.358 7.5 7.5 7.5h40.502c3.044 0 5.521 2.477 5.521 5.521v22.852h-46.023c-4.142 0-7.5 3.357-7.5 7.5s3.358 7.5 7.5 7.5h46.023v270.436c0 4.143 3.358 7.5 7.5 7.5s7.5-3.357 7.5-7.5v-308.288c0-11.315-9.206-20.521-20.521-20.521z"/><path d="m113.838 262.819h283.178c16.715 0 30.314-13.599 30.314-30.314v-177.377c0-16.716-13.599-30.315-30.314-30.315h-283.178c-16.715 0-30.314 13.6-30.314 30.315v121.08c0 4.143 3.358 7.5 7.5 7.5s7.5-3.357 7.5-7.5v-121.08c0-8.445 6.87-15.315 15.314-15.315h283.178c8.444 0 15.314 6.87 15.314 15.315v177.376c0 8.444-6.87 15.314-15.314 15.314h-283.178c-8.444 0-15.314-6.87-15.314-15.314v-24.333c0-4.143-3.358-7.5-7.5-7.5s-7.5 3.357-7.5 7.5v24.333c0 16.716 13.599 30.315 30.314 30.315z"/><path d="m234.421 111.79c1.149-.61 4.17-1.794 7.407.393l6.022 4.069c3.434 2.32 8.094 1.417 10.414-2.015 2.319-3.432 1.417-8.095-2.015-10.413l-6.021-4.069c-6.819-4.609-15.572-5.073-22.842-1.213-7.27 3.861-11.785 11.373-11.785 19.604v51.339c0 8.231 4.516 15.743 11.785 19.604 3.275 1.739 6.852 2.601 10.417 2.601 4.347 0 8.678-1.281 12.425-3.813l37.984-25.669c6.117-4.134 9.769-11.009 9.769-18.393 0-7.383-3.652-14.258-9.769-18.392l-5.257-3.553c-3.434-2.32-8.094-1.417-10.414 2.015s-1.417 8.094 2.014 10.413l5.257 3.553c2.013 1.36 3.167 3.534 3.167 5.964 0 2.431-1.154 4.604-3.167 5.965l-37.985 25.669c-3.235 2.188-6.258 1.003-7.407.393-1.149-.609-3.821-2.451-3.821-6.356v-51.339c.001-3.906 2.673-5.747 3.822-6.357z"/><path d="m54.152 312.324c0 4.143 3.358 7.5 7.5 7.5h12.429c4.142 0 7.5-3.357 7.5-7.5s-3.358-7.5-7.5-7.5h-12.429c-4.142 0-7.5 3.358-7.5 7.5z"/><path d="m436.773 319.824h12.429c4.142 0 7.5-3.357 7.5-7.5s-3.358-7.5-7.5-7.5h-12.429c-4.142 0-7.5 3.357-7.5 7.5s3.358 7.5 7.5 7.5z"/><path d="m411.316 312.324c0-4.143-3.358-7.5-7.5-7.5h-297.255c-4.142 0-7.5 3.357-7.5 7.5s3.358 7.5 7.5 7.5h297.256c4.141 0 7.499-3.357 7.499-7.5z"/><path d="m115.772 399.84c0 25.402 20.666 46.068 46.068 46.068s46.069-20.666 46.069-46.068-20.667-46.068-46.069-46.068-46.068 20.666-46.068 46.068zm77.138 0c0 17.131-13.938 31.068-31.069 31.068s-31.068-13.938-31.068-31.068 13.937-31.068 31.068-31.068 31.069 13.937 31.069 31.068z"/><path d="m154.341 398.9v3.94c0 4.143 3.358 7.5 7.5 7.5s7.5-3.357 7.5-7.5v-3.94c0-4.143-3.358-7.5-7.5-7.5s-7.5 3.357-7.5 7.5z"/><path d="m61.652 387.712c-4.142 0-7.5 3.357-7.5 7.5s3.358 7.5 7.5 7.5h34.686c4.142 0 7.5-3.357 7.5-7.5s-3.358-7.5-7.5-7.5z"/><path d="m231.494 402.712h217.708c4.142 0 7.5-3.357 7.5-7.5s-3.358-7.5-7.5-7.5h-217.708c-4.142 0-7.5 3.357-7.5 7.5s3.358 7.5 7.5 7.5z"/></g></g></svg>