<svg id="Capa_1" enable-background="new 0 0 513.266 513.266" height="512" viewBox="0 0 513.266 513.266" width="512" xmlns="http://www.w3.org/2000/svg"><g><g><g><path d="m322.569 453.988c0 28.596-23.182 51.778-51.778 51.778h-191.307c-28.596 0-51.778-23.182-51.778-51.778v-394.71c0-28.596 23.182-51.778 51.778-51.778h191.307c28.596 0 51.778 23.182 51.778 51.778z" fill="#5f99d7"/><path d="m107.153 468.821v-432.061c0-10.707 2.715-20.718 7.428-29.26h-35.097c-28.596 0-51.778 23.182-51.778 51.778v394.71c0 28.596 23.182 51.778 51.778 51.778h40.199c-7.802-9.923-12.53-22.826-12.53-36.945z" fill="#3c87d0"/><path d="m316.112 333.729c1.937 1.937 4.112 3.549 6.457 4.814v-219.857h-63.556c-26.175 0-47.469 21.294-47.469 47.469v99.608c0 26.175 21.294 47.469 47.469 47.469h36.603z" fill="#3c87d0"/><path d="m292.569 453.988c0 12.027-9.75 21.777-21.777 21.777h-191.308c-12.028 0-21.778-9.75-21.778-21.778v-394.709c0-12.028 9.75-21.778 21.778-21.778h12.381c2.68 0 5.079 1.662 6.021 4.171l2.947 7.85c3.249 8.655 11.525 14.388 20.77 14.388h107.068c9.245 0 17.521-5.733 20.771-14.388l2.947-7.85c.942-2.509 3.341-4.171 6.021-4.171h12.382c12.027 0 21.777 9.75 21.777 21.777z" fill="#dff6fd"/><path d="m292.569 118.686h-33.557c-26.175 0-47.469 21.294-47.469 47.469v99.608c0 26.175 21.294 47.469 47.469 47.469h33.557z" fill="#c8effe"/><path d="m107.539 475.766c-.255-2.277-.386-4.592-.386-6.945v-410.263c-2.77-2.38-4.979-5.463-6.32-9.037l-2.947-7.85c-.942-2.509-3.341-4.171-6.021-4.171h-12.381c-12.028 0-21.778 9.75-21.778 21.778v394.71c0 12.028 9.75 21.778 21.778 21.778z" fill="#c8effe"/><path d="m99.816 117.209c-3.163 0-5.727 2.564-5.727 5.727v145.083c0 3.163 2.564 5.727 5.727 5.727h155.82c3.023 0 5.475-2.451 5.475-5.474v-145.589c0-3.023-2.451-5.474-5.475-5.474z" fill="#99e6fc"/><path d="m211.543 166.154v99.608c0 2.721.243 5.385.685 7.982h43.409c3.023 0 5.474-2.451 5.474-5.475v-145.586c0-1.579-.673-2.998-1.743-3.998h-.356c-26.174.001-47.469 21.294-47.469 47.469z" fill="#62dbfb"/><path d="m228.288 416.125h-106.3c-6.253 0-11.321-5.069-11.321-11.321v-71.645c0-6.253 5.069-11.321 11.321-11.321h106.3c6.253 0 11.321 5.069 11.321 11.321v71.645c0 6.252-5.068 11.321-11.321 11.321z" fill="#99e6fc"/></g><path d="m458.091 138.685h-199.079c-15.171 0-27.469 12.298-27.469 27.469v99.609c0 15.171 12.298 27.469 27.469 27.469h44.887l26.353 26.353c3.003 3.003 7.873 3.003 10.876 0l26.353-26.353h90.609c15.171 0 27.469-12.298 27.469-27.469v-99.609c0-15.171-12.298-27.469-27.468-27.469z" fill="#f37c7c"/><g><path d="m303.926 293.259c-11.29-3.412-19.512-15.578-19.512-27.981v-99.609c0-13.417 9.621-24.579 22.338-26.983h-47.74c-15.171 0-27.469 12.298-27.469 27.469v99.609c0 15.171 12.298 27.469 27.469 27.469h44.887z" fill="#ee6161"/></g><path d="m364.834 259.434 34.069-34.069c9.836-9.836 9.836-25.782 0-35.618-9.836-9.836-25.782-9.836-35.618 0l-4.283 4.283-5.192-4.988c-9.889-9.501-25.561-9.344-35.258.353l-.353.353c-9.836 9.836-9.836 25.782 0 35.618l34.069 34.069c3.47 3.469 9.096 3.469 12.566-.001z" fill="#f3f0f3"/></g><g><path d="m322.569 341.992c-4.143 0-7.5 3.357-7.5 7.5v104.496c0 24.415-19.863 44.277-44.278 44.277h-191.307c-24.415 0-44.278-19.862-44.278-44.277v-394.711c0-24.415 19.863-44.277 44.278-44.277h191.307c24.415 0 44.278 19.862 44.278 44.277v49.408c0 4.143 3.357 7.5 7.5 7.5s7.5-3.357 7.5-7.5v-49.408c0-32.685-26.592-59.277-59.278-59.277h-191.307c-32.686 0-59.278 26.592-59.278 59.277v394.711c0 32.686 26.592 59.277 59.278 59.277h191.307c32.687 0 59.278-26.592 59.278-59.277v-104.496c0-4.142-3.357-7.5-7.5-7.5z"/><path d="m292.569 116.186c4.143 0 7.5-3.357 7.5-7.5v-49.409c0-16.144-13.134-29.277-29.277-29.277h-12.382c-5.772 0-11.014 3.631-13.042 9.035l-2.947 7.85c-2.139 5.696-7.664 9.524-13.749 9.524h-107.069c-6.085 0-11.61-3.827-13.749-9.524l-2.947-7.85c-2.028-5.404-7.269-9.035-13.042-9.035h-12.381c-16.144 0-29.278 13.134-29.278 29.277v19.559c0 4.143 3.358 7.5 7.5 7.5s7.5-3.357 7.5-7.5v-19.559c0-7.873 6.405-14.277 14.278-14.277h11.641l2.687 7.156c4.323 11.516 15.491 19.253 27.792 19.253h107.068c12.3 0 23.469-7.737 27.792-19.253l2.686-7.156h11.642c7.872 0 14.277 6.404 14.277 14.277v49.408c0 4.143 3.358 7.501 7.5 7.501z"/><path d="m57.706 103.298c-4.142 0-7.5 3.357-7.5 7.5v343.19c0 16.144 13.134 29.277 29.278 29.277h191.308c16.144 0 29.277-13.134 29.277-29.277v-129.66c0-4.143-3.357-7.5-7.5-7.5s-7.5 3.357-7.5 7.5v129.66c0 7.872-6.404 14.277-14.277 14.277h-191.308c-7.873 0-14.278-6.405-14.278-14.277v-343.19c0-4.143-3.358-7.5-7.5-7.5z"/><path d="m458.091 131.186h-199.079c-19.282 0-34.969 15.687-34.969 34.969v99.608c0 19.282 15.687 34.969 34.969 34.969h41.78l24.156 24.157c2.962 2.961 6.852 4.441 10.741 4.441s7.78-1.48 10.741-4.441l24.156-24.157h87.503c19.282 0 34.969-15.687 34.969-34.969v-99.608c.001-19.283-15.685-34.969-34.967-34.969zm19.968 134.577c0 11.011-8.958 19.969-19.969 19.969h-90.609c-1.989 0-3.896.79-5.304 2.196l-26.354 26.354c-.075.076-.195.072-.269.001l-26.353-26.354c-1.407-1.406-3.314-2.196-5.304-2.196h-44.887c-11.011 0-19.969-8.958-19.969-19.969v-99.608c0-11.011 8.958-19.969 19.969-19.969h199.078c11.011 0 19.969 8.958 19.969 19.969v99.607z"/><path d="m358.916 183.546c-12.746-12.151-33.205-11.916-45.675.553l-.344.345c-6.174 6.174-9.574 14.382-9.574 23.112s3.4 16.938 9.573 23.111l34.068 34.07c3.194 3.194 7.39 4.791 11.586 4.791 4.195-.001 8.393-1.598 11.588-4.792l10.938-10.939c2.929-2.929 2.929-7.678-.001-10.606-2.928-2.928-7.677-2.929-10.606.001l-10.938 10.938c-.542.541-1.422.539-1.96.001l-34.069-34.07c-3.34-3.34-5.18-7.781-5.18-12.505s1.84-9.165 5.188-12.513l.345-.345c6.758-6.76 17.868-6.869 24.759-.249l5.192 4.988c2.945 2.831 7.612 2.781 10.5-.104l4.283-4.283c6.895-6.896 18.114-6.896 25.011.001 3.34 3.34 5.18 7.781 5.18 12.505s-1.84 9.165-5.186 12.511l-.496.497c-2.926 2.932-2.921 7.681.011 10.606 2.931 2.925 7.68 2.92 10.606-.011l.49-.491c6.174-6.174 9.574-14.382 9.574-23.112s-3.4-16.939-9.574-23.113c-12.438-12.438-32.489-12.735-45.289-.897z"/><path d="m208.306 109.709h-108.489c-7.293 0-13.227 5.934-13.227 13.227v145.083c0 7.293 5.934 13.227 13.227 13.227h95.364c4.142 0 7.5-3.357 7.5-7.5s-3.358-7.5-7.5-7.5h-93.591v-141.537h106.716c4.142 0 7.5-3.357 7.5-7.5s-3.358-7.5-7.5-7.5z"/><path d="m228.288 314.338h-106.3c-10.378 0-18.821 8.442-18.821 18.82v71.646c0 10.378 8.443 18.821 18.821 18.821h56.986c4.142 0 7.5-3.357 7.5-7.5s-3.358-7.5-7.5-7.5h-56.986c-2.107 0-3.821-1.714-3.821-3.821v-71.646c0-2.106 1.714-3.82 3.821-3.82h106.3c2.107 0 3.821 1.714 3.821 3.82v71.646c0 2.107-1.714 3.821-3.821 3.821h-17.352c-4.142 0-7.5 3.357-7.5 7.5s3.358 7.5 7.5 7.5h17.352c10.378 0 18.821-8.443 18.821-18.821v-71.646c0-10.378-8.443-18.82-18.821-18.82z"/><path d="m216.943 42.158c4.142 0 7.5-3.357 7.5-7.5s-3.358-7.5-7.5-7.5h-79.316c-4.142 0-7.5 3.357-7.5 7.5s3.358 7.5 7.5 7.5z"/></g></g></svg>