<svg id="Capa_1" enable-background="new 0 0 513.266 513.266" height="512" viewBox="0 0 513.266 513.266" width="512" xmlns="http://www.w3.org/2000/svg"><g><g><path d="m339.868 453.988c0 28.596-23.182 51.778-51.778 51.778h-191.307c-28.596 0-51.778-23.182-51.778-51.778v-394.71c0-28.596 23.182-51.778 51.778-51.778h191.307c28.596 0 51.778 23.182 51.778 51.778z" fill="#5f99d7"/><path d="m124.453 468.821v-432.061c0-10.707 2.715-20.718 7.428-29.26h-35.098c-28.596 0-51.778 23.182-51.778 51.778v394.71c0 28.596 23.182 51.778 51.778 51.778h40.199c-7.802-9.923-12.529-22.826-12.529-36.945z" fill="#3c87d0"/><path d="m309.868 453.988c0 12.027-9.75 21.777-21.777 21.777h-191.308c-12.028 0-21.778-9.75-21.778-21.778v-394.709c0-12.028 9.75-21.778 21.778-21.778h12.381c2.68 0 5.079 1.662 6.021 4.171l2.947 7.85c3.249 8.655 11.525 14.388 20.77 14.388h107.068c9.245 0 17.521-5.733 20.771-14.388l2.947-7.85c.942-2.509 3.341-4.171 6.021-4.171h12.382c12.027 0 21.777 9.75 21.777 21.777z" fill="#dff6fd"/><path d="m124.838 475.766c-.255-2.277-.386-4.592-.386-6.945v-410.263c-2.77-2.38-4.979-5.463-6.32-9.037l-2.947-7.85c-.942-2.509-3.341-4.171-6.021-4.171h-12.381c-12.028 0-21.778 9.75-21.778 21.778v394.71c0 12.028 9.75 21.778 21.778 21.778z" fill="#c8effe"/><g><path d="m458.161 248.549c6.741-4.091 11.247-11.496 11.247-19.958 0-12.888-10.448-23.336-23.336-23.336h-46.928c-3.967 0-6.604-4.104-4.956-7.712l5.214-11.416c3.314-7.255 5.029-15.138 5.029-23.115v-26.005c0-3.749-.733-7.461-2.159-10.928-3.691-8.977-12.437-14.837-22.143-14.837h-.049c-6.604 0-12.571 3.943-15.161 10.019l-8.669 20.338c-.895 2.099-2.443 3.853-4.415 5.001l-34.793 20.258-6.202 2.635c-8.526 3.623-15.43 10.245-19.405 18.614l-23.602 59.347v88.48l27.912 22.042c4.792 2.828 10.254 4.32 15.818 4.32h90.429 29.938c11.046 0 20.399-8.688 20.621-19.732.157-7.778-4.098-14.571-10.43-18.061-.452-.249-.743-.713-.743-1.228v-.039c0-.645.443-1.209 1.073-1.348 9.039-1.986 15.805-10.038 15.805-19.674 0-5.231-1.994-9.996-5.263-13.577-.594-.65-.394-1.669.397-2.055 7.206-3.522 12.171-10.919 12.171-19.48 0-6.58-2.935-12.471-7.564-16.446-.677-.584-.6-1.643.164-2.107z" fill="#ffe5c2"/><g><path d="m437.599 335.745h-29.939-90.429c-5.564 0-11.026-1.492-15.818-4.32l-27.912-22.042v-76.181l-5.668 14.251v88.48l27.912 22.042c4.792 2.828 10.254 4.32 15.818 4.32h90.429 29.938c11.046 0 20.399-8.688 20.621-19.732.079-3.924-.967-7.595-2.833-10.719-3.43 2.447-7.628 3.901-12.119 3.901z" fill="#fed2a4"/></g><g id="XMLID_356_"><g><path d="m237.069 204.422h-162.063v146.11h162.063l24.772-16.043v-104.228z" fill="#ade194"/></g></g><g fill="#fee97d"><path d="m431.582 102.806 12.781-24.711c1.887-3.648 6.686-4.58 9.807-1.91 10.244 8.766 15.245 19.94 15.006 33.521-.067 3.8-3.53 6.642-7.291 6.088l-25.576-3.767c-4.324-.636-6.734-5.339-4.727-9.221z"/><path d="m401.481 82.884-16.96-18.172c-2.504-2.683-1.848-7.002 1.336-8.826 10.452-5.99 21.356-6.846 32.714-2.569 3.178 1.197 4.53 4.964 2.936 7.963l-10.845 20.394c-1.834 3.447-6.516 4.064-9.181 1.21z"/></g></g><path d="m124.453 278.747v-74.325h-49.447v146.11h162.063l24.772-16.043v-24.666h-106.312c-17.163 0-31.076-13.913-31.076-31.076z" fill="#97da7b"/><path d="m283.286 223.892v107.17c0 10.76-8.72 19.47-19.47 19.47h-26.9v-146.11h26.9c10.75 0 19.47 8.72 19.47 19.47z" fill="#c1e9af"/><path d="m263.816 309.823h-26.9v40.709h26.9c10.75 0 19.47-8.71 19.47-19.47v-40.707c0 10.759-8.72 19.468-19.47 19.468z" fill="#ade194"/></g><g><path d="m338.721 384.795c-4.143 0-7.5 3.357-7.5 7.5v61.693c0 24.415-19.863 44.277-44.278 44.277h-191.307c-24.415 0-44.278-19.862-44.278-44.277v-394.711c-.001-24.415 19.863-44.277 44.278-44.277h191.307c24.415 0 44.278 19.862 44.278 44.277v47.242c0 4.143 3.357 7.5 7.5 7.5s7.5-3.357 7.5-7.5v-47.242c0-32.685-26.592-59.277-59.279-59.277h-191.306c-32.687 0-59.279 26.592-59.279 59.277v394.711c0 32.686 26.592 59.277 59.278 59.277h191.307c32.687 0 59.278-26.592 59.278-59.277v-61.693c.001-4.143-3.357-7.5-7.499-7.5z"/><path d="m308.721 144.488c4.143 0 7.5-3.357 7.5-7.5v-77.711c0-16.144-13.134-29.277-29.277-29.277h-12.382c-5.773 0-11.015 3.631-13.042 9.034l-2.947 7.85c-2.139 5.697-7.664 9.525-13.749 9.525h-107.069c-6.085 0-11.61-3.828-13.749-9.524l-2.946-7.852c-2.031-5.403-7.272-9.033-13.042-9.033h-12.382c-16.145 0-29.278 13.134-29.278 29.277v35.983c0 4.143 3.357 7.5 7.5 7.5s7.5-3.357 7.5-7.5v-35.983c-.001-7.872 6.405-14.277 14.278-14.277h11.641l2.687 7.157c4.324 11.515 15.493 19.252 27.792 19.252h107.068c12.299 0 23.468-7.737 27.792-19.252l2.687-7.157h11.641c7.872 0 14.277 6.405 14.277 14.277v77.711c0 4.143 3.357 7.5 7.5 7.5z"/><path d="m234.095 42.158c4.143 0 7.5-3.357 7.5-7.5s-3.357-7.5-7.5-7.5h-79.316c-4.143 0-7.5 3.357-7.5 7.5s3.357 7.5 7.5 7.5z"/><path d="m473.063 267.1c0-6.017-1.853-11.811-5.222-16.65 5.77-5.71 9.067-13.484 9.067-21.857 0-17.003-13.833-30.836-30.836-30.836h-43.735l3.888-8.513c3.787-8.289 5.707-17.114 5.707-26.23v-26.006c0-5.483-1.272-10.984-3.68-15.91-5.151-10.543-16.209-17.355-28.171-17.355-9.626 0-18.285 5.722-22.061 14.578l-8.667 20.336c-.265.619-.711 1.125-1.291 1.463l-34.386 20.021-5.769 2.451c-10.224 4.344-18.479 12.263-23.247 22.298l-7.423 15.627c-3.956-2.28-8.537-3.591-13.422-3.591h-182.458v-69.701c0-4.143-3.357-7.5-7.5-7.5s-7.5 3.357-7.5 7.5v326.766c0 16.144 13.134 29.277 29.278 29.277h191.308c16.144 0 29.277-13.134 29.277-29.277v-61.768c0-4.143-3.357-7.5-7.5-7.5s-7.5 3.357-7.5 7.5v61.768c0 7.872-6.404 14.277-14.277 14.277h-191.307c-7.873 0-14.278-6.405-14.278-14.277v-95.952h85.42c4.143 0 7.5-3.357 7.5-7.5s-3.357-7.5-7.5-7.5h-85.42v-131.115h148.062v131.112h-30.68c-4.143 0-7.5 3.357-7.5 7.5s3.357 7.5 7.5 7.5h65.076c5.714 0 11.015-1.791 15.381-4.834 2.118 3.638 5.142 6.75 8.865 8.947l3.87 2.283c5.941 3.508 12.729 5.362 19.631 5.362h64.785c4.143 0 7.5-3.357 7.5-7.5s-3.357-7.5-7.5-7.5h-64.785c-4.221 0-8.372-1.134-12.006-3.279l-3.87-2.284c-3.021-1.783-4.898-5.07-4.898-8.579v-9.589-107.167-16.95l7.421-15.622c3.191-6.719 8.72-12.021 15.563-14.929l41.836-23.314c3.345-1.947 6.022-4.98 7.542-8.543l8.668-20.337c1.414-3.316 4.656-5.46 8.262-5.46 6.272 0 12.04 3.51 14.694 8.941 1.41 2.887 2.156 6.111 2.156 9.324v26.006c0 6.95-1.464 13.678-4.352 19.998l-5.214 11.416c-1.84 4.027-1.509 8.655.885 12.381 2.394 3.725 6.466 5.948 10.894 5.948h46.928c8.732 0 15.836 7.104 15.836 15.836 0 5.579-2.855 10.643-7.641 13.547-2.402 1.459-3.974 4-4.203 6.797-.229 2.804.909 5.572 3.048 7.409 3.146 2.701 4.95 6.62 4.95 10.755 0 5.458-3.052 10.341-7.965 12.742-2.484 1.215-4.276 3.559-4.792 6.27-.516 2.707.288 5.541 2.15 7.58 2.129 2.333 3.302 5.359 3.302 8.521 0 5.893-4.17 11.086-9.917 12.35-4.033.888-6.961 4.535-6.961 8.711 0 3.239 1.772 6.227 4.622 7.797 4.137 2.28 6.647 6.626 6.553 11.341-.138 6.828-6.025 12.384-13.124 12.384h-23.619c-4.143 0-7.5 3.357-7.5 7.5s3.357 7.5 7.5 7.5h23.619c15.205 0 27.819-12.148 28.12-27.082.134-6.623-2.083-12.912-6.084-17.883 7.182-5.076 11.791-13.461 11.791-22.617 0-4.485-1.08-8.846-3.111-12.75 6.55-5.458 10.417-13.545 10.417-22.363zm-209.247 75.936h-19.396v-131.112h19.396c6.602 0 11.973 5.371 11.973 11.973v107.167c0 6.601-5.371 11.972-11.973 11.972z"/><path d="m424.92 99.36c-2.054 3.971-2.063 8.716-.023 12.694s5.896 6.742 10.319 7.394l25.576 3.767c.675.1 1.352.148 2.025.148 3.273 0 6.47-1.157 9-3.303 3.018-2.56 4.787-6.284 4.857-10.222.279-15.861-5.651-29.102-17.63-39.353-3.24-2.771-7.494-3.892-11.685-3.075-4.182.817-7.702 3.456-9.658 7.239zm25.44-16.533c7.467 6.828 11.181 15.147 11.319 25.356l-22.706-3.344z"/><path d="m395.998 88.001c2.508 2.687 6.021 4.189 9.649 4.189.57 0 1.144-.037 1.717-.113 4.215-.556 7.924-3.129 9.919-6.883l10.846-20.393c1.786-3.358 2.039-7.326.695-10.885-1.33-3.521-4.104-6.299-7.61-7.618-13.499-5.085-26.65-4.048-39.086 3.079-3.519 2.017-5.883 5.473-6.488 9.483-.604 4.008.634 8.006 3.398 10.968zm17.891-28.368-8.657 16.277-13.622-14.597c7.205-3.553 14.531-4.107 22.279-1.68z"/></g></g></svg>