<svg id="Capa_1" enable-background="new 0 0 513.266 513.266" height="512" viewBox="0 0 513.266 513.266" width="512" xmlns="http://www.w3.org/2000/svg"><g><g><path d="m478.783 164.843-79.603 34.501-42.968 20.307v58.255l42.968 16.871 79.603 34.501c5.552 2.406 11.752-1.664 11.752-7.715v-149.005c0-6.051-6.2-10.121-11.752-7.715z" fill="#cbc4cc"/><path d="m317.594 453.437c0 28.596-23.182 51.778-51.778 51.778h-191.307c-28.596 0-51.778-23.182-51.778-51.778v-394.71c0-28.596 23.182-51.778 51.778-51.778h191.307c28.596 0 51.778 23.182 51.778 51.778z" fill="#5f99d7"/><path d="m102.178 468.27v-432.061c0-10.707 2.715-20.718 7.428-29.26h-35.097c-28.596 0-51.778 23.182-51.778 51.778v394.71c0 28.596 23.182 51.778 51.778 51.778h40.199c-7.802-9.923-12.53-22.825-12.53-36.945z" fill="#3c87d0"/><path d="m317.594 153.382h-88.801c-23.81 0-43.181 19.371-43.181 43.181v100.996c0 23.81 19.371 43.181 43.181 43.181h88.801z" fill="#3c87d0"/><path d="m287.594 453.437c0 12.027-9.75 21.777-21.777 21.777h-191.308c-12.028 0-21.778-9.75-21.778-21.778v-394.709c0-12.028 9.75-21.778 21.778-21.778h12.381c2.68 0 5.079 1.662 6.021 4.171l2.947 7.85c3.249 8.655 11.525 14.388 20.77 14.388h107.068c9.245 0 17.521-5.733 20.771-14.388l2.947-7.85c.942-2.509 3.341-4.171 6.021-4.171h12.382c12.027 0 21.777 9.75 21.777 21.777z" fill="#dff6fd"/><path d="m287.594 153.382h-58.801c-23.81 0-43.181 19.371-43.181 43.181v100.996c0 23.81 19.371 43.181 43.181 43.181h58.801z" fill="#c8effe"/><path d="m102.564 475.215c-.255-2.277-.386-4.592-.386-6.945v-410.263c-2.77-2.38-4.979-5.463-6.32-9.037l-2.947-7.85c-.942-2.509-3.341-4.171-6.021-4.171h-12.381c-12.028 0-21.778 9.75-21.778 21.778v394.71c0 12.028 9.75 21.778 21.778 21.778z" fill="#c8effe"/><g><path d="m251.094 363.699c0 5.605-4.544 10.149-10.149 10.149h-141.565c-5.605 0-10.149-4.544-10.149-10.149v-253.862c0-5.605 4.544-10.149 10.149-10.149h141.564c5.605 0 10.149 4.544 10.149 10.149v253.862z" fill="#99e6fc"/><path d="m251.094 153.382h-22.301c-23.81 0-43.181 19.371-43.181 43.181v100.996c0 23.81 19.371 43.181 43.181 43.181h22.301z" fill="#62dbfb"/><path d="m356.212 219.651v58.255l42.968 16.871 19.61 8.499c.249-1.873.39-3.778.39-5.718v-100.995c0-1.939-.141-3.845-.39-5.718l-19.61 8.499z" fill="#b5adb6"/><path d="m375.999 320.739h-147.206c-12.803 0-23.181-10.379-23.181-23.181v-100.995c0-12.803 10.379-23.181 23.181-23.181h147.205c12.803 0 23.181 10.379 23.181 23.181v100.996c.001 12.802-10.378 23.18-23.18 23.18z" fill="#cbc4cc"/><path d="m290.4 297.749c-21.708 0-39.306-17.598-39.306-39.306v-84.87c0-.064.004-.126.005-.19h-22.305c-12.803 0-23.181 10.379-23.181 23.181v100.995c0 12.803 10.379 23.181 23.181 23.181h147.205c12.739 0 23.074-10.276 23.177-22.991z" fill="#b5adb6"/><path d="m279.534 264.479v-34.837c0-7.994 8.935-12.74 15.558-8.264l25.776 17.419c5.852 3.955 5.852 12.573 0 16.528l-25.776 17.419c-6.623 4.475-15.558-.27-15.558-8.265z" fill="#f3f0f3"/></g></g><g><path d="m317.594 343.239c-4.143 0-7.5 3.357-7.5 7.5v103.249c0 24.415-19.863 44.277-44.278 44.277h-191.307c-24.415 0-44.278-19.862-44.278-44.277v-394.711c-.001-24.415 19.863-44.277 44.278-44.277h191.307c24.415 0 44.278 19.862 44.278 44.277v84.104c0 4.143 3.357 7.5 7.5 7.5s7.5-3.357 7.5-7.5v-84.104c0-32.685-26.592-59.277-59.279-59.277h-191.306c-32.687 0-59.279 26.592-59.279 59.277v394.711c0 32.686 26.592 59.277 59.278 59.277h191.307c32.687 0 59.278-26.592 59.278-59.277v-103.249c.001-4.142-3.357-7.5-7.499-7.5z"/><path d="m287.594 150.882c4.143 0 7.5-3.357 7.5-7.5v-84.105c0-16.143-13.134-29.277-29.278-29.277h-12.382c-5.773 0-11.015 3.631-13.042 9.034l-2.947 7.85c-2.139 5.697-7.664 9.525-13.749 9.525h-107.068c-6.085 0-11.61-3.828-13.749-9.524l-2.946-7.852c-2.031-5.403-7.272-9.033-13.042-9.033h-12.382c-16.145 0-29.279 13.134-29.279 29.277v305.885c0 4.143 3.357 7.5 7.5 7.5s7.5-3.357 7.5-7.5v-305.885c0-7.873 6.406-14.277 14.279-14.277h11.641l2.687 7.157c4.324 11.515 15.493 19.252 27.792 19.252h107.068c12.299 0 23.468-7.737 27.792-19.252l2.687-7.157h11.641c7.872 0 14.277 6.404 14.277 14.277v84.104c0 4.143 3.357 7.501 7.5 7.501z"/><path d="m52.73 389.625c-4.143 0-7.5 3.357-7.5 7.5v56.863c0 16.144 13.134 29.277 29.278 29.277h191.308c16.144 0 29.277-13.134 29.277-29.277v-103.249c0-4.143-3.357-7.5-7.5-7.5s-7.5 3.357-7.5 7.5v103.249c0 7.873-6.405 14.277-14.277 14.277h-191.307c-7.873 0-14.278-6.404-14.278-14.277v-56.863c-.001-4.143-3.358-7.5-7.501-7.5z"/><path d="m212.968 42.158c4.143 0 7.5-3.357 7.5-7.5s-3.357-7.5-7.5-7.5h-79.316c-4.143 0-7.5 3.357-7.5 7.5s3.357 7.5 7.5 7.5z"/><path d="m490.856 159.259c-4.494-2.951-10.124-3.437-15.056-1.298l-70.231 30.439c-3.584-12.966-15.479-22.519-29.57-22.519h-147.206c-16.917 0-30.681 13.764-30.681 30.681v100.996c0 16.917 13.764 30.681 30.681 30.681h147.206c14.091 0 25.986-9.552 29.57-22.518l14.056 6.093c.972.421 1.983.62 2.979.62 2.898 0 5.659-1.69 6.886-4.52 1.646-3.801-.099-8.217-3.899-9.864l-18.91-8.196v-85.586l75.086-32.543c.11-.05.448-.197.859.074.41.269.41.638.41.759v149.005c0 .121 0 .491-.41.76-.411.271-.749.123-.859.074l-26.837-11.632c-3.801-1.646-8.216.1-9.864 3.899-1.646 3.801.099 8.217 3.899 9.864l26.837 11.632c2.035.882 4.189 1.317 6.333 1.317 3.052 0 6.083-.883 8.723-2.615 4.495-2.951 7.179-7.923 7.179-13.3v-149.004c-.002-5.377-2.685-10.348-7.181-13.299zm-99.176 138.3c0 8.646-7.034 15.681-15.681 15.681h-147.206c-8.646 0-15.681-7.034-15.681-15.681v-100.996c0-8.646 7.034-15.681 15.681-15.681h147.206c8.646 0 15.681 7.034 15.681 15.681z"/><path d="m325.067 232.583-25.775-17.419c-5.37-3.629-12.26-3.995-17.98-.954-5.723 3.039-9.277 8.952-9.277 15.432v34.838c0 6.479 3.555 12.393 9.277 15.432 2.578 1.37 5.394 2.048 8.2 2.048 3.422 0 6.831-1.009 9.78-3.002l25.775-17.419c4.815-3.254 7.69-8.666 7.69-14.478s-2.874-11.224-7.69-14.478zm-8.398 16.527-25.775 17.419c-1.071.723-2.055.396-2.546.135-.49-.261-1.313-.891-1.313-2.185v-34.838c0-1.294.823-1.924 1.313-2.185.269-.143.684-.306 1.18-.306.412 0 .88.112 1.366.44l25.775 17.419c.947.641 1.089 1.56 1.089 2.05s-.142 1.411-1.089 2.051z"/><path d="m251.094 150.882c4.143 0 7.5-3.357 7.5-7.5v-33.545c0-9.731-7.918-17.649-17.649-17.649h-141.565c-9.731 0-17.649 7.918-17.649 17.649v32.513c0 4.143 3.357 7.5 7.5 7.5s7.5-3.357 7.5-7.5v-32.513c0-1.461 1.188-2.649 2.649-2.649h141.564c1.461 0 2.649 1.188 2.649 2.649v33.545c.001 4.142 3.358 7.5 7.501 7.5z"/><path d="m251.094 343.239c-4.143 0-7.5 3.357-7.5 7.5v12.96c0 1.461-1.188 2.649-2.649 2.649h-141.565c-1.461 0-2.649-1.188-2.649-2.649v-189.386c0-4.143-3.357-7.5-7.5-7.5s-7.5 3.357-7.5 7.5v189.387c0 9.731 7.918 17.649 17.649 17.649h141.564c9.731 0 17.649-7.918 17.649-17.649v-12.96c.001-4.143-3.357-7.501-7.499-7.501z"/><path d="m99.951 430.08c4.143 0 7.5-3.357 7.5-7.5s-3.357-7.5-7.5-7.5h-10.721c-4.143 0-7.5 3.357-7.5 7.5s3.357 7.5 7.5 7.5z"/><path d="m251.094 430.08c4.143 0 7.5-3.357 7.5-7.5s-3.357-7.5-7.5-7.5h-123.948c-4.143 0-7.5 3.357-7.5 7.5s3.357 7.5 7.5 7.5z"/></g></g></svg>