<svg id="Capa_1" enable-background="new 0 0 511.125 511.125" height="512" viewBox="0 0 511.125 511.125" width="512" xmlns="http://www.w3.org/2000/svg"><g><g><path d="m455.345 117.316c13.169 0 23.845 10.676 23.845 23.845v312.314h-447.255v-312.314c0-13.169 10.676-23.845 23.845-23.845z" fill="#5f99d7"/><path d="m122.891 117.316h-67.111c-13.169 0-23.845 10.676-23.845 23.845v312.314h67.11v-312.314c.001-13.169 10.676-23.845 23.846-23.845z" fill="#3c87d0"/><path d="m87.362 117.316h336.4v253.833h-336.4z" fill="#3c87d0"/><path d="m449.19 151.207v253.377c0 2.149-1.742 3.892-3.892 3.892h-379.472c-2.149 0-3.892-1.742-3.892-3.892v-253.377c0-2.149 1.742-3.892 3.892-3.892h379.473c2.149.001 3.891 1.743 3.891 3.892z" fill="#dff6fd"/><path d="m99.046 147.316h-33.22c-2.149 0-3.892 1.742-3.892 3.892v253.376c0 2.149 1.742 3.892 3.892 3.892h33.219v-261.16z" fill="#c8effe"/><g><path d="m476.68 476.088h-442.235c-14.881 0-26.945-12.064-26.945-26.945v-6.258c0-2.436 1.974-4.41 4.41-4.41h487.305c2.436 0 4.41 1.974 4.41 4.41v6.258c0 14.882-12.064 26.945-26.945 26.945z" fill="#7bacdf"/><path d="m95.003 449.144v-6.258c0-2.436 1.974-4.41 4.41-4.41h-87.503c-2.436 0-4.41 1.974-4.41 4.41v6.258c0 14.881 12.064 26.945 26.945 26.945h87.503c-14.881-.001-26.945-12.064-26.945-26.945z" fill="#5f99d7"/><path d="m87.362 147.316h336.4v261.16h-336.4z" fill="#99e6fc"/><path d="m403.763 408.476v-305.302c0-7.01-5.68-12.69-12.69-12.69h-271.02c-7.01 0-12.69 5.68-12.69 12.69v305.302z" fill="#dff6fd"/><path d="m204.537 172.426h17.346l11.873 11.872c5.825 5.825 13.569 9.032 21.807 9.032s15.981-3.207 21.808-9.033l11.871-11.871h17.346c27.393 0 49.679-22.286 49.679-49.679v-32.263h-201.409v32.263c0 27.393 22.286 49.679 49.679 49.679z" fill="#c8effe"/><path d="m306.588 35.037h-102.051c-16.391 0-29.678 13.287-29.678 29.678v58.033c0 16.391 13.287 29.678 29.678 29.678h25.631l17.729 17.729c4.233 4.233 11.097 4.233 15.331 0l17.729-17.729h25.631c16.391 0 29.678-13.287 29.678-29.678v-58.033c0-16.391-13.287-29.678-29.678-29.678z" fill="#f37c7c"/><g><path d="m213.367 127.595v-62.866c0-13.383 7.55-24.852 18.285-29.692h-27.115c-16.391 0-29.678 13.287-29.678 29.678v58.033c0 16.391 13.287 29.678 29.678 29.678h19.655c-6.61-5.897-10.825-14.83-10.825-24.831z" fill="#ee6161"/></g><path d="m260.632 129.498 27.487-27.487c7.935-7.935 7.935-20.801 0-28.737-7.935-7.935-20.801-7.935-28.737 0l-3.456 3.456-4.189-4.025c-7.978-7.665-20.623-7.539-28.447.284l-.285.285c-7.935 7.935-7.935 20.801 0 28.737l27.487 27.487c2.801 2.8 7.34 2.8 10.14 0z" fill="#f3f0f3"/><circle cx="192.126" cy="244.836" fill="#c8effe" r="47.717"/></g><path d="m363.262 408.476v-31.578c0-3.175-2.574-5.749-5.749-5.749h-203.901c-3.175 0-5.749 2.574-5.749 5.749v31.578z" fill="#c8effe"/></g><g><path d="m499.215 430.976h-12.525v-289.815c0-17.284-14.062-31.346-31.345-31.346h-21.58c-4.142 0-7.5 3.357-7.5 7.5s3.358 7.5 7.5 7.5h21.58c9.013 0 16.345 7.333 16.345 16.346v289.814h-432.255v-289.814c0-9.013 7.333-16.346 16.345-16.346h21.58c4.142 0 7.5-3.357 7.5-7.5s-3.358-7.5-7.5-7.5h-21.58c-17.284 0-31.345 14.062-31.345 31.346v289.814h-12.525c-6.567 0-11.91 5.343-11.91 11.91v6.258c0 18.993 15.452 34.445 34.445 34.445h442.235c18.993 0 34.445-15.452 34.445-34.445v-6.258c0-6.567-5.343-11.909-11.91-11.909zm-3.09 18.168c0 10.723-8.723 19.445-19.445 19.445h-442.235c-10.722 0-19.445-8.723-19.445-19.445v-3.168h481.125z"/><path d="m69.435 400.976v-246.16h7.925c4.142 0 7.5-3.357 7.5-7.5s-3.358-7.5-7.5-7.5h-15.425c-4.142 0-7.5 3.357-7.5 7.5v261.16c0 4.143 3.358 7.5 7.5 7.5h387.255c4.142 0 7.5-3.357 7.5-7.5v-61.514c0-4.143-3.358-7.5-7.5-7.5s-7.5 3.357-7.5 7.5v54.014h-30.425v-297.802c0-11.132-9.056-20.188-20.188-20.188h-24.811c-4.142 0-7.5 3.357-7.5 7.5s3.358 7.5 7.5 7.5h24.811c2.86 0 5.188 2.327 5.188 5.188v297.802h-25.503v-24.078c0-7.306-5.943-13.249-13.249-13.249h-203.901c-7.306 0-13.249 5.943-13.249 13.249v24.078h-25.503v-297.802c0-2.86 2.327-5.188 5.188-5.188h24.811c4.142 0 7.5-3.357 7.5-7.5s-3.358-7.5-7.5-7.5h-24.811c-11.131 0-20.188 9.056-20.188 20.188v297.802zm85.928-22.328h200.399v22.327h-200.399z"/><path d="m449.19 322.499c4.142 0 7.5-3.357 7.5-7.5v-167.684c0-4.143-3.358-7.5-7.5-7.5h-15.425c-4.142 0-7.5 3.357-7.5 7.5s3.358 7.5 7.5 7.5h7.925v160.184c0 4.143 3.358 7.5 7.5 7.5z"/><path d="m204.537 159.926h22.524l15.532 15.533c3.576 3.575 8.272 5.362 12.969 5.362 4.696 0 9.393-1.787 12.969-5.363l15.532-15.532h22.524c20.5 0 37.179-16.679 37.179-37.179v-58.032c0-20.5-16.678-37.179-37.179-37.179h-50.764c-4.142 0-7.5 3.357-7.5 7.5s3.358 7.5 7.5 7.5h50.764c12.229 0 22.179 9.949 22.179 22.179v58.032c0 12.229-9.949 22.179-22.179 22.179h-25.631c-1.989 0-3.897.79-5.303 2.197l-17.729 17.729c-1.303 1.303-3.422 1.303-4.725 0l-17.729-17.729c-1.406-1.407-3.314-2.197-5.303-2.197h-25.631c-12.229 0-22.179-9.949-22.179-22.179v-58.032c0-12.229 9.949-22.179 22.179-22.179h19.325c4.142 0 7.5-3.357 7.5-7.5s-3.358-7.5-7.5-7.5h-19.325c-20.5 0-37.179 16.679-37.179 37.179v58.032c.001 20.5 16.68 37.179 37.18 37.179z"/><path d="m217.702 67.971c-10.846 10.847-10.846 28.496 0 39.344l27.487 27.487c2.771 2.771 6.454 4.296 10.373 4.296s7.602-1.525 10.373-4.296l27.488-27.488c10.846-10.847 10.846-28.496-.001-39.344-10.268-10.268-26.632-10.817-37.552-1.643-10.892-9.425-27.591-8.931-37.878 1.354zm10.603 10.61.289-.288c2.483-2.483 5.774-3.729 9.068-3.729 3.207 0 6.415 1.181 8.88 3.549l4.189 4.024c2.945 2.831 7.612 2.782 10.5-.105l3.455-3.455c4.999-4.998 13.132-4.997 18.131-.001 4.998 4.999 4.998 13.133 0 18.131l-27.253 27.254-27.253-27.253c-5-4.999-5-13.133-.006-18.127z"/><path d="m139.365 261.155c1.223 3.957 5.424 6.177 9.38 4.95 3.958-1.223 6.174-5.423 4.951-9.38-1.186-3.835-1.787-7.836-1.787-11.89 0-22.176 18.041-40.217 40.217-40.217s40.217 18.041 40.217 40.217-18.042 40.218-40.217 40.218c-7.87 0-15.497-2.28-22.058-6.596-3.46-2.274-8.111-1.314-10.387 2.146-2.276 3.461-1.316 8.111 2.145 10.388 9.015 5.929 19.492 9.063 30.3 9.063 30.447 0 55.217-24.771 55.217-55.218 0-30.446-24.771-55.217-55.217-55.217s-55.217 24.771-55.217 55.217c0 5.557.826 11.048 2.456 16.319z"/><path d="m370.762 244.836c0-4.143-3.358-7.5-7.5-7.5h-89.348c-4.142 0-7.5 3.357-7.5 7.5s3.358 7.5 7.5 7.5h89.348c4.142 0 7.5-3.357 7.5-7.5z"/><path d="m163.26 329.653c-4.142 0-7.5 3.357-7.5 7.5s3.358 7.5 7.5 7.5h11.599c4.142 0 7.5-3.357 7.5-7.5s-3.358-7.5-7.5-7.5z"/><path d="m337.266 329.653c-4.142 0-7.5 3.357-7.5 7.5s3.358 7.5 7.5 7.5h11.599c4.142 0 7.5-3.357 7.5-7.5s-3.358-7.5-7.5-7.5z"/><path d="m201.748 329.653c-4.142 0-7.5 3.357-7.5 7.5s3.358 7.5 7.5 7.5h107.218c4.142 0 7.5-3.357 7.5-7.5s-3.358-7.5-7.5-7.5z"/></g></g></svg>