<svg id="Capa_1" enable-background="new 0 0 510.218 510.218" height="512" viewBox="0 0 510.218 510.218" width="512" xmlns="http://www.w3.org/2000/svg"><g><g><g><g><g id="XMLID_231_"><g><path d="m254.784 64.859c100.71-1.84 182.37 81.65 182.37 182.37s-81.65 182.36-182.37 182.36c-100.71 0-179.5-81.68-182.36-182.36-2.48-87.21 81.31-180.52 182.36-182.37z" fill="#dff6fd"/></g></g></g><path d="m216.496 358.558c0-20.343-16.492-36.835-36.835-36.835h-3.119c-7.605 0-14.406-4.729-17.067-11.854-7.281-19.488-3.389-40.546-4.013-62.49-2.2-77.367 55.372-159.505 140.781-178.359-13.319-2.968-27.197-4.422-41.458-4.161-101.05 1.85-184.84 95.16-182.36 182.37 2.86 100.68 81.65 182.36 182.36 182.36 12.724 0 25.143-1.307 37.133-3.787-25.058-5.333-48.069-15.879-68.017-30.454-4.671-3.413-7.405-8.876-7.405-14.662z" fill="#c8effe"/><path d="m293.723 68.49v93.799c0 20.312 16.524 36.836 36.835 36.836h29.167l2.614 3.865c4.846 7.17 12.906 11.451 21.56 11.451 8.695 0 16.776-4.313 21.617-11.535l2.534-3.781h22.714c-17.72-65.455-70.628-116.861-137.041-130.635z" fill="#c8effe"/><path d="m485.883 45.184h-155.325c-9.298 0-16.835 7.537-16.835 16.835v100.271c0 9.298 7.537 16.835 16.835 16.835h39.788l8.563 12.667c2.394 3.542 7.613 3.531 9.993-.02l8.476-12.647h88.506c9.298 0 16.835-7.537 16.835-16.835v-100.272c-.001-9.297-7.538-16.834-16.836-16.834z" fill="#ade194"/><path d="m370.345 179.125c-6.692-2.226-11.6-9.396-11.6-16.835v-100.272c0-9.298 7.537-16.835 16.835-16.835h-45.022c-9.298 0-16.835 7.537-16.835 16.835v100.272c0 9.298 7.537 16.835 16.835 16.835z" fill="#97da7b"/><path d="m24.335 475.664h155.326c9.298 0 16.835-7.537 16.835-16.835v-100.271c0-9.298-7.537-16.835-16.835-16.835h-39.788l-8.563-12.667c-2.394-3.542-7.613-3.531-9.993.02l-8.476 12.647h-88.506c-9.298 0-16.835 7.537-16.835 16.835v100.272c0 9.297 7.537 16.834 16.835 16.834z" fill="#f37c7c"/><g><path d="m58.493 458.83v-100.272c0-9.298 7.537-16.835 16.835-16.835h-50.993c-9.298 0-16.835 7.537-16.835 16.835v100.272c0 9.298 7.537 16.835 16.835 16.835h50.992c-9.297 0-16.834-7.538-16.834-16.835z" fill="#ee6161"/></g><path d="m108.852 441.941 28.524-28.524c8.235-8.235 8.235-21.586 0-29.821-8.235-8.235-21.586-8.235-29.821 0l-3.586 3.586-4.347-4.176c-8.279-7.955-21.401-7.823-29.52.295l-.295.295c-8.235 8.235-8.235 21.586 0 29.821l28.524 28.524c2.906 2.905 7.616 2.905 10.521 0z" fill="#f3f0f3"/></g></g><g><path d="m444.656 247.379c0-13.375-1.406-26.771-4.179-39.813-.861-4.052-4.838-6.641-8.896-5.776-4.052.861-6.638 4.844-5.776 8.896 2.037 9.582 3.259 19.372 3.677 29.194h-72.818c-.174-10.507-.696-21.037-1.593-31.4-.357-4.127-3.975-7.195-8.119-6.825-4.126.356-7.182 3.992-6.825 8.118.86 9.936 1.364 20.031 1.537 30.107h-80.1v-77.178c7.643-.176 15.302-.619 22.856-1.324 4.125-.386 7.155-4.042 6.77-8.166s-4.041-7.146-8.165-6.77c-7.092.663-14.283 1.081-21.46 1.254v-75.744c7.011.3 14.03 1.015 20.952 2.143 4.086.666 7.942-2.108 8.608-6.196s-2.108-7.942-6.196-8.608c-10.188-1.66-20.572-2.502-30.864-2.502-105.093 0-190.592 85.499-190.592 190.592 0 23.03 4.077 45.565 12.117 66.98 1.13 3.009 3.987 4.865 7.022 4.865.876 0 1.767-.154 2.635-.48 3.878-1.456 5.841-5.78 4.385-9.658-6.531-17.393-10.218-35.594-10.999-54.207h72.818c.323 19.748 1.912 39.214 4.751 57.966.563 3.716 3.76 6.379 7.406 6.379.373 0 .751-.028 1.132-.086 4.096-.619 6.913-4.442 6.293-8.537-2.727-18.016-4.261-36.726-4.582-55.722h80.113v77.182c-8.103.187-16.225.67-24.235 1.453-4.123.403-7.138 4.072-6.734 8.195.403 4.121 4.064 7.116 8.194 6.734 7.527-.736 15.159-1.199 22.775-1.383v75.745c-6.356-.269-12.703-.873-18.949-1.816-4.092-.625-7.917 2.2-8.536 6.296s2.2 7.917 6.296 8.536c9.442 1.426 19.094 2.149 28.689 2.149 105.093-.001 190.592-85.5 190.592-190.593zm-87.977 7.5h72.807c-1.731 40.981-17.564 78.376-42.775 107.434-12.751-6.648-26.566-12.274-41.138-16.811 6.722-27.585 10.586-58.399 11.106-90.623zm19.248 118.793c-15.622 15.08-34.023 27.295-54.352 35.794 7.955-14.33 14.717-31.028 20.124-49.467 12.043 3.783 23.512 8.362 34.228 13.673zm-114.363 49.128v-75.733c22.622.546 44.78 3.554 65.575 8.811-7.15 24.412-16.698 45.484-28.139 61.256-12.025 3.186-24.553 5.122-37.436 5.666zm80.11-167.921c-.529 30.536-4.271 60.093-10.669 86.516-22.056-5.593-45.524-8.779-69.441-9.331v-77.185zm-95.11-182.921v75.735c-22.622-.546-44.779-3.558-65.574-8.816 7.149-24.411 16.698-45.481 28.138-61.252 12.026-3.186 24.554-5.122 37.436-5.667zm-95.113 167.921h-72.807c1.731-40.981 17.564-78.376 42.776-107.434 12.749 6.647 26.563 12.273 41.133 16.81-6.721 27.588-10.583 58.403-11.102 90.624zm14.982-105.117c-12.045-3.783-23.52-8.358-34.236-13.671 15.621-15.079 34.019-27.295 54.347-35.795-7.95 14.331-14.707 31.029-20.111 49.466zm.022 105.117c.529-30.536 4.271-60.093 10.669-86.516 22.056 5.593 45.524 8.779 69.441 9.331v77.185z"/><path d="m145.113 63.314c1.259 0 2.535-.317 3.707-.985 15.7-8.948 32.487-15.856 49.897-20.531 4-1.074 6.373-5.188 5.299-9.188s-5.19-6.37-9.188-5.298c-18.646 5.007-36.625 12.403-53.436 21.986-3.599 2.051-4.853 6.631-2.802 10.229 1.383 2.427 3.916 3.787 6.523 3.787z"/><path d="m93.779 103.677c1.993 0 3.981-.789 5.457-2.353 6.373-6.755 13.257-13.157 20.462-19.029 3.211-2.617 3.692-7.341 1.075-10.552-2.617-3.212-7.342-3.693-10.552-1.075-7.709 6.283-15.076 13.135-21.896 20.361-2.843 3.013-2.705 7.76.308 10.603 1.45 1.368 3.3 2.045 5.146 2.045z"/><path d="m43.621 320.406c.738 0 1.489-.109 2.23-.341 3.955-1.229 6.164-5.434 4.934-9.389-6.349-20.412-9.568-41.708-9.568-63.297 0-42.653 12.568-83.803 36.347-119 2.319-3.432 1.416-8.094-2.016-10.413-3.433-2.318-8.095-1.416-10.414 2.017-25.459 37.686-38.917 81.738-38.917 127.396 0 23.101 3.447 45.896 10.245 67.752.999 3.214 3.962 5.275 7.159 5.275z"/><path d="m331.747 445.585c-16.82 6.61-34.424 11.045-52.322 13.18-4.113.49-7.05 4.223-6.559 8.336.455 3.812 3.692 6.612 7.438 6.612.296 0 .596-.018.897-.054 19.169-2.286 38.021-7.035 56.032-14.113 3.855-1.516 5.752-5.869 4.237-9.724-1.515-3.854-5.869-5.75-9.723-4.237z"/><path d="m386.4 414.086c-7.276 5.774-15.005 11.125-22.975 15.905-3.552 2.131-4.705 6.737-2.574 10.289 1.406 2.345 3.891 3.644 6.439 3.644 1.313 0 2.643-.345 3.851-1.069 8.527-5.114 16.798-10.841 24.583-17.019 3.245-2.575 3.788-7.293 1.213-10.537-2.575-3.245-7.292-3.787-10.537-1.213z"/><path d="m470.536 205.236c-4.091.651-6.878 4.495-6.227 8.586 3.363 21.111 3.501 42.649.412 64.015-6.104 42.215-24.431 81.143-53 112.574-2.786 3.065-2.56 7.809.505 10.595 1.437 1.307 3.242 1.95 5.042 1.95 2.04 0 4.072-.827 5.552-2.455 30.59-33.655 50.213-75.329 56.747-120.518 3.306-22.862 3.156-45.916-.444-68.521-.652-4.09-4.497-6.882-8.587-6.226z"/><path d="m485.883 37.684h-90.729c-4.142 0-7.5 3.357-7.5 7.5s3.358 7.5 7.5 7.5h90.729c5.147 0 9.334 4.188 9.334 9.334v100.272c0 5.147-4.188 9.336-9.334 9.336h-88.506c-2.501 0-4.837 1.247-6.23 3.324l-7.254 10.824-7.334-10.849c-1.395-2.063-3.723-3.3-6.213-3.3h-39.788c-5.147 0-9.335-4.188-9.335-9.336v-100.271c0-5.146 4.188-9.334 9.335-9.334h32.634c4.142 0 7.5-3.357 7.5-7.5s-3.358-7.5-7.5-7.5h-32.634c-13.418 0-24.335 10.916-24.335 24.334v100.272c0 13.419 10.917 24.336 24.335 24.336h35.805l6.332 9.366c2.52 3.727 6.706 5.95 11.204 5.95h.026c4.508-.009 8.697-2.25 11.207-5.994l6.248-9.322h84.504c13.418 0 24.334-10.917 24.334-24.336v-100.272c0-13.418-10.917-24.334-24.335-24.334z"/><circle cx="407.322" cy="111.723" r="10"/><circle cx="356.284" cy="111.723" r="10"/><circle cx="458.359" cy="111.723" r="10"/><path d="m179.661 334.223h-35.805l-6.332-9.367c-2.52-3.727-6.706-5.95-11.204-5.95-.009 0-.018 0-.026 0-4.508.009-8.697 2.25-11.208 5.994l-6.248 9.323h-84.503c-13.418 0-24.335 10.917-24.335 24.335v100.272c0 13.418 10.917 24.335 24.335 24.335h90.625c4.142 0 7.5-3.357 7.5-7.5s-3.358-7.5-7.5-7.5h-90.625c-5.147 0-9.335-4.188-9.335-9.335v-100.272c0-5.147 4.188-9.335 9.335-9.335h88.506c2.501 0 4.838-1.247 6.23-3.324l7.254-10.824 7.334 10.849c1.395 2.063 3.723 3.3 6.213 3.3h39.788c5.147 0 9.335 4.188 9.335 9.335v100.271c0 5.147-4.188 9.335-9.335 9.335h-32.739c-4.142 0-7.5 3.357-7.5 7.5s3.358 7.5 7.5 7.5h32.739c13.418 0 24.335-10.917 24.335-24.335v-100.272c.001-13.418-10.916-24.335-24.334-24.335z"/><path d="m151.052 398.506c0-7.636-2.974-14.814-8.373-20.213-5.399-5.4-12.578-8.374-20.214-8.374-6.879 0-13.388 2.413-18.558 6.841-11.189-9.852-28.477-9.396-39.113 1.241l-.291.291c-5.399 5.399-8.373 12.578-8.373 20.214s2.974 14.814 8.373 20.214l28.524 28.524c2.913 2.912 6.738 4.368 10.563 4.368 3.826 0 7.651-1.456 10.564-4.368l28.524-28.524c5.401-5.399 8.374-12.578 8.374-20.214zm-18.979 9.607-28.482 28.482-28.481-28.482c-2.566-2.565-3.979-5.978-3.979-9.606s1.413-7.041 3.984-9.611l.291-.291c2.631-2.631 6.12-3.951 9.61-3.951 3.398 0 6.798 1.251 9.41 3.761l4.347 4.177c2.945 2.831 7.612 2.784 10.5-.104l3.586-3.587c2.566-2.565 5.979-3.979 9.607-3.979s7.041 1.414 9.607 3.98c5.298 5.295 5.298 13.914 0 19.211z"/></g></g></svg>