<svg id="Capa_1" enable-background="new 0 0 513.591 513.591" height="512" viewBox="0 0 513.591 513.591" width="512" xmlns="http://www.w3.org/2000/svg"><g><g><g id="XMLID_281_"><path d="m452.231 7.505h-390.3c-10.96 0-19.85 8.88-19.85 19.84v23.44l22.629 33.977h379.987l27.385-33.978v-23.44c0-10.959-8.891-19.839-19.851-19.839z" fill="#5f99d7"/></g><path d="m124.655 27.345c0-10.96 8.89-19.84 19.85-19.84h-82.573c-10.96 0-19.85 8.88-19.85 19.84v23.44l22.628 33.977h59.945z" fill="#3c87d0"/><path d="m472.082 50.785v445.577c0 4.365-3.528 7.908-7.893 7.927l-414.147 1.772c-4.391.019-7.961-3.536-7.961-7.927v-447.349z" fill="#dff6fd"/><g><path d="m124.655 354.378v-303.593h-82.573v447.349c0 4.391 3.57 7.945 7.961 7.927l80.228-.343 22.342-.096c.029-.453.048-.907.048-1.364v-99.656c0-14.258-7.557-26.782-18.875-33.78-5.692-3.519-9.131-9.754-9.131-16.444z" fill="#c8effe"/><path d="m72.083 301.433v-176.168c0-3.517 2.851-6.367 6.367-6.367h357.263c3.517 0 6.367 2.851 6.367 6.367v176.167c0 3.517-2.851 6.367-6.367 6.367h-357.263c-3.517.001-6.367-2.85-6.367-6.366z" fill="#99e6fc"/><path d="m78.45 118.898c-3.517 0-6.367 2.851-6.367 6.367v176.167c0 3.517 2.851 6.367 6.367 6.367h46.205v-188.901z" fill="#62dbfb"/><path d="m234.72 209.102v-34.838c0-7.994 8.935-12.74 15.558-8.264l25.776 17.419c5.852 3.955 5.852 12.573 0 16.528l-25.776 17.419c-6.624 4.476-15.558-.269-15.558-8.264z" fill="#f3f0f3"/><path d="m472.082 437.166v-107.518c-.33-.006-.657-.025-.988-.025h-179.728c-29.656 0-53.784 24.127-53.784 53.783 0 29.657 24.128 53.785 53.784 53.785h16.54l4.953 5.612c5.003 5.671 12.21 8.923 19.773 8.923 7.042 0 13.664-2.743 18.644-7.723l6.813-6.813h113.005c.331.001.657-.018.988-.024z" fill="#c8effe"/><path d="m471.093 349.623h-179.727c-18.658 0-33.784 15.125-33.784 33.784 0 18.659 15.126 33.784 33.784 33.784h25.565l10.924 12.381c2.43 2.754 6.681 2.887 9.278.29l12.671-12.671h121.288c18.658 0 33.784-15.126 33.784-33.784.001-18.659-15.125-33.784-33.783-33.784z" fill="#ade194"/><path d="m303.419 383.407c0-18.659 15.126-33.784 33.784-33.784h-45.838c-18.658 0-33.784 15.125-33.784 33.784s15.126 33.784 33.784 33.784h25.565l10.925 12.381c2.43 2.754 6.681 2.887 9.278.29l12.671-12.671h-12.601c-18.658 0-33.784-15.126-33.784-33.784z" fill="#97da7b"/><path d="m112.969 384.911h-84.564c-10.875 0-19.691 8.816-19.691 19.691v54.762c0 10.875 8.816 19.691 19.691 19.691h78.992l22.017 26.38c1.1 1.318 3.246.54 3.246-1.177v-99.656c0-10.875-8.816-19.691-19.691-19.691z" fill="#f37c7c"/><g><path d="m42.082 459.364v-54.762c0-10.875 8.816-19.691 19.691-19.691h-33.368c-10.875 0-19.691 8.816-19.691 19.691v54.762c0 10.875 8.816 19.691 19.691 19.691h33.368c-10.876 0-19.691-8.816-19.691-19.691z" fill="#ee6161"/></g><path d="m73.827 452.971 17.03-17.03c4.916-4.916 4.916-12.888 0-17.804-4.916-4.916-12.888-4.916-17.804 0l-2.141 2.141-2.595-2.493c-4.943-4.749-12.777-4.671-17.624.176l-.176.176c-4.916 4.916-4.916 12.888 0 17.804l17.03 17.03c1.734 1.735 4.546 1.735 6.28 0z" fill="#eef5f6"/></g><circle cx="170.623" cy="260.121" fill="#f3f0f3" r="18.032"/></g><g><path d="m472.082 439.666c-4.143 0-7.5 3.357-7.5 7.5v57.089c0 4.143 3.357 7.5 7.5 7.5s7.5-3.357 7.5-7.5v-57.089c0-4.143-3.358-7.5-7.5-7.5z"/><path d="m42.082 362.411c4.143 0 7.5-3.357 7.5-7.5v-296.63h415v261.367c0 4.143 3.357 7.5 7.5 7.5s7.5-3.357 7.5-7.5v-292.298c0-15.081-12.269-27.35-27.35-27.35h-390.301c-15.081 0-27.35 12.269-27.35 27.35v327.562c.001 4.142 3.358 7.499 7.501 7.499zm19.849-347.411h390.301c6.81 0 12.35 5.54 12.35 12.35v15.932h-415v-15.932c0-6.81 5.54-12.35 12.349-12.35z"/><path d="m449.581 301.433v-176.167c0-7.646-6.221-13.867-13.867-13.867h-38.504c-4.143 0-7.5 3.357-7.5 7.5s3.357 7.5 7.5 7.5h37.37v173.901h-354.997v-173.902h285.665c4.143 0 7.5-3.357 7.5-7.5s-3.357-7.5-7.5-7.5h-286.798c-7.646 0-13.867 6.221-13.867 13.867v176.167c0 7.646 6.221 13.867 13.867 13.867h357.264c7.646.001 13.867-6.22 13.867-13.866z"/><path d="m244.697 226.582c3.422 0 6.831-1.009 9.78-3.002l25.776-17.419c4.815-3.254 7.69-8.666 7.69-14.478s-2.875-11.224-7.69-14.478l-25.775-17.419c-5.367-3.626-12.258-3.994-17.979-.955-5.724 3.039-9.278 8.953-9.278 15.433v34.838c0 6.479 3.555 12.394 9.278 15.433 2.578 1.369 5.392 2.047 8.198 2.047zm-2.477-52.317c0-1.294.823-1.925 1.313-2.185.269-.143.684-.306 1.18-.306.411 0 .879.112 1.365.44l25.776 17.419c.947.641 1.089 1.56 1.089 2.05s-.142 1.409-1.089 2.05l-25.777 17.419c-1.069.723-2.053.396-2.544.135-.49-.26-1.313-.891-1.313-2.185z"/><path d="m170.623 234.589c-11.469 0-21.195 7.603-24.406 18.032h-41.254c-4.143 0-7.5 3.357-7.5 7.5s3.357 7.5 7.5 7.5h41.254c3.212 10.429 12.937 18.032 24.406 18.032 11.47 0 21.196-7.603 24.407-18.032h216.639c4.143 0 7.5-3.357 7.5-7.5s-3.357-7.5-7.5-7.5h-216.639c-3.212-10.429-12.938-18.032-24.407-18.032zm0 36.064c-5.808 0-10.532-4.725-10.532-10.532s4.725-10.532 10.532-10.532 10.533 4.725 10.533 10.532-4.726 10.532-10.533 10.532z"/><path d="m471.093 342.123h-179.727c-22.765 0-41.284 18.52-41.284 41.283 0 22.765 18.52 41.285 41.284 41.285h22.181l8.687 9.844c2.523 2.858 6.155 4.566 9.967 4.685.142.005.284.007.426.007 3.661 0 7.217-1.467 9.813-4.062l10.473-10.474h69.12c4.143 0 7.5-3.357 7.5-7.5s-3.357-7.5-7.5-7.5h-72.227c-1.989 0-3.896.79-5.304 2.196l-11.818 11.819-10.127-11.478c-1.424-1.614-3.473-2.538-5.624-2.538h-25.565c-14.493 0-26.284-11.791-26.284-26.285 0-14.492 11.791-26.283 26.284-26.283h179.728c14.492 0 26.283 11.791 26.283 26.283 0 14.494-11.791 26.285-26.283 26.285h-17.101c-4.143 0-7.5 3.357-7.5 7.5s3.357 7.5 7.5 7.5h17.101c22.764 0 41.283-18.521 41.283-41.285-.003-22.762-18.522-41.282-41.286-41.282z"/><path d="m112.969 377.411h-12.829c-4.143 0-7.5 3.357-7.5 7.5s3.357 7.5 7.5 7.5h12.829c6.722 0 12.19 5.469 12.19 12.19v84.031l-12.005-14.384c-1.425-1.707-3.534-2.694-5.758-2.694h-78.991c-6.722 0-12.19-5.469-12.19-12.191v-54.762c0-6.722 5.469-12.19 12.19-12.19h39.772c4.143 0 7.5-3.357 7.5-7.5s-3.357-7.5-7.5-7.5h-39.772c-14.993 0-27.19 12.197-27.19 27.19v54.762c0 14.993 12.197 27.191 27.19 27.191h75.482l19.769 23.686c1.805 2.162 4.463 3.351 7.184 3.351 1.062 0 2.133-.182 3.166-.556 3.681-1.335 6.154-4.862 6.154-8.777v-99.656c0-14.994-12.198-27.191-27.191-27.191z"/><path d="m45.404 412.643-.191.191c-7.831 7.833-7.831 20.577.001 28.411l17.028 17.027c2.256 2.257 5.255 3.5 8.445 3.5s6.189-1.243 8.445-3.5l17.028-17.027c7.833-7.833 7.833-20.579 0-28.412-6.854-6.852-17.464-7.71-25.259-2.572-7.809-5.298-18.638-4.479-25.497 2.382zm30.813 12.937 2.14-2.14c1.985-1.985 5.213-1.983 7.196 0 1.985 1.984 1.985 5.213 0 7.197l-14.866 14.867-14.867-14.865c-1.984-1.984-1.984-5.215-.015-7.184l.191-.191c.985-.985 2.292-1.479 3.6-1.479 1.272 0 2.546.468 3.524 1.408l2.596 2.494c2.946 2.83 7.615 2.784 10.501-.107z"/><path d="m230.647 342.123h-65.889c-4.143 0-7.5 3.357-7.5 7.5s3.357 7.5 7.5 7.5h65.889c4.143 0 7.5-3.357 7.5-7.5s-3.357-7.5-7.5-7.5z"/><path d="m132.66 342.123h-16.01c-4.143 0-7.5 3.357-7.5 7.5s3.357 7.5 7.5 7.5h16.01c4.143 0 7.5-3.357 7.5-7.5s-3.358-7.5-7.5-7.5z"/><path d="m164.758 398.945h65.889c4.143 0 7.5-3.357 7.5-7.5s-3.357-7.5-7.5-7.5h-65.889c-4.143 0-7.5 3.357-7.5 7.5s3.358 7.5 7.5 7.5z"/><path d="m164.758 440.768h86.263c4.143 0 7.5-3.357 7.5-7.5s-3.357-7.5-7.5-7.5h-86.263c-4.143 0-7.5 3.357-7.5 7.5s3.358 7.5 7.5 7.5z"/><path d="m442.081 467.59h-277.323c-4.143 0-7.5 3.357-7.5 7.5s3.357 7.5 7.5 7.5h277.322c4.143 0 7.5-3.357 7.5-7.5s-3.357-7.5-7.499-7.5z"/></g></g></svg>