<svg id="Capa_1" enable-background="new 0 0 511.856 511.856" height="512" viewBox="0 0 511.856 511.856" width="512" xmlns="http://www.w3.org/2000/svg"><g><g><path d="m403.057 336.77-8.71-16.898 12.532-67.198 16.091-8.493c-6.404-86.532-78.635-154.749-166.803-154.749-92.38 0-167.269 74.889-167.269 167.269s74.889 167.269 167.269 167.269c63.372-.001 118.509-35.246 146.89-87.2z" fill="#dff6fd"/><g><path d="m309.409 98.084c-16.83-5.645-34.872-8.693-53.613-8.652-92.597.201-168.496 77.677-166.872 170.26 1.596 90.999 75.862 164.276 167.242 164.276 8.622 0 17.117-.656 25.388-1.914-66.254-22.25-114.018-84.866-114.018-158.616 0-73.744 47.74-136.337 113.99-158.591 10.416-3.499 21.644 3.037 23.69 13.833 9.689 51.126 54.696 89.91 108.599 89.91.862 0 1.728-.004 2.585-.024-15.601-52.003-55.683-93.32-106.991-110.482z" fill="#c8effe"/><path d="m242.543 150.129c0 11.095 8.994 20.089 20.089 20.089h136.737c-9.154-15.125-20.636-28.683-33.95-40.177h-102.787c-11.095-.001-20.089 8.993-20.089 20.088z" fill="#ade194"/><path d="m330.152 170.218h69.216c-9.154-15.125-20.636-28.683-33.95-40.177h-57.415c4.536 14.974 12.165 28.618 22.149 40.177z" fill="#97da7b"/><path d="m365.011 164.441 76.54 8.748 31.866-17.119 9.889.02c13.135-15.713 21.05-35.956 21.05-58.04 0-50-40.54-90.54-90.54-90.54s-90.54 40.54-90.54 90.54c0 22.085 7.914 42.327 21.05 58.04z" fill="#5f99d7"/><g><path d="m483.307 156.07v.02c-16.61 19.87-41.57 32.5-69.49 32.5s-52.88-12.63-69.49-32.5v-.02c.09-19.48 8.21-37.05 21.2-49.61l23.7-17.03h52.83l20.05 17.03c12.989 12.56 21.109 30.13 21.2 49.61z" fill="#f37c7c"/></g><path d="m462.107 106.46-20.05-17.03h-24.885l-17.803 19.244v-19.244h-10.142l-23.7 17.03c-12.99 12.56-21.11 30.13-21.2 49.61v.02c7.299 8.731 16.211 16.063 26.277 21.541.121-7.369 1.391-14.456 3.637-21.093 3.327-9.831 13.635-15.306 23.788-13.151 5.094 1.082 10.375 1.652 15.788 1.652 23.208 0 44.014-10.434 58.013-26.842-2.814-4.258-6.068-8.202-9.723-11.737z" fill="#ee6161"/><path d="m28.547 156.09 13.382 2.492 45.405 17.44 55.327-8.119 16.642-13.23 8.233 1.407v-.01c13.14-15.71 21.04-35.94 21.04-58.02 0-50-40.53-90.54-90.54-90.54-50 0-90.54 40.54-90.54 90.54.001 22.09 7.9 42.33 21.051 58.04z" fill="#5f99d7"/><g><path d="m167.536 156.07v.01c-16.6 19.87-41.57 32.51-69.5 32.51-27.92 0-52.88-12.63-69.49-32.5v-.02c.09-19.48 8.21-37.05 21.21-49.61l27.02-17.03h49.08l20.47 17.03c12.99 12.56 21.111 30.13 21.21 49.61z" fill="#fee97d"/></g><path d="m146.326 106.46-20.47-17.03h-13.63l-40.906 31.376v-27.937l-21.563 13.591c-13 12.56-21.12 30.13-21.21 49.61v.02c8.391 10.037 18.92 18.231 30.877 23.878.088-10.425 2.473-20.303 6.677-29.145 2.79-5.868 9.326-8.933 15.673-7.541 5.242 1.15 10.684 1.758 16.267 1.758 23.207 0 44.012-10.433 58.012-26.84-2.816-4.26-6.07-8.205-9.727-11.74z" fill="#fee45a"/><path d="m98.04 7.513c-33.835 0-61.264 27.429-61.264 61.264 0 7.749 1.453 15.154 4.078 21.978l8.559-4.375 39.486 37.07 20.204 4.608 7.328-.83c24.849-7.811 42.873-31.024 42.873-58.451-.001-33.836-27.429-61.264-61.264-61.264z" fill="#ffe5c2"/><path d="m73.558 68.776c0-27.427 18.04-50.64 42.889-58.45-5.806-1.825-11.998-2.813-18.407-2.813-33.835 0-61.264 27.429-61.264 61.264s27.429 61.263 61.264 61.263c6.408 0 12.585-.988 18.391-2.813-24.849-7.81-42.873-31.024-42.873-58.451z" fill="#fed2a4"/><g id="XMLID_286_"><g><path d="m167.536 471.83c-16.61 19.87-41.58 32.51-69.5 32.51-27.91 0-52.88-12.63-69.49-32.5-13.14-15.71-21.05-35.95-21.05-58.04 0-50 40.54-90.54 90.54-90.54 50.01 0 90.54 40.54 90.54 90.54 0 22.08-7.9 42.31-21.04 58.02" fill="#5f99d7"/></g></g><g><path d="m167.536 471.82v.01c-16.61 19.87-41.58 32.51-69.5 32.51-27.91 0-52.88-12.63-69.49-32.5v-.02c.09-19.48 8.21-37.05 21.21-49.61l20.29-19.29h56.26l20.02 19.29c12.99 12.56 21.111 30.13 21.21 49.61z" fill="#dff6fd"/></g><path d="m146.326 422.21-20.02-19.29h-52.531l-12.246 18.331v-10.232l-11.772 11.191c-13 12.56-21.12 30.13-21.21 49.61v.02c7.298 8.73 16.211 16.062 26.277 21.539.143-8.703 1.889-17.013 4.953-24.652 3.203-7.985 11.938-12.107 20.299-10.076 5.761 1.399 11.777 2.141 17.964 2.141 23.208 0 44.013-10.433 58.012-26.841-2.815-4.261-6.069-8.205-9.726-11.741z" fill="#c8effe"/><path d="m413.817 7.513c-33.835 0-61.264 27.429-61.264 61.264 0 8.361 1.68 16.328 4.713 23.59l5.737-3.792 43.109 34.512 23.827 3.93 5.415-.88c23.208-8.718 39.727-31.106 39.727-57.36-.001-33.836-27.429-61.264-61.264-61.264z" fill="#ffe5c2"/><path d="m389.639 66.869c0-26.254 16.564-48.64 39.771-57.358-4.966-1.299-10.221-1.998-15.594-1.998-33.835 0-61.264 27.429-61.264 61.264s27.429 61.264 61.264 61.264c7.581 0 14.836-1.386 21.537-3.904-26.303-6.883-45.714-30.806-45.714-59.268z" fill="#fed2a4"/><path d="m98.04 323.264c-33.835 0-61.264 27.429-61.264 61.264 0 9.39 2.119 18.283 5.895 26.236l3.44-7.205 16.82 22.974 49.366 16 7.28-.645c23.207-8.718 39.726-31.106 39.726-57.36 0-33.835-27.428-61.264-61.263-61.264z" fill="#ffe5c2"/><path d="m73.862 382.62c0-26.254 16.539-48.642 39.747-57.361-4.966-1.299-10.196-1.996-15.57-1.996-33.835 0-61.264 27.429-61.264 61.264s27.429 61.264 61.264 61.264c7.581 0 14.836-1.386 21.537-3.904-26.303-6.882-45.714-30.805-45.714-59.267z" fill="#fed2a4"/><g fill="#ade194"><path d="m422.969 244.18h-111.268c-8.239 0-14.918 6.679-14.918 14.918s6.679 14.918 14.918 14.918h33.961c8.224 0 14.891 6.667 14.891 14.891s-6.667 14.891-14.891 14.891h-10.588c-9.105 0-16.486 7.381-16.486 16.486 0 9.105 7.381 16.486 16.486 16.486h67.983c12.991-23.781 20.378-51.062 20.378-80.07 0-4.212-.16-8.386-.466-12.52z"/><path d="m188.383 188.027h-12.131-72.65c-5.227 11.595-9.162 23.897-11.642 36.717h96.424c10.139 0 18.359-8.219 18.359-18.359-.001-10.138-8.22-18.358-18.36-18.358z"/><path d="m217.844 299.073h-46.943c-8.927 0-16.164-7.237-16.164-16.164 0-8.927 7.237-16.164 16.164-16.164h46.943c8.927 0 16.164 7.237 16.164 16.164 0 8.928-7.236 16.164-16.164 16.164z"/></g></g><path d="m266.014 384.8h-46.943c-8.927 0-16.164-7.237-16.164-16.164 0-8.927 7.237-16.164 16.164-16.164h46.943c8.927 0 16.164 7.237 16.164 16.164 0 8.927-7.237 16.164-16.164 16.164z" fill="#ade194"/><path d="m185.469 188.027h-9.216-72.65c-5.227 11.595-9.162 23.897-11.642 36.717h80.081c3.049-12.879 7.59-25.181 13.427-36.717z" fill="#97da7b"/></g><g><path d="m417.314 211.17c-4.033.945-6.535 4.981-5.589 9.015 1.274 5.431 2.246 10.942 2.944 16.496h-33.159c-4.142 0-7.5 3.357-7.5 7.5s3.358 7.5 7.5 7.5h34.342c.052 1.672.084 3.345.084 5.02 0 26.122-6.323 50.795-17.516 72.57h-63.345c-4.955 0-8.986-4.031-8.986-8.986s4.031-8.986 8.986-8.986h10.588c12.346 0 22.391-10.044 22.391-22.391s-10.044-22.392-22.391-22.392h-33.961c-4.09 0-7.418-3.328-7.418-7.418s3.328-7.417 7.418-7.417h37.846c4.142 0 7.5-3.357 7.5-7.5s-3.358-7.5-7.5-7.5h-37.846c-12.361 0-22.418 10.057-22.418 22.417 0 12.361 10.057 22.418 22.418 22.418h33.961c4.075 0 7.391 3.315 7.391 7.392 0 4.075-3.315 7.391-7.391 7.391h-10.588c-13.226 0-23.986 10.76-23.986 23.986s10.76 23.986 23.986 23.986h54.557c-28.522 43.162-77.47 71.698-132.964 71.698-12.312 0-24.592-1.415-36.498-4.205-4.03-.95-8.068 1.558-9.014 5.59-.945 4.033 1.558 8.068 5.591 9.014 13.026 3.054 26.458 4.602 39.92 4.602 96.092 0 174.269-78.177 174.269-174.269 0-13.471-1.55-26.908-4.606-39.941-.947-4.035-4.986-6.537-9.016-5.59z"/><path d="m218.509 101.823c.565 0 1.141-.064 1.715-.199 23.299-5.452 48.096-5.567 71.485-.317 4.05.916 8.054-1.633 8.961-5.675.907-4.041-1.633-8.053-5.675-8.96-25.588-5.744-52.697-5.618-78.189.347-4.033.943-6.538 4.979-5.594 9.012.81 3.457 3.892 5.792 7.297 5.792z"/><path d="m413.816.012c-54.059 0-98.04 43.98-98.04 98.04 0 8.452 1.075 16.658 3.096 24.487h-56.241c-15.212 0-27.589 12.376-27.589 27.589s12.376 27.589 27.589 27.589h94.109c16.087 11.558 35.799 18.374 57.075 18.374 54.059 0 98.04-43.98 98.04-98.039.001-54.059-43.98-98.04-98.039-98.04zm83.04 98.04c0 13.455-3.237 26.16-8.941 37.412-3.067-10.929-8.53-21.054-16.152-29.738 6.835-10.681 10.817-23.356 10.817-36.951 0-7.781-1.305-15.261-3.698-22.24 11.244 14.166 17.974 32.067 17.974 51.517zm-136.803-29.276c0-29.646 24.118-53.764 53.764-53.764s53.764 24.118 53.764 53.764-24.118 53.764-53.764 53.764-53.764-24.118-53.764-53.764zm-11.296-22.247c-2.396 6.981-3.704 14.463-3.704 22.247 0 13.603 3.987 26.284 10.829 36.969-7.62 8.68-13.096 18.79-16.167 29.712-5.702-11.25-8.938-23.953-8.938-37.405 0-19.453 6.731-37.357 17.98-51.523zm-98.714 103.6c0-6.941 5.647-12.589 12.589-12.589h61.459c4.075 9.222 9.529 17.703 16.103 25.178h-77.562c-6.942 0-12.589-5.648-12.589-12.589zm163.773 30.963c-24.582 0-46.693-10.746-61.911-27.776.643-13.157 5.376-25.52 13.575-35.686 12.43 12.3 29.509 19.911 48.336 19.911s35.906-7.611 48.336-19.911c8.199 10.166 12.932 22.529 13.576 35.686-15.218 17.029-37.329 27.776-61.912 27.776z"/><path d="m98.04 196.092c54.059 0 98.04-43.98 98.04-98.039 0-54.06-43.98-98.04-98.04-98.04-39.487 0-74.943 23.5-90.329 59.87-1.614 3.814.17 8.216 3.985 9.829 3.815 1.612 8.216-.17 9.83-3.985 2.999-7.09 6.907-13.594 11.542-19.419-2.446 7.045-3.791 14.6-3.791 22.469 0 13.601 3.985 26.28 10.826 36.964-7.62 8.679-13.097 18.79-16.167 29.711-5.702-11.249-8.936-23.95-8.936-37.4 0-1.175.029-2.396.088-3.734.183-4.138-3.023-7.641-7.162-7.823-4.112-.23-7.641 3.022-7.824 7.161-.068 1.561-.102 2.999-.102 4.396 0 54.059 43.98 98.04 98.04 98.04zm83.039-98.04c0 13.459-3.239 26.168-8.947 37.423-3.066-10.932-8.525-21.059-16.148-29.745 6.836-10.682 10.819-23.358 10.819-36.954 0-7.772-1.3-15.245-3.689-22.217 11.236 14.162 17.965 32.052 17.965 51.493zm-136.803-29.276c0-29.646 24.118-53.764 53.764-53.764s53.764 24.118 53.764 53.764-24.119 53.764-53.764 53.764-53.764-24.118-53.764-53.764zm5.43 48.855c12.43 12.298 29.508 19.909 48.334 19.909 18.827 0 35.905-7.611 48.336-19.911 8.199 10.166 12.932 22.528 13.576 35.686-15.218 17.031-37.329 27.777-61.912 27.777s-46.695-10.747-61.913-27.779c.644-13.156 5.377-25.517 13.579-35.682z"/><path d="m98.04 315.764c-54.06 0-98.04 43.981-98.04 98.039 0 54.06 43.98 98.04 98.04 98.04s98.04-43.98 98.04-98.04c-.001-54.058-43.981-98.039-98.04-98.039zm-65.031 46.469c-2.408 6.996-3.733 14.491-3.733 22.295 0 13.319 3.845 26.101 10.797 36.99-7.609 8.678-13.065 18.79-16.126 29.708-5.708-11.254-8.947-23.964-8.947-37.423 0-19.472 6.742-37.396 18.009-51.57zm65.031 134.611c-24.582 0-46.693-10.747-61.911-27.777.642-13.144 5.366-25.494 13.55-35.654 3.034 3 6.368 5.742 9.98 8.176 3.436 2.315 8.097 1.407 10.411-2.028s1.406-8.097-2.028-10.411c-14.881-10.027-23.765-26.708-23.765-44.621 0-29.646 24.118-53.764 53.764-53.764s53.764 24.118 53.764 53.764-24.118 53.764-53.764 53.764c-1.016 0-2.106-.039-3.433-.122-4.135-.248-7.696 2.882-7.955 7.016s2.882 7.695 7.016 7.955c1.647.104 3.036.151 4.373.151 18.824 0 35.9-7.608 48.329-19.905 8.201 10.163 12.939 22.521 13.583 35.678-15.22 17.03-37.331 27.778-61.914 27.778zm74.092-45.617c-3.066-10.932-8.524-21.061-16.148-29.746 6.836-10.682 10.819-23.358 10.819-36.954 0-7.792-1.31-15.282-3.711-22.269 11.254 14.169 17.987 32.083 17.987 51.544 0 13.461-3.239 26.17-8.947 37.425z"/><path d="m176.252 180.527c-4.142 0-7.5 3.357-7.5 7.5s3.358 7.5 7.5 7.5h12.131c5.988 0 10.859 4.871 10.859 10.858 0 5.988-4.871 10.859-10.859 10.859h-86.7c-.5-2.873-2.661-5.312-5.68-6.02-4.034-.945-8.068 1.56-9.013 5.593-3.047 13.012-4.593 26.43-4.593 39.882 0 12.885 1.423 25.765 4.23 38.282.783 3.49 3.879 5.861 7.312 5.861.543 0 1.095-.06 1.648-.184 4.042-.906 6.583-4.918 5.677-8.959-2.566-11.443-3.867-23.219-3.867-35.001 0-8.201.642-16.385 1.886-24.455h89.1c14.259 0 25.859-11.601 25.859-25.859s-11.6-25.858-25.859-25.858h-12.131z"/><path d="m273.76 368.636c0 4.627-3.764 8.392-8.391 8.392h-40.73c-4.142 0-7.5 3.357-7.5 7.5s3.358 7.5 7.5 7.5h40.73c12.898 0 23.391-10.493 23.391-23.392s-10.493-23.392-23.391-23.392h-55.695c-4.142 0-7.5 3.357-7.5 7.5s3.358 7.5 7.5 7.5h55.695c4.627.001 8.391 3.766 8.391 8.392z"/><path d="m170.902 259.246c-13.048 0-23.664 10.615-23.664 23.664 0 13.048 10.616 23.663 23.664 23.663h46.943c13.048 0 23.664-10.615 23.664-23.663 0-13.049-10.615-23.664-23.664-23.664zm55.606 23.664c0 4.776-3.887 8.663-8.664 8.663h-46.943c-4.777 0-8.664-3.887-8.664-8.663 0-4.777 3.887-8.664 8.664-8.664h46.943c4.778 0 8.664 3.887 8.664 8.664z"/></g></g></svg>