<svg id="Capa_1" enable-background="new 0 0 513.266 513.266" height="512" viewBox="0 0 513.266 513.266" width="512" xmlns="http://www.w3.org/2000/svg"><g><g><path d="m358.954 453.988c0 28.596-23.182 51.778-51.778 51.778h-191.307c-28.596 0-51.778-23.182-51.778-51.778v-394.71c0-28.596 23.182-51.778 51.778-51.778h191.307c28.596 0 51.778 23.182 51.778 51.778z" fill="#5f99d7"/><path d="m143.901 453.988v-394.71c0-28.596 23.182-51.778 51.778-51.778h-79.81c-28.596 0-51.778 23.182-51.778 51.778v394.71c0 28.596 23.182 51.778 51.778 51.778h79.81c-28.596 0-51.778-23.182-51.778-51.778z" fill="#3c87d0"/><path d="m358.954 118.353c-1.071-.038-2.142-.078-3.219-.078-23.461 0-45.518 9.136-62.107 25.726l-34.097 34.097-31.206 10.569c-10.236 3.46-17.816 11.808-20.276 22.329-2.461 10.525.634 21.374 8.279 29.02l23.078 23.078c-7.394 16.514-4.333 36.61 9.203 50.146 8.481 8.48 19.757 13.151 31.751 13.151 6.454 0 12.695-1.364 18.409-3.935l23.069 23.069c5.863 5.862 13.642 9.091 21.904 9.091 5.465 0 10.667-1.444 15.212-3.994z" fill="#3c87d0"/><path d="m328.954 453.988c0 12.027-9.75 21.777-21.777 21.777h-191.308c-12.028 0-21.778-9.75-21.778-21.778v-394.709c0-12.028 9.75-21.778 21.778-21.778h12.381c2.68 0 5.079 1.662 6.021 4.171l2.947 7.85c3.249 8.655 11.525 14.388 20.77 14.388h107.068c9.245 0 17.521-5.733 20.771-14.388l2.947-7.85c.942-2.509 3.341-4.171 6.021-4.171h12.382c12.027 0 21.777 9.75 21.777 21.777z" fill="#dff6fd"/><path d="m143.901 59.278c0-.139.009-.275.01-.414-2.949-2.421-5.291-5.608-6.693-9.344l-2.947-7.85c-.942-2.509-3.341-4.171-6.021-4.171h-12.381c-12.028 0-21.778 9.75-21.778 21.778v394.71c0 12.028 9.75 21.778 21.778 21.778h32.824c-3.075-6.622-4.792-13.996-4.792-21.777z" fill="#c8effe"/><path d="m328.954 350.857v-228.423c-13.18 4.202-25.263 11.502-35.327 21.566l-34.097 34.097-31.206 10.569c-10.236 3.46-17.816 11.808-20.276 22.329-2.461 10.525.634 21.374 8.279 29.02l23.078 23.078c-7.394 16.514-4.333 36.61 9.203 50.146 8.481 8.48 19.757 13.151 31.751 13.151 6.454 0 12.695-1.364 18.409-3.935l23.069 23.069c2.14 2.14 4.537 3.924 7.117 5.333z" fill="#c8effe"/><path d="m415.843 170.287 9.805-9.805c6.706-6.706 6.706-17.578 0-24.284-6.706-6.706-17.578-6.706-24.284 0l-9.805 9.805-23.829 23.181 22.896 23.702z" fill="#fee97d"/><g id="XMLID_282_"><g><path d="m300.654 296.411-2.686 2.686c-9.725 9.725-25.493 9.725-35.218 0-9.725-9.725-9.725-25.493 0-35.218l2.686-2.686 19.996-20.721 33.895 29.45z" fill="#fee97d"/><path d="m303.381 192.116-33.011 3.426-35.64 12.07c-7.75 2.62-10.05 12.47-4.26 18.26l105.51 105.51c5.78 5.78 15.63 3.48 18.26-4.27l12.06-35.63 9.54-32.275z" fill="#fee45a"/><path d="m338.019 266.918-12.884 37.616c-1.395 4.063-4.693 6.702-8.415 7.588l19.26 19.26c5.78 5.78 15.63 3.48 18.26-4.27l12.06-35.63 9.54-32.275-15.497-14.349z" fill="#fedf30"/><path d="m403.7 158.142c13.25 13.25 19.87 30.61 19.87 47.97 0 17.37-6.62 34.73-19.87 47.97l-37.4 37.4-1.27-1.27-94.66-94.67 37.4-37.4c26.49-26.49 69.44-26.49 95.93 0z" fill="#fee97d"/><path d="m403.7 158.142c-3.031-3.031-6.291-5.725-9.704-8.062 3.466 8.545 5.209 17.639 5.209 26.71 0 18.338-7.073 36.666-21.228 50.644l-38.086 37.636 25.14 25.143 1.27 1.27 37.4-37.4c13.25-13.24 19.87-30.6 19.87-47.97-.001-17.361-6.621-34.721-19.871-47.971z" fill="#fee45a"/></g></g></g><g><path d="m64.091 104.197c4.142 0 7.5-3.357 7.5-7.5v-37.42c0-24.415 19.863-44.277 44.278-44.277h191.307c24.415 0 44.278 19.862 44.278 44.277v49.059c0 4.143 3.358 7.5 7.5 7.5s7.5-3.357 7.5-7.5v-49.059c0-32.685-26.592-59.277-59.278-59.277h-191.307c-32.686 0-59.278 26.592-59.278 59.277v37.42c0 4.143 3.358 7.5 7.5 7.5z"/><path d="m358.954 354.199c-4.142 0-7.5 3.357-7.5 7.5v92.289c0 24.415-19.863 44.277-44.278 44.277h-191.307c-24.415 0-44.278-19.862-44.278-44.277v-325.329c0-4.143-3.358-7.5-7.5-7.5s-7.5 3.357-7.5 7.5v325.329c0 32.686 26.592 59.277 59.278 59.277h191.307c32.686 0 59.278-26.592 59.278-59.277v-92.289c0-4.142-3.358-7.5-7.5-7.5z"/><path d="m328.954 119.474c4.142 0 7.5-3.357 7.5-7.5v-52.697c0-16.143-13.134-29.277-29.277-29.277h-12.382c-5.772 0-11.014 3.631-13.042 9.035l-2.947 7.85c-2.139 5.696-7.664 9.524-13.749 9.524h-107.069c-6.085 0-11.61-3.827-13.749-9.524l-2.947-7.85c-2.029-5.404-7.27-9.035-13.042-9.035h-12.381c-16.144 0-29.278 13.134-29.278 29.277v394.711c0 16.144 13.134 29.277 29.278 29.277h134.885c4.142 0 7.5-3.357 7.5-7.5s-3.358-7.5-7.5-7.5h-134.885c-7.873 0-14.278-6.405-14.278-14.277v-394.711c0-7.872 6.405-14.277 14.278-14.277h11.641l2.687 7.156c4.323 11.516 15.491 19.253 27.792 19.253h107.068c12.3 0 23.469-7.737 27.792-19.253l2.686-7.156h11.642c7.873 0 14.277 6.405 14.277 14.277v52.696c0 4.143 3.358 7.501 7.5 7.501z"/><path d="m307.177 483.266c16.144 0 29.277-13.134 29.277-29.277v-92.133c0-4.143-3.358-7.5-7.5-7.5s-7.5 3.357-7.5 7.5v92.133c0 7.873-6.405 14.277-14.277 14.277h-24.46c-4.142 0-7.5 3.357-7.5 7.5s3.358 7.5 7.5 7.5z"/><path d="m253.328 42.158c4.142 0 7.5-3.357 7.5-7.5s-3.358-7.5-7.5-7.5h-79.316c-4.142 0-7.5 3.357-7.5 7.5s3.358 7.5 7.5 7.5z"/><path d="m431.07 206.112c0-11.592-2.615-22.778-7.54-32.905l7.422-7.422c9.618-9.619 9.618-25.271-.001-34.891-9.619-9.616-25.27-9.618-34.89.001l-7.487 7.487c-21.469-10.323-47.28-10.213-68.901 1.584-3.636 1.984-4.976 6.54-2.992 10.176s6.539 4.976 10.176 2.992c23.321-12.727 52.74-8.485 71.539 10.314 11.396 11.396 17.672 26.547 17.672 42.663s-6.276 31.269-17.672 42.664l-32.095 32.095-35.205-35.205c-2.929-2.928-7.678-2.928-10.606 0-2.929 2.93-2.929 7.678 0 10.607l37.213 37.212-10.572 31.223c-.549 1.62-1.83 2.142-2.545 2.309-.714.166-2.096.266-3.305-.943l-105.51-105.509c-1.209-1.209-1.11-2.59-.943-3.305s.689-1.996 2.309-2.545l35.637-12.067c1.092-.369 2.083-.985 2.898-1.8l28.344-28.345c2.929-2.93 2.929-7.678 0-10.607-2.929-2.928-7.678-2.928-10.606 0l-27.105 27.106-33.977 11.505c-6.112 2.069-10.638 7.057-12.106 13.341s.38 12.761 4.943 17.324l29.974 29.974c-10.269 12.714-9.501 31.444 2.309 43.255 6.317 6.316 14.614 9.475 22.912 9.475 7.215 0 14.429-2.391 20.342-7.167l29.974 29.974c3.532 3.532 8.21 5.438 13.059 5.438 1.415 0 2.845-.163 4.265-.494 6.284-1.468 11.271-5.993 13.341-12.105l11.506-33.978 36.159-36.159c14.228-14.23 22.064-33.149 22.064-53.272zm-24.402-64.61c3.77-3.771 9.907-3.771 13.677-.001 3.771 3.771 3.771 9.907 0 13.678l-4.95 4.95c-1.964-2.538-4.084-4.98-6.391-7.287s-4.747-4.432-7.291-6.385zm-138.614 152.291c-5.95-5.95-6.68-15.171-2.195-21.927l24.122 24.123c-6.755 4.486-15.977 3.756-21.927-2.196z"/><path d="m297.17 222.347c-2.928 2.93-2.928 7.678.001 10.606l3.863 3.862c1.464 1.465 3.384 2.196 5.303 2.196s3.839-.732 5.304-2.197c2.928-2.93 2.928-7.678-.001-10.606l-3.863-3.862c-2.929-2.93-7.678-2.928-10.607.001z"/><path d="m268.527 105.413c-15.895-1.43-31.286 3.511-43.331 13.891-12.044 10.381-19.195 24.872-20.136 40.804-.244 4.136 2.91 7.686 7.045 7.93.151.009.3.013.449.013 3.94 0 7.245-3.074 7.48-7.059.699-11.846 6.01-22.616 14.955-30.324 8.944-7.71 20.379-11.372 32.201-10.314 4.122.365 7.77-2.676 8.139-6.802s-2.677-7.77-6.802-8.139z"/><path d="m267.958 135.53c-8.336-1.379-16.786.991-23.176 6.499-6.391 5.508-9.981 13.513-9.85 21.963.063 4.103 3.409 7.384 7.497 7.384.04 0 .08 0 .119-.001 4.142-.064 7.447-3.474 7.383-7.615-.062-3.992 1.631-7.771 4.645-10.368 3.013-2.597 6.999-3.711 10.939-3.063 4.086.677 7.947-2.089 8.622-6.177.673-4.087-2.092-7.947-6.179-8.622z"/><path d="m456.434 293.32c-.369-4.125-4.012-7.176-8.139-6.802-4.125.369-7.171 4.013-6.802 8.138 1.058 11.82-2.605 23.257-10.314 32.201-7.708 8.945-18.478 14.256-30.325 14.955-4.135.244-7.289 3.794-7.045 7.93.235 3.984 3.54 7.058 7.48 7.058.148 0 .298-.004.449-.013 15.933-.94 30.424-8.092 40.804-20.137 10.381-12.046 15.315-27.433 13.892-43.33z"/><path d="m398.302 326.919c8.285-.001 16.106-3.576 21.516-9.854 5.508-6.392 7.877-14.839 6.5-23.177-.676-4.087-4.54-6.857-8.622-6.177-4.087.675-6.853 4.535-6.178 8.622.651 3.938-.466 7.926-3.063 10.938-2.597 3.015-6.379 4.686-10.367 4.645-4.105-.039-7.551 3.24-7.615 7.383-.064 4.142 3.241 7.551 7.383 7.615.149.003.297.005.446.005z"/></g></g></svg>