<svg id="Capa_1" enable-background="new 0 0 511.917 511.917" height="512" viewBox="0 0 511.917 511.917" width="512" xmlns="http://www.w3.org/2000/svg"><g><g><path d="m418.002 381.249c0 27.386-22.201 49.587-49.587 49.587h-47.269l-11.912 25.692c-1.775 3.829-7.166 3.974-9.144.245l-13.758-25.937h-229.245c-27.386 0-49.587-22.201-49.587-49.587v-98.118c0-27.386 22.201-49.587 49.587-49.587h156.657 149.188c30.415 0 55.07 24.656 55.07 55.07z" fill="#dff6fd"/><g><path d="m86.796 381.249v-98.118c0-27.386 22.201-49.587 49.587-49.587h-79.296c-27.386 0-49.587 22.201-49.587 49.587v98.118c0 27.386 22.201 49.587 49.587 49.587h79.296c-27.387 0-49.587-22.201-49.587-49.587z" fill="#c8effe"/></g><path d="m418.002 288.615c0-30.414-24.656-55.07-55.07-55.07h-139.188v61.903c0 18.338 14.866 33.204 33.204 33.204h46.353c6.702 0 12.986-1.817 18.39-4.982 5.368-3.144 11.613-4.464 17.741-3.397 2.859.498 5.766.751 8.688.751h69.882z" fill="#c8effe"/><path d="m320.123 289.465 12.334 7.28c4.745 2.801 10.153 4.278 15.663 4.278h89.542 29.691c11.227 0 20.574-9.085 20.375-20.31-.131-7.377-4.269-13.772-10.329-17.112-.447-.247-.736-.706-.736-1.216v-.039c0-.638.439-1.197 1.062-1.334 8.951-1.967 15.65-9.94 15.65-19.481 0-5.84-2.51-11.094-6.509-14.742 8.038-3.101 13.743-10.895 13.743-20.026 0-7.197-3.546-13.562-8.983-17.456 7.581-3.791 12.79-11.623 12.79-20.675 0-12.762-10.345-23.107-23.107-23.107h-47.654c-3.373 0-5.616-3.49-4.214-6.558l5.656-12.383c3.281-7.184 4.98-14.99 4.98-22.888v-25.75c0-3.712-.726-7.388-2.138-10.821-3.655-8.889-12.315-14.692-21.926-14.692h-.049c-6.54 0-12.448 3.904-15.012 9.92l-9.948 23.34-37.46 21.81-6.141 2.61c-8.443 3.588-15.279 10.145-19.215 18.431l-8.067 16.981-38.333 65.428v77.765z" fill="#ffe5c2"/><g><path d="m481.383 266.488c-3.677 3.431-8.63 5.555-14.031 5.555h-29.691-89.541c-5.51 0-10.918-1.477-15.663-4.278l-12.334-7.28-38.333-.749v28.98l38.333.749 12.334 7.28c4.745 2.801 10.153 4.278 15.663 4.278h89.542 29.691c11.228 0 20.574-9.085 20.375-20.311-.1-5.613-2.523-10.661-6.345-14.224z" fill="#fed2a4"/></g><path d="m256.949 308.652h46.352c9.131 0 16.533-7.402 16.533-16.533v-151.804c0-9.131-7.402-16.533-16.533-16.533h-46.352c-7.293 0-13.204 5.912-13.204 13.204v158.46c0 7.294 5.911 13.206 13.204 13.206z" fill="#f37c7c"/><path d="m303.301 270.976h-46.352c-7.292 0-13.204-5.912-13.204-13.205v37.676c0 7.293 5.912 13.204 13.204 13.204h46.352c9.131 0 16.533-7.402 16.244-17.686v-37.676c.289 10.284-7.113 17.687-16.244 17.687z" fill="#ee6161"/></g><g><path d="m418.002 323.523c-4.143 0-7.5 3.357-7.5 7.5v50.226c0 23.207-18.88 42.087-42.087 42.087h-47.269c-2.921 0-5.576 1.695-6.805 4.346l-9.882 21.318-11.499-21.679c-1.301-2.452-3.85-3.985-6.626-3.985h-64.437c-4.143 0-7.5 3.357-7.5 7.5s3.357 7.5 7.5 7.5h59.925l11.644 21.951c2.205 4.155 6.445 6.699 11.127 6.699.115 0 .231-.002.347-.005 4.819-.129 9.072-2.926 11.101-7.3l9.896-21.346h42.479c31.478 0 57.087-25.609 57.087-57.087v-50.226c-.001-4.141-3.358-7.499-7.501-7.499z"/><path d="m189.935 423.336h-132.848c-23.207 0-42.087-18.88-42.087-42.087v-98.117c0-23.207 18.88-42.088 42.087-42.088h156.657c4.143 0 7.5-3.357 7.5-7.5s-3.357-7.5-7.5-7.5h-156.657c-31.478 0-57.087 25.609-57.087 57.088v98.117c0 31.478 25.609 57.087 57.087 57.087h132.848c4.143 0 7.5-3.357 7.5-7.5s-3.358-7.5-7.5-7.5z"/><path d="m508.109 206.761c0-5.945-1.845-11.683-5.153-16.469 5.669-5.639 8.961-13.353 8.961-21.662 0-16.877-13.73-30.607-30.607-30.607h-43.192l3.803-8.324c3.754-8.22 5.657-16.969 5.657-26.004v-25.752c0-4.715-.909-9.315-2.701-13.673-4.83-11.749-16.159-19.34-28.911-19.34-9.561 0-18.161 5.684-21.911 14.479l-8.973 21.051-34.902 20.321-5.708 2.426c-9.972 4.238-18.048 11.907-22.809 21.625-4.412-5.224-11.004-8.55-18.361-8.55h-46.352c-11.417 0-20.705 9.288-20.705 20.705v158.46c0 11.416 9.288 20.704 20.705 20.704h46.352c9.985 0 18.565-6.123 22.19-14.81l3.154 1.861c5.894 3.48 12.628 5.319 19.476 5.319h23.037c4.143 0 7.5-3.357 7.5-7.5s-3.357-7.5-7.5-7.5h-23.039c-4.167 0-8.265-1.119-11.851-3.236l-8.936-5.274v-92.304c0-4.143-3.357-7.5-7.5-7.5s-7.5 3.357-7.5 7.5v99.41c0 4.98-4.053 9.033-9.033 9.033h-46.352c-3.146 0-5.705-2.559-5.705-5.704v-158.46c0-3.146 2.56-5.705 5.705-5.705h46.352c4.98 0 9.033 4.053 9.033 9.033v20.43c0 4.143 3.357 7.5 7.5 7.5s7.5-3.357 7.5-7.5v-12.924l7.63-16.063c3.151-6.636 8.611-11.872 15.374-14.746l6.141-2.609c.288-.122.569-.263.84-.421l37.46-21.811c1.396-.813 2.492-2.055 3.126-3.541l9.948-23.339c1.389-3.257 4.572-5.361 8.161-5.361 6.598 0 12.48 3.942 14.989 10.044 1.045 2.54 1.574 5.221 1.574 7.969v25.751c0 6.87-1.447 13.522-4.302 19.771l-5.656 12.383c-1.724 3.773-1.413 8.11.83 11.6 2.242 3.49 6.059 5.574 10.207 5.574h47.653c8.606 0 15.607 7.001 15.607 15.607 0 5.949-3.313 11.302-8.645 13.968-2.351 1.176-3.915 3.496-4.122 6.116-.207 2.621.973 5.158 3.109 6.688 3.663 2.624 5.85 6.87 5.85 11.358 0 5.729-3.594 10.966-8.943 13.03-2.424.936-4.191 3.059-4.671 5.612s.396 5.174 2.316 6.926c2.621 2.391 4.064 5.658 4.064 9.2 0 5.801-4.104 10.913-9.758 12.156-4.03.884-6.955 4.525-6.955 8.698 0 3.229 1.766 6.211 4.615 7.785 3.9 2.149 6.372 6.24 6.45 10.676.059 3.268-1.201 6.381-3.546 8.768-2.441 2.485-5.842 3.91-9.33 3.91h-64.233c-4.143 0-7.5 3.357-7.5 7.5s3.357 7.5 7.5 7.5h64.233c7.486 0 14.787-3.061 20.03-8.397 5.188-5.281 7.974-12.223 7.844-19.546-.109-6.133-2.286-11.965-6.008-16.629 7.102-5.043 11.657-13.351 11.657-22.421 0-4.433-1.082-8.765-3.088-12.633 6.4-5.418 10.325-13.505 10.325-22.132z"/><path d="m195.313 308.523c4.143 0 7.5-3.357 7.5-7.5s-3.357-7.5-7.5-7.5h-77.826c-4.143 0-7.5 3.357-7.5 7.5s3.357 7.5 7.5 7.5z"/><path d="m61.507 308.523h23.893c4.143 0 7.5-3.357 7.5-7.5s-3.357-7.5-7.5-7.5h-23.893c-4.143 0-7.5 3.357-7.5 7.5s3.357 7.5 7.5 7.5z"/><path d="m61.507 364.415h308.574c4.143 0 7.5-3.357 7.5-7.5s-3.357-7.5-7.5-7.5h-308.574c-4.143 0-7.5 3.357-7.5 7.5s3.357 7.5 7.5 7.5z"/></g></g></svg>