<svg id="Capa_1" enable-background="new 0 0 512.374 512.374" height="512" viewBox="0 0 512.374 512.374" width="512" xmlns="http://www.w3.org/2000/svg"><g><g><path d="m330.323 192.151h-35.296v-65.959c0-9.205 7.462-16.668 16.668-16.668h1.96c9.205 0 16.668 7.462 16.668 16.668z" fill="#fee97d"/><path d="m271.861 420.732-1.132 23.979v9.351c0 21.879 17.737 39.616 39.616 39.616h4.658c21.88 0 39.616-17.737 39.616-39.616v-9.351-23.979z" fill="#fee97d"/><g><g id="XMLID_283_"><g><path d="m390.323 204.316c-19.87-19.87-47.33-32.16-77.65-32.16-60.65 0-109.81 49.16-109.81 109.81v124.12l10.53 16.573h202.314l6.786-16.573v-124.12c0-30.32-12.29-57.78-32.17-77.65z" fill="#fee97d"/></g></g><path d="m341.587 258.07c0 46.9 35.416 85.678 80.906 91.011v-67.116c0-30.32-12.29-57.78-32.17-77.65-5.477-5.477-11.532-10.374-18.063-14.6-18.809 16.796-30.673 41.215-30.673 68.355z" fill="#fee45a"/><circle cx="433.23" cy="258.07" fill="#f37c7c" r="71.644"/><path d="m401.12 258.07c0-32.708 21.962-60.289 51.912-68.872-6.281-1.8-12.942-2.772-19.802-2.772-39.568 0-71.644 32.076-71.644 71.644 0 39.567 32.076 71.644 71.644 71.644 6.86 0 13.536-.98 19.817-2.78-29.95-8.583-51.927-36.156-51.927-68.864z" fill="#ee6161"/><path d="m194.18 18.696h-159.611c-14.95 0-27.069 12.119-27.069 27.069v103.285c0 14.95 12.119 27.069 27.069 27.069h94.593l19.272 19.272c2.943 2.943 7.714 2.943 10.657 0l15.573-15.573 3.699-3.699h15.816c14.95 0 27.069-12.119 27.069-27.069v-103.285c.001-14.95-12.118-27.069-27.068-27.069z" fill="#dff6fd"/><g><path d="m63.176 153.262v-116.153c0-6.921 2.057-13.3 5.517-18.413h-34.124c-14.95 0-27.069 12.119-27.069 27.069v103.285c0 14.95 12.119 27.069 27.069 27.069h37.807c-5.638-5.578-9.2-13.747-9.2-22.857z" fill="#c8effe"/></g></g><path d="m259.292 406.086v-124.12c0-50.895 34.62-93.692 81.595-106.145-9.004-2.387-18.46-3.666-28.214-3.666-60.65 0-109.81 49.16-109.81 109.81v124.12l10.53 16.573h31.453z" fill="#fee45a"/><path d="m440.553 426.816c6.09 6.99 1.13 17.9-8.14 17.9h-239.47c-9.27 0-14.24-10.91-8.15-17.9l18.07-20.73h219.63z" fill="#fee45a"/><path d="m241.222 426.815 18.07-20.729h-56.429l-18.07 20.729c-6.09 6.99-1.12 17.9 8.15 17.9h56.426c-9.268-.002-14.236-10.91-8.147-17.9z" fill="#fedf30"/></g><g><path d="m429.988 403.277v-44.131c0-4.143-3.357-7.5-7.5-7.5s-7.5 3.357-7.5 7.5v39.44h-29.658c-4.143 0-7.5 3.357-7.5 7.5s3.357 7.5 7.5 7.5h33.747l15.823 18.153c1.215 1.394.846 2.814.517 3.536-.328.723-1.156 1.935-3.005 1.935h-239.473c-1.85 0-2.677-1.212-3.006-1.935-.328-.723-.698-2.142.518-3.536l15.823-18.153h144.075c4.143 0 7.5-3.357 7.5-7.5s-3.357-7.5-7.5-7.5h-139.988v-24.806c0-4.143-3.357-7.5-7.5-7.5s-7.5 3.357-7.5 7.5v29.496l-16.218 18.606c-4.775 5.478-5.872 12.989-2.863 19.604s9.393 10.724 16.659 10.724h70.29v1.851c0 25.98 21.136 47.117 47.116 47.117h4.659c25.979 0 47.116-21.137 47.116-47.117v-1.851h70.29c7.267 0 13.649-4.108 16.658-10.723s1.913-14.126-2.862-19.604zm-82.867 50.785c0 17.709-14.407 32.117-32.116 32.117h-4.659c-17.709 0-32.116-14.408-32.116-32.117v-1.851h68.892v1.851z"/><path d="m195.361 281.965v59.854c0 4.143 3.357 7.5 7.5 7.5s7.5-3.357 7.5-7.5v-59.854c0-56.416 45.898-102.314 102.314-102.314 16.602 0 32.442 3.855 47.082 11.459 3.677 1.906 8.203.478 10.113-3.199 1.909-3.676.477-8.204-3.199-10.113-9.091-4.721-18.82-8.212-28.849-10.408v-41.196c0-13.326-10.842-24.168-24.168-24.168h-1.96c-13.326 0-24.168 10.842-24.168 24.168v41.181c-52.641 11.542-92.165 58.533-92.165 114.59zm107.166-155.773c0-5.056 4.112-9.168 9.168-9.168h1.96c5.056 0 9.168 4.112 9.168 9.168v38.905c-3.372-.294-6.759-.447-10.148-.447-3.419 0-6.802.156-10.147.444v-38.902z"/><path d="m433.23 178.927c-43.64 0-79.144 35.504-79.144 79.144 0 8.682 1.419 17.257 4.218 25.486 1.334 3.922 5.593 6.021 9.516 4.686 3.921-1.334 6.02-5.594 4.686-9.516-2.269-6.671-3.419-13.621-3.419-20.656 0-35.369 28.774-64.144 64.144-64.144s64.144 28.774 64.144 64.144-28.774 64.144-64.144 64.144c-17.268 0-33.468-6.77-45.617-19.063-2.91-2.945-7.659-2.974-10.606-.062-2.945 2.911-2.974 7.66-.062 10.606 14.988 15.165 34.978 23.518 56.285 23.518 43.64 0 79.144-35.504 79.144-79.144s-35.505-79.143-79.145-79.143z"/><path d="m411.944 292.188c4.143 0 7.5-3.357 7.5-7.5v-47.132c0-4.143-3.357-7.5-7.5-7.5h-12.115c-4.143 0-7.5 3.357-7.5 7.5s3.357 7.5 7.5 7.5h4.615v39.632c0 4.142 3.358 7.5 7.5 7.5z"/><path d="m456.015 233.369c-4.143 0-7.5 3.357-7.5 7.5v8.238h-8.238c-4.143 0-7.5 3.357-7.5 7.5s3.357 7.5 7.5 7.5h8.238v8.238c0 4.143 3.357 7.5 7.5 7.5s7.5-3.357 7.5-7.5v-8.238h8.238c4.143 0 7.5-3.357 7.5-7.5s-3.357-7.5-7.5-7.5h-8.238v-8.238c0-4.142-3.358-7.5-7.5-7.5z"/><path d="m194.18 183.619c19.062 0 34.569-15.507 34.569-34.568v-103.286c0-19.062-15.508-34.569-34.569-34.569h-159.611c-19.061-.001-34.569 15.507-34.569 34.569v103.286c0 19.062 15.508 34.568 34.569 34.568h17.929c4.143 0 7.5-3.357 7.5-7.5s-3.357-7.5-7.5-7.5h-17.929c-10.791 0-19.569-8.778-19.569-19.568v-103.286c0-10.791 8.778-19.569 19.569-19.569h159.61c10.791 0 19.569 8.778 19.569 19.569v103.286c0 10.79-8.778 19.568-19.569 19.568h-15.815c-1.989 0-3.896.79-5.304 2.196l-19.322 19.272-19.272-19.272c-1.407-1.406-3.314-2.196-5.304-2.196h-44.702c-4.143 0-7.5 3.357-7.5 7.5s3.357 7.5 7.5 7.5h41.596l17.075 17.076c2.932 2.931 6.781 4.396 10.632 4.396 3.85 0 7.701-1.465 10.633-4.396l17.075-17.076z"/><path d="m188.502 58.068h-142.382c-4.143 0-7.5 3.357-7.5 7.5s3.357 7.5 7.5 7.5h142.382c4.143 0 7.5-3.357 7.5-7.5s-3.357-7.5-7.5-7.5z"/><path d="m46.12 107.454h142.382c4.143 0 7.5-3.357 7.5-7.5s-3.357-7.5-7.5-7.5h-142.382c-4.143 0-7.5 3.357-7.5 7.5s3.358 7.5 7.5 7.5z"/><path d="m46.12 141.841h142.382c4.143 0 7.5-3.357 7.5-7.5s-3.357-7.5-7.5-7.5h-142.382c-4.143 0-7.5 3.357-7.5 7.5s3.358 7.5 7.5 7.5z"/></g></g></svg>