<svg id="Capa_1" enable-background="new 0 0 510.872 510.872" height="512" viewBox="0 0 510.872 510.872" width="512" xmlns="http://www.w3.org/2000/svg"><g><g><path d="m480.708 230.04h-450.38c-12.52 0-22.66 10.15-22.66 22.66v14.75l21.875 45.564h449.317l24.508-45.564v-14.75c0-12.51-10.14-22.66-22.66-22.66z" fill="#5f99d7"/><path d="m86.947 252.7c0-12.51 10.14-22.66 22.66-22.66h-79.28c-12.52 0-22.66 10.15-22.66 22.66v14.75l21.875 45.564h56.104z" fill="#3c87d0"/><g id="XMLID_284_"><g><path d="m503.368 267.45v170.73c0 12.51-10.14 22.66-22.66 22.66h-450.38c-12.52 0-22.66-10.15-22.66-22.66v-170.73z" fill="#c8effe"/></g></g><path d="m109.607 460.84c-12.52 0-26.66-10.15-26.66-22.66l3.682-170.73h-78.961v170.73c0 12.51 10.14 22.66 22.66 22.66h450.38.007z" fill="#99e6fc"/><path d="m473.161 50.031h-435.45c-16.685 0-30.21 13.526-30.21 30.21v58.156c0 16.685 13.526 30.211 30.211 30.211h192.013l18.706 18.706c3.914 3.914 10.26 3.914 14.174 0l18.706-18.706h191.849c16.685 0 30.211-13.526 30.211-30.211v-58.155c0-16.685-13.525-30.211-30.21-30.211z" fill="#dff6fd"/><g><path d="m84.741 138.398v-58.156c0-16.685 13.526-30.21 30.21-30.21h-77.24c-16.685 0-30.21 13.526-30.21 30.21v58.156c0 16.685 13.526 30.211 30.211 30.211h77.241c-16.686 0-30.212-13.526-30.212-30.211z" fill="#c8effe"/></g></g><g><path d="m480.712 222.54h-48.518c-4.142 0-7.5 3.357-7.5 7.5s3.358 7.5 7.5 7.5h48.518c8.359 0 15.16 6.801 15.16 15.16v7.249h-480.708v-7.249c0-8.359 6.801-15.16 15.16-15.16h369.909c4.142 0 7.5-3.357 7.5-7.5s-3.358-7.5-7.5-7.5h-369.91c-16.63 0-30.16 13.53-30.16 30.16v185.48c0 16.63 13.53 30.159 30.16 30.159h450.389c16.63 0 30.16-13.529 30.16-30.159v-185.48c0-16.63-13.53-30.16-30.16-30.16zm0 230.8h-450.389c-8.359 0-15.16-6.801-15.16-15.159v-163.232h480.708v163.231c.001 8.359-6.8 15.16-15.159 15.16z"/><path d="m424.528 413.097h-335.748c-4.142 0-7.5 3.357-7.5 7.5s3.358 7.5 7.5 7.5h335.749c4.142 0 7.5-3.357 7.5-7.5s-3.359-7.5-7.501-7.5z"/><path d="m58.197 413.097h-8.944c-4.142 0-7.5 3.357-7.5 7.5s3.358 7.5 7.5 7.5h8.944c4.142 0 7.5-3.357 7.5-7.5s-3.358-7.5-7.5-7.5z"/><path d="m47.253 311.357h8.944c4.142 0 7.5-3.357 7.5-7.5s-3.358-7.5-7.5-7.5h-8.944c-4.142 0-7.5 3.357-7.5 7.5s3.358 7.5 7.5 7.5z"/><path d="m92.498 311.357h8.943c4.142 0 7.5-3.357 7.5-7.5s-3.358-7.5-7.5-7.5h-8.943c-4.142 0-7.5 3.357-7.5 7.5s3.358 7.5 7.5 7.5z"/><path d="m84.741 337.755c0-4.143-3.358-7.5-7.5-7.5h-8.944c-4.142 0-7.5 3.357-7.5 7.5s3.358 7.5 7.5 7.5h8.944c4.142 0 7.5-3.358 7.5-7.5z"/><path d="m106.464 337.755c0 4.143 3.358 7.5 7.5 7.5h8.944c4.142 0 7.5-3.357 7.5-7.5s-3.358-7.5-7.5-7.5h-8.944c-4.142 0-7.5 3.357-7.5 7.5z"/><path d="m159.63 345.255h8.944c4.142 0 7.5-3.357 7.5-7.5s-3.358-7.5-7.5-7.5h-8.944c-4.142 0-7.5 3.357-7.5 7.5s3.358 7.5 7.5 7.5z"/><path d="m205.297 345.255h8.943c4.142 0 7.5-3.357 7.5-7.5s-3.358-7.5-7.5-7.5h-8.943c-4.142 0-7.5 3.357-7.5 7.5s3.358 7.5 7.5 7.5z"/><path d="m250.964 345.255h8.944c4.142 0 7.5-3.357 7.5-7.5s-3.358-7.5-7.5-7.5h-8.944c-4.142 0-7.5 3.357-7.5 7.5s3.358 7.5 7.5 7.5z"/><path d="m296.63 345.255h8.944c4.142 0 7.5-3.357 7.5-7.5s-3.358-7.5-7.5-7.5h-8.944c-4.142 0-7.5 3.357-7.5 7.5s3.358 7.5 7.5 7.5z"/><path d="m342.297 345.255h8.944c4.142 0 7.5-3.357 7.5-7.5s-3.358-7.5-7.5-7.5h-8.944c-4.142 0-7.5 3.357-7.5 7.5s3.358 7.5 7.5 7.5z"/><path d="m387.964 345.255h8.944c4.142 0 7.5-3.357 7.5-7.5s-3.358-7.5-7.5-7.5h-8.944c-4.142 0-7.5 3.357-7.5 7.5s3.358 7.5 7.5 7.5z"/><path d="m450.075 337.755c0-4.143-3.358-7.5-7.5-7.5h-8.944c-4.142 0-7.5 3.357-7.5 7.5s3.358 7.5 7.5 7.5h8.944c4.142 0 7.5-3.358 7.5-7.5z"/><path d="m137.743 311.357h8.944c4.142 0 7.5-3.357 7.5-7.5s-3.358-7.5-7.5-7.5h-8.944c-4.142 0-7.5 3.357-7.5 7.5s3.358 7.5 7.5 7.5z"/><path d="m182.988 311.357h8.944c4.142 0 7.5-3.357 7.5-7.5s-3.358-7.5-7.5-7.5h-8.944c-4.142 0-7.5 3.357-7.5 7.5s3.358 7.5 7.5 7.5z"/><path d="m228.233 311.357h8.944c4.142 0 7.5-3.357 7.5-7.5s-3.358-7.5-7.5-7.5h-8.944c-4.142 0-7.5 3.357-7.5 7.5s3.358 7.5 7.5 7.5z"/><path d="m273.478 311.357h8.944c4.142 0 7.5-3.357 7.5-7.5s-3.358-7.5-7.5-7.5h-8.944c-4.142 0-7.5 3.357-7.5 7.5s3.358 7.5 7.5 7.5z"/><path d="m318.723 311.357h8.944c4.142 0 7.5-3.357 7.5-7.5s-3.358-7.5-7.5-7.5h-8.944c-4.142 0-7.5 3.357-7.5 7.5s3.358 7.5 7.5 7.5z"/><path d="m363.968 311.357h8.944c4.142 0 7.5-3.357 7.5-7.5s-3.358-7.5-7.5-7.5h-8.944c-4.142 0-7.5 3.357-7.5 7.5s3.358 7.5 7.5 7.5z"/><path d="m409.213 311.357h8.944c4.142 0 7.5-3.357 7.5-7.5s-3.358-7.5-7.5-7.5h-8.944c-4.142 0-7.5 3.357-7.5 7.5s3.358 7.5 7.5 7.5z"/><path d="m463.402 296.357h-8.944c-4.142 0-7.5 3.357-7.5 7.5s3.358 7.5 7.5 7.5h8.944c4.142 0 7.5-3.357 7.5-7.5s-3.358-7.5-7.5-7.5z"/><path d="m47.253 379.151h8.944c4.142 0 7.5-3.357 7.5-7.5s-3.358-7.5-7.5-7.5h-8.944c-4.142 0-7.5 3.357-7.5 7.5s3.358 7.5 7.5 7.5z"/><path d="m92.498 379.151h8.943c4.142 0 7.5-3.357 7.5-7.5s-3.358-7.5-7.5-7.5h-8.943c-4.142 0-7.5 3.357-7.5 7.5s3.358 7.5 7.5 7.5z"/><path d="m146.687 364.151h-8.944c-4.142 0-7.5 3.357-7.5 7.5s3.358 7.5 7.5 7.5h8.944c4.142 0 7.5-3.357 7.5-7.5s-3.358-7.5-7.5-7.5z"/><path d="m191.932 364.151h-8.944c-4.142 0-7.5 3.357-7.5 7.5s3.358 7.5 7.5 7.5h8.944c4.142 0 7.5-3.357 7.5-7.5s-3.358-7.5-7.5-7.5z"/><path d="m237.177 364.151h-8.944c-4.142 0-7.5 3.357-7.5 7.5s3.358 7.5 7.5 7.5h8.944c4.142 0 7.5-3.357 7.5-7.5s-3.358-7.5-7.5-7.5z"/><path d="m282.422 364.151h-8.944c-4.142 0-7.5 3.357-7.5 7.5s3.358 7.5 7.5 7.5h8.944c4.142 0 7.5-3.357 7.5-7.5s-3.358-7.5-7.5-7.5z"/><path d="m327.667 364.151h-8.944c-4.142 0-7.5 3.357-7.5 7.5s3.358 7.5 7.5 7.5h8.944c4.142 0 7.5-3.357 7.5-7.5s-3.358-7.5-7.5-7.5z"/><path d="m372.912 364.151h-8.944c-4.142 0-7.5 3.357-7.5 7.5s3.358 7.5 7.5 7.5h8.944c4.142 0 7.5-3.357 7.5-7.5s-3.358-7.5-7.5-7.5z"/><path d="m418.157 364.151h-8.944c-4.142 0-7.5 3.357-7.5 7.5s3.358 7.5 7.5 7.5h8.944c4.142 0 7.5-3.357 7.5-7.5s-3.358-7.5-7.5-7.5z"/><path d="m463.402 364.151h-8.944c-4.142 0-7.5 3.357-7.5 7.5s3.358 7.5 7.5 7.5h8.944c4.142 0 7.5-3.357 7.5-7.5s-3.358-7.5-7.5-7.5z"/><path d="m462.782 413.097h-8.944c-4.142 0-7.5 3.357-7.5 7.5s3.358 7.5 7.5 7.5h8.944c4.142 0 7.5-3.357 7.5-7.5s-3.358-7.5-7.5-7.5z"/><path d="m473.161 42.532h-338.744c-4.142 0-7.5 3.357-7.5 7.5s3.358 7.5 7.5 7.5h338.744c12.522 0 22.71 10.188 22.71 22.71v58.156c0 12.522-10.188 22.711-22.711 22.711h-191.85c-1.989 0-3.897.79-5.303 2.196l-18.707 18.706c-.643.644-1.394.739-1.784.739s-1.141-.096-1.784-.739l-18.707-18.706c-1.407-1.406-3.314-2.196-5.303-2.196h-192.011c-12.523 0-22.711-10.188-22.711-22.711v-58.156c0-12.522 10.188-22.71 22.71-22.71h64.744c4.142 0 7.5-3.357 7.5-7.5s-3.358-7.5-7.5-7.5h-64.744c-20.793 0-37.71 16.917-37.71 37.71v58.156c0 20.794 16.917 37.711 37.711 37.711h188.907l16.51 16.51c3.417 3.416 7.902 5.124 12.39 5.124 4.487-.001 8.975-1.709 12.39-5.124l16.51-16.51h188.743c20.794 0 37.711-16.917 37.711-37.711v-58.156c0-20.793-16.917-37.71-37.711-37.71z"/><path d="m87.733 109.875c0 4.143 3.358 7.5 7.5 7.5h320.98c4.142 0 7.5-3.357 7.5-7.5s-3.358-7.5-7.5-7.5h-320.98c-4.142 0-7.5 3.357-7.5 7.5z"/></g></g></svg>