<svg id="Capa_1" enable-background="new 0 0 512.075 512.075" height="512" viewBox="0 0 512.075 512.075" width="512" xmlns="http://www.w3.org/2000/svg"><g><g><path d="m431.638 418.002c0 19.818-16.065 35.883-35.883 35.883h-352.372c-19.818 0-35.883-16.065-35.883-35.883v-237.78c0-19.818 16.066-35.883 35.883-35.883h356.284c17.657 0 31.971 14.314 31.971 31.971z" fill="#5f99d7"/><path d="m92.471 418.003v-237.781c0-19.818 16.065-35.883 35.883-35.883h-84.971c-19.818 0-35.883 16.065-35.883 35.883v237.781c0 19.817 16.065 35.883 35.883 35.883h84.971c-19.817-.001-35.883-16.066-35.883-35.883z" fill="#3c87d0"/><path d="m399.667 144.339h-99.083c-.103 1.962-.157 3.938-.157 5.925 0 39.162 20.195 73.69 50.713 93.736v44.728c0 7.214 2.855 13.935 8.04 18.925 4.937 4.75 11.417 7.366 18.248 7.365 4.22 0 8.439-1.042 12.195-3.013l22.878-11.99 19.138 10.03v-133.735c-.001-17.657-14.315-31.971-31.972-31.971z" fill="#3c87d0"/><path d="m384.522 417.886h-329.904c-6.14 0-11.117-4.977-11.117-11.117l-.001-215.312c0-6.14 4.977-11.117 11.117-11.117h329.905c6.14 0 11.117 4.977 11.117 11.117v215.313c0 6.139-4.977 11.116-11.117 11.116z" fill="#dff6fd"/><path d="m54.617 180.34c-6.14 0-11.117 4.977-11.117 11.117l.001 215.313c0 6.14 4.977 11.117 11.117 11.117h37.854v-237.547z" fill="#c8effe"/><path d="m395.639 308.852v-117.396c0-6.14-4.977-11.117-11.117-11.117h-79.981c7.373 26.425 24.199 48.947 46.599 63.66v44.728c0 7.214 2.855 13.935 8.04 18.925 4.937 4.75 11.417 7.366 18.248 7.365 4.22 0 8.439-1.042 12.195-3.013z" fill="#c8effe"/><path d="m180.997 337.398v-76.571c0-9.701 10.842-15.459 18.879-10.028l56.654 38.286c7.102 4.799 7.102 15.256 0 20.055l-56.654 38.286c-8.038 5.431-18.879-.327-18.879-10.028z" fill="#99e6fc"/><path d="m453.862 288.728c0 4.723-5.015 7.756-9.198 5.564l-32.163-16.858-32.163 16.858c-4.183 2.192-9.198-.841-9.198-5.564v-112.841h82.722z" fill="#f37c7c"/><path d="m371.14 229.006v59.722c0 4.722 5.015 7.756 9.198 5.564l17.599-9.224v-8.473c0-7.937 6.48-14.267 14.416-14.256h.148c14.601 0 28.557-2.81 41.361-7.912v-25.42h-82.722z" fill="#ee6161"/><circle cx="412.501" cy="150.264" fill="#fee97d" r="92.074"/><path d="m368.04 150.264c0-42.618 28.976-78.469 68.286-88.962-7.594-2.027-15.591-3.112-23.825-3.112-50.851 0-92.074 41.223-92.074 92.074s41.223 92.074 92.074 92.074c8.233 0 16.235-1.087 23.83-3.113-39.311-10.495-68.291-46.344-68.291-88.961z" fill="#fee45a"/><path d="m410.057 183.502-19.621 7.444c-5.667 2.15-11.148-3.538-8.79-9.121l5.318-12.592c1.062-2.516.539-5.421-1.335-7.408l-12.605-13.363c-3.62-3.837-1.76-10.152 3.361-11.416l18.167-4.483c2.049-.506 3.753-1.923 4.624-3.845l7.05-15.557c2.445-5.394 10.105-5.394 12.55 0l7.05 15.557c.871 1.922 2.575 3.339 4.625 3.845l18.167 4.483c5.121 1.264 6.981 7.579 3.361 11.416l-12.605 13.363c-1.874 1.986-2.398 4.892-1.335 7.408l5.318 12.592c2.358 5.583-3.124 11.271-8.79 9.121l-19.621-7.444c-1.576-.597-3.314-.597-4.889 0z" fill="#fedf30"/></g><g><path d="m431.639 313.799c-4.142 0-7.5 3.357-7.5 7.5v96.703c0 15.65-12.733 28.383-28.383 28.383h-352.373c-15.65 0-28.383-12.732-28.383-28.383v-237.78c0-15.65 12.732-28.384 28.383-28.384h247.19c4.142 0 7.5-3.357 7.5-7.5s-3.358-7.5-7.5-7.5h-247.19c-23.922 0-43.383 19.462-43.383 43.384v237.78c0 23.921 19.461 43.383 43.383 43.383h352.373c23.921 0 43.383-19.462 43.383-43.383v-96.703c0-4.143-3.358-7.5-7.5-7.5z"/><path d="m43.5 172.84c-1.989 0-3.897.79-5.303 2.196-1.407 1.408-2.197 3.315-2.197 5.304l.001 237.546c0 4.143 3.358 7.5 7.5 7.5h49.832c4.142 0 7.5-3.357 7.5-7.5s-3.358-7.5-7.5-7.5h-42.332l-.001-222.546h243.18c4.142 0 7.5-3.357 7.5-7.5s-3.358-7.5-7.5-7.5z"/><path d="m117.795 417.886c0 4.143 3.358 7.5 7.5 7.5h270.343c1.989 0 3.897-.79 5.303-2.196 1.407-1.407 2.197-3.314 2.197-5.304v-97.743c0-4.143-3.358-7.5-7.5-7.5s-7.5 3.357-7.5 7.5v90.243h-262.843c-4.142 0-7.5 3.357-7.5 7.5z"/><path d="m190.94 256.762c.734-.391 2.666-1.148 4.736.251l13.712 9.267c3.431 2.319 8.094 1.417 10.414-2.015 2.319-3.432 1.417-8.094-2.015-10.413l-13.712-9.267c-6.022-4.07-13.752-4.479-20.171-1.071-6.419 3.41-10.407 10.044-10.407 17.313v76.571c0 7.269 3.988 13.902 10.408 17.313 2.893 1.536 6.05 2.297 9.199 2.297 3.838 0 7.663-1.131 10.971-3.367l56.654-38.286c5.402-3.651 8.627-9.724 8.626-16.243s-3.225-12.591-8.627-16.24c-3.433-2.319-8.094-1.417-10.414 2.015-2.319 3.432-1.417 8.095 2.015 10.413 1.828 1.235 2.025 3.078 2.025 3.813s-.197 2.578-2.025 3.814l-56.654 38.286c-2.069 1.397-4.002.642-4.735.251-.735-.391-2.444-1.568-2.444-4.065v-76.571c.001-2.499 1.71-3.676 2.444-4.066z"/><path d="m512.075 150.264c0-54.905-44.668-99.574-99.574-99.574s-99.574 44.669-99.574 99.574c0 16.78 4.26 33.379 12.32 48.001 2 3.629 6.561 4.948 10.189 2.948 3.627-2 4.947-6.562 2.948-10.188-6.841-12.411-10.457-26.506-10.457-40.761 0-46.635 37.939-84.574 84.574-84.574s84.574 37.939 84.574 84.574-37.939 84.574-84.574 84.574c-20.489 0-40.257-7.424-55.662-20.904-3.117-2.728-7.856-2.413-10.583.706-2.728 3.117-2.412 7.855.705 10.583 5.172 4.525 10.772 8.449 16.679 11.778v51.727c0 4.866 2.486 9.275 6.65 11.793 2.206 1.334 4.662 2.005 7.125 2.005 2.187 0 4.379-.529 6.405-1.592l28.681-15.032 28.68 15.032c4.309 2.259 9.368 2.105 13.532-.413s6.649-6.927 6.649-11.793v-51.729c30.248-17.108 50.713-49.574 50.713-86.735zm-65.713 136.45-30.379-15.923c-2.181-1.143-4.783-1.143-6.964 0l-30.379 15.923v-42.827c10.77 3.895 22.213 5.951 33.861 5.951 11.883 0 23.286-2.096 33.861-5.932z"/><path d="m460.771 139.671c-1.461-4.964-5.333-8.667-10.356-9.906l-17.879-4.412-6.928-15.287c-2.362-5.212-7.384-8.449-13.106-8.449s-10.744 3.237-13.106 8.449l-6.928 15.287-17.88 4.412c-5.023 1.239-8.895 4.942-10.356 9.906s-.214 10.174 3.336 13.938l12.332 13.073-5.163 12.225c-2.244 5.313-1.107 11.431 2.895 15.583 4.002 4.153 10.071 5.514 15.465 3.47l19.404-7.362 19.405 7.362c1.665.632 3.395.938 5.108.938 3.836 0 7.59-1.537 10.356-4.408 4.002-4.152 5.138-10.27 2.895-15.583l-5.163-12.225 12.332-13.073c3.551-3.764 4.798-8.974 3.337-13.938zm-26.854 17.008c-3.912 4.147-5.006 10.221-2.788 15.472l4.763 11.277-18.286-6.938c-1.646-.625-3.375-.938-5.105-.938s-3.459.313-5.105.938l-18.286 6.938 4.762-11.277c2.218-5.251 1.124-11.324-2.789-15.472l-11.887-12.602 17.152-4.232c4.307-1.063 7.827-3.99 9.658-8.03l6.494-14.33 6.494 14.33c1.831 4.04 5.351 6.967 9.659 8.03l17.151 4.232z"/></g></g></svg>