<svg id="Capa_1" enable-background="new 0 0 511.125 511.125" height="512" viewBox="0 0 511.125 511.125" width="512" xmlns="http://www.w3.org/2000/svg"><g><g><path d="m479.19 181.009v290.005h-447.255v-315.314c0-13.17 10.676-23.846 23.846-23.846h261.187 139.596c12.496 0 22.627 10.13 22.627 22.627v26.528z" fill="#5f99d7"/><path d="m136.084 131.854h-80.303c-13.17 0-23.846 10.676-23.846 23.846v315.314h80.303v-315.314c0-13.169 10.676-23.846 23.846-23.846z" fill="#3c87d0"/><g><path d="m476.68 490.627h-442.235c-14.881 0-26.945-12.064-26.945-26.945v-6.258c0-2.436 1.974-4.41 4.41-4.41h487.305c2.436 0 4.41 1.974 4.41 4.41v6.258c0 14.882-12.064 26.945-26.945 26.945z" fill="#7bacdf"/><path d="m94.671 463.683v-6.258c0-2.436 1.974-4.41 4.41-4.41h-87.171c-2.436 0-4.41 1.975-4.41 4.41v6.258c0 14.881 12.064 26.945 26.945 26.945h87.17c-14.881-.001-26.944-12.064-26.944-26.945z" fill="#5f99d7"/><path d="m479.19 154.481c0-12.497-10.13-22.627-22.627-22.627h-129.531c-1.973 15.322 2.9 31.366 14.643 43.11l42.715 42.715c5.882 5.881 13.702 9.12 22.02 9.12s16.139-3.239 22.021-9.12l42.715-42.715c3.155-3.155 5.842-6.651 8.045-10.398v-10.085z" fill="#3c87d0"/><path d="m439.196 423.015h-367.267c-5.52 0-9.995-4.475-9.995-9.995v-241.17c0-5.52 4.475-9.995 9.995-9.995h367.267c5.52 0 9.995 4.475 9.995 9.995v241.17c-.001 5.52-4.475 9.995-9.995 9.995z" fill="#dff6fd"/><path d="m449.19 171.85c0-5.52-4.475-9.995-9.995-9.995h-107.012c2.395 4.726 5.546 9.164 9.491 13.11l42.715 42.715c5.882 5.881 13.702 9.12 22.02 9.12s16.139-3.239 22.021-9.12l20.761-20.761v-25.069z" fill="#c8effe"/><path d="m112.238 161.855h-40.309c-5.52 0-9.995 4.475-9.995 9.995v241.17c0 5.52 4.475 9.995 9.995 9.995h40.309z" fill="#c8effe"/><path d="m414.288 203.537 42.715-42.715c12.332-12.332 12.332-32.325 0-44.657-12.332-12.332-32.325-12.332-44.657 0l-5.37 5.37-6.51-6.254c-12.398-11.912-32.048-11.716-44.206.442l-.442.442c-12.332 12.332-12.332 32.325 0 44.657l42.715 42.715c4.35 4.35 11.404 4.35 15.755 0z" fill="#f37c7c"/><g><path d="m388.58 155.917c-12.332-12.332-12.332-32.325 0-44.657l.442-.442c.637-.637 1.312-1.236 1.988-1.806-11.526-4.922-25.373-2.666-34.75 6.711l-.442.442c-12.332 12.332-12.332 32.325 0 44.657l42.715 42.715c4.351 4.351 11.404 4.351 15.755 0l10.956-10.957z" fill="#ee6161"/></g><path d="m255.449 104.967 21.198-21.198c6.12-6.12 6.12-16.042 0-22.162-6.12-6.12-16.042-6.12-22.162 0l-2.665 2.665-3.23-3.104c-6.153-5.912-15.904-5.814-21.938.219l-.219.219c-6.12 6.12-6.12 16.042 0 22.162l21.198 21.198c2.158 2.16 5.659 2.16 7.818.001z" fill="#f37c7c"/><path d="m178.429 312.65 38.914-38.914c11.234-11.234 11.234-29.449 0-40.683-11.234-11.234-29.449-11.234-40.683 0l-4.892 4.892-5.93-5.698c-11.295-10.852-29.197-10.673-40.273.403l-.403.403c-11.234 11.234-11.234 29.449 0 40.683l38.914 38.914c3.964 3.963 10.39 3.963 14.353 0z" fill="#f37c7c"/><g><path d="m150.206 270.276c-11.234-11.234-11.234-29.449 0-40.684l.403-.403c1.336-1.336 2.784-2.51 4.295-3.529-9.992-3.278-21.417-.934-29.34 6.989l-.403.402c-11.234 11.234-11.234 29.449 0 40.684l38.914 38.915c3.964 3.963 10.39 3.963 14.353 0l7.075-7.076z" fill="#ee6161"/></g><path d="m287.027 383.506 31.396-31.396c9.064-9.064 9.064-23.76 0-32.824-9.064-9.064-23.76-9.064-32.824 0l-3.947 3.947-4.785-4.597c-9.113-8.756-23.556-8.611-32.492.325l-.325.325c-9.064 9.064-9.064 23.76 0 32.824l31.396 31.396c3.198 3.198 8.383 3.198 11.581 0z" fill="#f37c7c"/><g><path d="m268.209 348.531c-9.064-9.064-9.064-23.76 0-32.824l.325-.325c.463-.463.989-.898 1.48-1.313-8.487-3.659-18.727-2.02-25.639 4.892l-.325.325c-9.064 9.064-9.064 23.76 0 32.824l31.396 31.396c3.198 3.198 8.382 3.198 11.58 0l8.079-8.079z" fill="#ee6161"/></g></g></g><g><path d="m499.215 445.515h-12.525v-264.506c0-4.143-3.357-7.5-7.5-7.5s-7.5 3.357-7.5 7.5v264.506h-432.254v-289.815c0-9.013 7.332-16.346 16.345-16.346h52.569c4.143 0 7.5-3.357 7.5-7.5s-3.357-7.5-7.5-7.5h-52.57c-17.283 0-31.345 14.062-31.345 31.346v289.814h-12.525c-6.567 0-11.91 5.343-11.91 11.91v6.258c0 18.993 15.452 34.445 34.445 34.445h442.235c18.993 0 34.445-15.452 34.445-34.445v-6.258c0-6.567-5.343-11.909-11.91-11.909zm-3.09 18.168c0 10.723-8.724 19.445-19.445 19.445h-442.235c-10.722 0-19.445-8.723-19.445-19.445v-3.168h481.125z"/><path d="m226.867 131.854c0 4.143 3.357 7.5 7.5 7.5h82.601c4.143 0 7.5-3.357 7.5-7.5s-3.357-7.5-7.5-7.5h-82.601c-4.142 0-7.5 3.358-7.5 7.5z"/><path d="m109.615 154.354h-47.68c-4.143 0-7.5 3.357-7.5 7.5v261.16c0 4.143 3.357 7.5 7.5 7.5h387.255c4.143 0 7.5-3.357 7.5-7.5v-27.557c0-4.143-3.357-7.5-7.5-7.5s-7.5 3.357-7.5 7.5v20.057h-372.255v-246.16h40.181c4.143 0 7.5-3.357 7.5-7.5s-3.358-7.5-7.501-7.5z"/><path d="m441.69 211.06v152.436c0 4.143 3.357 7.5 7.5 7.5s7.5-3.357 7.5-7.5v-152.436c0-4.143-3.357-7.5-7.5-7.5s-7.5 3.357-7.5 7.5z"/><path d="m234.367 154.354c-4.143 0-7.5 3.357-7.5 7.5s3.357 7.5 7.5 7.5h86.811c4.143 0 7.5-3.357 7.5-7.5s-3.357-7.5-7.5-7.5z"/><path d="m393.229 208.839c3.521 3.521 8.202 5.461 13.181 5.461s9.661-1.939 13.181-5.46l17.161-17.16c2.93-2.929 2.93-7.678.001-10.606s-7.678-2.93-10.606-.001l-17.162 17.161c-.928.928-2.011 1.066-2.574 1.066s-1.646-.139-2.573-1.067l-42.715-42.715c-9.388-9.387-9.388-24.661 0-34.049l.441-.442c9.203-9.203 24.324-9.353 33.707-.338l6.51 6.255c2.945 2.829 7.612 2.784 10.5-.104l5.37-5.371c4.547-4.547 10.593-7.052 17.024-7.052s12.478 2.505 17.024 7.053c4.548 4.547 7.053 10.594 7.053 17.024 0 6.432-2.505 12.478-7.053 17.025l-2.879 2.879c-2.928 2.93-2.927 7.679.002 10.607 2.93 2.928 7.678 2.927 10.607-.002l2.876-2.878c7.382-7.381 11.446-17.193 11.446-27.632 0-10.438-4.064-20.251-11.445-27.631-7.381-7.382-17.193-11.446-27.632-11.446s-20.251 4.064-27.632 11.445l-.171.172-1.209-1.161c-15.23-14.633-39.771-14.388-54.706.547l-.442.443c-15.235 15.236-15.235 40.027 0 55.263z"/><path d="m242.326 110.269c2.461 2.462 5.732 3.817 9.214 3.817 3.479 0 6.752-1.355 9.213-3.815v-.001l21.196-21.197c4.377-4.376 6.787-10.194 6.787-16.385 0-6.189-2.41-12.008-6.786-16.383-4.376-4.377-10.194-6.787-16.384-6.787-5.028 0-9.812 1.59-13.775 4.533-9.066-6.903-22.214-6.194-30.442 2.033l-.219.22c-4.377 4.376-6.787 10.194-6.787 16.384s2.41 12.009 6.786 16.385zm-10.59-43.358.22-.22c1.582-1.583 3.68-2.376 5.779-2.376 2.043 0 4.087.752 5.657 2.26l3.23 3.104c2.946 2.831 7.613 2.784 10.501-.104l2.665-2.665c1.543-1.544 3.595-2.394 5.777-2.394s4.233.85 5.777 2.394c1.543 1.543 2.393 3.595 2.393 5.776 0 2.183-.85 4.234-2.394 5.778l-19.801 19.806-19.805-19.805c-1.543-1.543-2.393-3.595-2.393-5.777.001-2.182.85-4.234 2.394-5.777z"/><path d="m119.858 279.038 5.084 5.085c2.929 2.93 7.678 2.929 10.606.001 2.93-2.929 2.93-7.678.001-10.606l-5.084-5.086c-4.018-4.017-6.229-9.357-6.229-15.038s2.212-11.021 6.229-15.038l.402-.402c8.127-8.13 21.483-8.263 29.772-.298l5.931 5.697c2.945 2.831 7.612 2.784 10.5-.104l4.893-4.893c4.017-4.018 9.357-6.229 15.038-6.229s11.021 2.212 15.038 6.229c4.018 4.017 6.229 9.357 6.229 15.038s-2.212 11.021-6.229 15.038l-38.914 38.914c-.675.676-1.464.776-1.873.776-.41 0-1.198-.101-1.873-.776l-11.229-11.229c-2.93-2.928-7.678-2.928-10.607 0-2.929 2.93-2.929 7.678 0 10.607l11.229 11.228c3.333 3.334 7.766 5.17 12.48 5.17s9.146-1.836 12.48-5.169l38.914-38.914c14.141-14.142 14.141-37.149 0-51.291-14.039-14.038-36.818-14.14-50.983-.303l-.631-.606c-14.137-13.582-36.911-13.354-50.772.507l-.402.402c-14.14 14.142-14.14 37.149 0 51.29z"/><path d="m238.746 313.982c-11.974 11.974-11.974 31.457 0 43.431l31.396 31.396c2.964 2.963 6.903 4.595 11.095 4.595 4.19 0 8.13-1.632 11.094-4.595l31.396-31.396c5.8-5.801 8.994-13.513 8.994-21.716-.001-8.203-3.195-15.915-8.995-21.714-5.8-5.801-13.512-8.996-21.715-8.996-7.613 0-14.803 2.752-20.434 7.784-11.998-11.036-30.926-10.693-42.507.886zm10.608 10.608.325-.325c3.042-3.043 7.076-4.569 11.112-4.569 3.929 0 7.859 1.446 10.88 4.349l4.785 4.598c2.945 2.831 7.612 2.783 10.5-.104l3.947-3.948c2.967-2.967 6.912-4.602 11.108-4.602s8.142 1.635 11.108 4.603c2.968 2.967 4.602 6.911 4.602 11.108 0 4.196-1.634 8.141-4.602 11.107l-31.396 31.396c-.268.271-.706.269-.974 0l-31.396-31.396c-6.125-6.126-6.125-16.092.001-22.217z"/><path d="m171.253 209.735c4.143 0 7.5-3.357 7.5-7.5v-127.883c0-4.143-3.357-7.5-7.5-7.5s-7.5 3.357-7.5 7.5v127.884c0 4.142 3.357 7.499 7.5 7.499z"/><path d="m138.708 194.741c4.143 0 7.5-3.357 7.5-7.5v-67.907c0-4.143-3.357-7.5-7.5-7.5s-7.5 3.357-7.5 7.5v67.907c0 4.143 3.357 7.5 7.5 7.5z"/><path d="m203.797 194.741c4.143 0 7.5-3.357 7.5-7.5v-67.907c0-4.143-3.357-7.5-7.5-7.5s-7.5 3.357-7.5 7.5v67.907c0 4.143 3.357 7.5 7.5 7.5z"/><path d="m266.178 276.423c4.143 0 7.5-3.357 7.5-7.5v-62.123c0-4.143-3.357-7.5-7.5-7.5s-7.5 3.357-7.5 7.5v62.123c0 4.142 3.357 7.5 7.5 7.5z"/><path d="m308.741 280.311v-34.142c0-4.143-3.357-7.5-7.5-7.5s-7.5 3.357-7.5 7.5v34.142c0 4.143 3.357 7.5 7.5 7.5s7.5-3.358 7.5-7.5z"/><path d="m392.208 93.799c4.143 0 7.5-3.357 7.5-7.5v-65.802c0-4.143-3.357-7.5-7.5-7.5s-7.5 3.357-7.5 7.5v65.802c0 4.142 3.357 7.5 7.5 7.5z"/><path d="m424.29 93.799c4.143 0 7.5-3.357 7.5-7.5v-29.523c0-4.143-3.357-7.5-7.5-7.5s-7.5 3.357-7.5 7.5v29.522c0 4.143 3.357 7.501 7.5 7.501z"/></g></g></svg>