<svg id="Capa_1" enable-background="new 0 0 508.359 508.359" height="512" viewBox="0 0 508.359 508.359" width="512" xmlns="http://www.w3.org/2000/svg"><g><g><g id="XMLID_497_"><path d="m495.798 352.205c-6.958-8.504-19.062-10.694-28.559-5.168l-81.165 47.231c0-1.6-.28-3.19-.83-4.69-7.14-19.47-25.67-32.41-46.4-32.41h-66.12l-5.14-5.13c-16.36-16.36-38.54-25.55-61.67-25.55h-2c-11.56 0-22.9 2.3-33.38 6.64s-20.12 10.73-28.3 18.91h-42.4v.24h-24.67v94.432l24.673.868h86.6l88.912 37.182c8.85 3.701 18.347 5.607 27.939 5.607h24.043c15.771 0 31.111-5.148 43.688-14.663l120.96-91.5c10.119-7.652 11.852-22.18 3.819-31.999z" fill="#fed2a4"/><path d="m493.229 349.545-118.296 89.487c-12.578 9.514-27.918 14.662-43.688 14.662h-24.043c-9.593 0-19.089-1.905-27.939-5.606l-81.982-34.283c-4.575-1.913-9.484-2.898-14.443-2.898h-79.088l-24.673-.868v-57.76h-3.913v94.432l24.673.868h86.6l88.912 37.182c8.85 3.701 18.347 5.607 27.939 5.607h24.043c15.771 0 31.111-5.148 43.688-14.663l120.96-91.5c10.118-7.653 11.851-22.181 3.817-32-.792-.969-1.651-1.856-2.567-2.66z" fill="#ffbd86"/><g><g><path d="m366.452 415.409h-77.618c-4.142 0-7.5-3.357-7.5-7.5s3.358-7.5 7.5-7.5h77.618c4.94 0 9.775-1.125 13.983-3.254 4.301-2.175 8.705-5.049 10.433-6.265 3.389-2.382 8.066-1.567 10.449 1.82 2.383 3.388 1.568 8.066-1.819 10.449-2.186 1.537-7.235 4.822-12.292 7.38-6.296 3.186-13.473 4.87-20.754 4.87z" fill="#ffbd86"/></g></g></g><path d="m83.994 468.625h-76.494v-137.637h76.494c8.75 0 15.844 7.093 15.844 15.844v105.949c0 8.751-7.094 15.844-15.844 15.844z" fill="#c8effe"/><path d="m83.994 330.988h-8.83v61.34c0 19.567-15.862 35.429-35.429 35.429h-32.235v40.868h76.494c8.75 0 15.844-7.093 15.844-15.844v-105.95c0-8.749-7.094-15.843-15.844-15.843z" fill="#99e6fc"/><path d="m388.585 326.651 60.516-60.516c17.471-17.471 17.471-45.796 0-63.267-17.471-17.471-45.796-17.471-63.267 0l-7.608 7.608-9.222-8.861c-17.565-16.876-45.404-16.598-62.628.626l-.626.626c-17.471 17.471-17.471 45.796 0 63.267l60.516 60.516c6.162 6.164 16.156 6.164 22.319.001z" fill="#f37c7c"/><g><path d="m359.082 266.135c-17.471-17.471-17.471-45.796 0-63.267l.626-.626c1.569-1.569 3.243-3 4.973-4.288-17.553-13.06-42.438-11.579-58.306 4.288l-.626.626c-17.471 17.471-17.471 45.796 0 63.267l60.516 60.516c6.164 6.164 16.157 6.164 22.321 0l15.506-15.506z" fill="#ee6161"/></g><path d="m205.453 212.973 41.067-41.067c11.856-11.856 11.856-31.078 0-42.934-11.856-11.856-31.078-11.856-42.934 0l-5.163 5.163-6.258-6.013c-11.92-11.453-30.812-11.264-42.501.425l-.425.425c-11.856 11.856-11.856 31.078 0 42.934l41.067 41.067c4.183 4.183 10.965 4.183 15.147 0z" fill="#f37c7c"/><g><path d="m178.999 168.003c-11.856-11.856-11.856-31.079 0-42.935l.425-.425c1.002-1.002 2.078-1.914 3.177-2.747-10.985-4.47-24.05-2.237-32.937 6.65l-.425.425c-11.856 11.856-11.856 31.078 0 42.934l41.067 41.067c4.183 4.183 10.964 4.183 15.147 0l9.258-9.258z" fill="#ee6161"/></g></g><g><path d="m501.603 347.456c-9.344-11.422-25.383-14.322-38.135-6.901l-72.851 42.393c-9.18-20.072-29.463-33.279-51.774-33.279h-63.015l-2.937-2.938c-17.892-17.891-41.679-27.744-66.98-27.744h-1.996c-24.247 0-47.102 9.048-64.712 25.548h-31.978c-1.158-11.798-11.133-21.047-23.23-21.047h-19.624c-4.142 0-7.5 3.357-7.5 7.5s3.358 7.5 7.5 7.5h19.624c4.601 0 8.344 3.743 8.344 8.344v105.95c0 4.601-3.743 8.344-8.344 8.344h-68.995v-122.638h17.408c4.142 0 7.5-3.357 7.5-7.5s-3.358-7.5-7.5-7.5h-17.408v-7.579c0-4.143-3.358-7.5-7.5-7.5s-7.5 3.357-7.5 7.5v167.898c0 4.143 3.358 7.5 7.5 7.5s7.5-3.357 7.5-7.5v-7.682h68.994c12.096 0 22.072-9.249 23.23-21.047h77.709l45.542 19.045c.945.396 1.926.583 2.891.583 2.934 0 5.72-1.732 6.922-4.608 1.598-3.821-.205-8.215-4.026-9.813l-46.931-19.626c-.917-.384-1.9-.581-2.894-.581h-79.1v-80.544h34.898c1.989 0 3.896-.79 5.303-2.196 15.059-15.059 35.08-23.352 56.375-23.352h1.996c21.294 0 41.315 8.293 56.374 23.351l5.133 5.134c1.407 1.407 3.314 2.197 5.304 2.197h66.122c17.512 0 33.328 11.047 39.356 27.49.249.677.375 1.387.375 2.11 0 3.383-2.752 6.136-6.136 6.136h-83.6c-4.142 0-7.5 3.357-7.5 7.5s3.358 7.5 7.5 7.5h83.6c10.067 0 18.497-7.08 20.612-16.518l77.963-45.367c6.347-3.695 14.33-2.249 18.981 3.435 2.583 3.156 3.739 7.125 3.256 11.175-.483 4.049-2.54 7.634-5.792 10.094l-120.96 91.5c-11.206 8.476-25.114 13.144-39.164 13.144h-24.043c-8.645 0-17.072-1.69-25.046-5.026l-12.493-5.224c-3.82-1.594-8.214.205-9.813 4.026-1.598 3.822.205 8.215 4.026 9.813l12.493 5.223c9.817 4.105 20.19 6.188 30.833 6.188h24.043c17.296 0 34.418-5.746 48.213-16.181l120.96-91.5c6.534-4.941 10.667-12.144 11.638-20.279.97-8.137-1.353-16.11-6.541-22.451z"/><path d="m360.962 331.954c4.539 4.538 10.501 6.808 16.463 6.808s11.924-2.27 16.463-6.808l26.346-26.346c2.929-2.93 2.929-7.678 0-10.607-2.929-2.928-7.678-2.928-10.606 0l-26.346 26.346c-3.229 3.23-8.485 3.229-11.714 0l-60.516-60.517c-7.033-7.032-10.906-16.384-10.906-26.329 0-9.946 3.873-19.298 10.906-26.33l.626-.626c14.232-14.231 37.617-14.465 52.129-.522l9.223 8.861c2.945 2.83 7.612 2.783 10.5-.105l7.607-7.607c14.519-14.52 38.143-14.52 52.661 0 7.033 7.032 10.906 16.384 10.906 26.33 0 9.945-3.873 19.297-10.907 26.33l-11.569 11.57c-2.929 2.929-2.928 7.678 0 10.606 2.93 2.928 7.678 2.929 10.607-.001l11.569-11.569c9.866-9.866 15.3-22.984 15.3-36.937s-5.434-27.071-15.3-36.938c-20.368-20.366-53.508-20.365-73.875.001l-2.409 2.409-3.921-3.768c-9.791-9.407-22.62-14.568-36.178-14.568-.178 0-.357.001-.535.003-13.755.138-26.688 5.57-36.415 15.297l-.626.626c-9.866 9.866-15.3 22.984-15.3 36.938 0 13.952 5.434 27.07 15.3 36.937z"/><path d="m357.304 153.174c4.142 0 7.5-3.357 7.5-7.5v-99.928c0-4.143-3.358-7.5-7.5-7.5s-7.5 3.357-7.5 7.5v99.928c0 4.143 3.358 7.5 7.5 7.5z"/><path d="m402.756 168.054c4.142 0 7.5-3.357 7.5-7.5v-41.824c0-4.143-3.358-7.5-7.5-7.5s-7.5 3.357-7.5 7.5v41.824c0 4.143 3.358 7.5 7.5 7.5z"/><path d="m185.002 218.276c3.439 3.44 8.013 5.335 12.877 5.335s9.438-1.895 12.877-5.335v.001l41.067-41.067c7.151-7.15 11.089-16.658 11.089-26.771s-3.938-19.62-11.089-26.77c-7.15-7.151-16.658-11.09-26.77-11.09-10.096 0-19.589 3.926-26.735 11.054l-.958-.92c-14.756-14.178-38.532-13.938-53.003.533l-.422.422c-7.151 7.15-11.089 16.658-11.089 26.771s3.938 19.62 11.089 26.771zm-30.457-84.004.422-.422c4.427-4.427 10.296-6.647 16.168-6.647 5.717 0 11.438 2.104 15.833 6.327l6.259 6.014c2.945 2.83 7.612 2.784 10.5-.104l5.163-5.164c4.318-4.317 10.058-6.695 16.164-6.695 6.105 0 11.846 2.378 16.164 6.696 4.317 4.317 6.695 10.058 6.695 16.163 0 6.106-2.378 11.847-6.695 16.164l-41.067 41.066v.001c-.818.818-1.773.94-2.27.94s-1.452-.122-2.271-.941l-41.067-41.065c-4.317-4.318-6.695-10.059-6.695-16.165-.001-6.107 2.377-11.847 6.697-16.168z"/><path d="m182.225 102.757c4.142 0 7.5-3.357 7.5-7.5v-77.264c0-4.143-3.358-7.5-7.5-7.5s-7.5 3.357-7.5 7.5v77.265c0 4.142 3.358 7.499 7.5 7.499z"/><path d="m218.07 102.757c4.142 0 7.5-3.357 7.5-7.5v-28.383c0-4.143-3.358-7.5-7.5-7.5s-7.5 3.357-7.5 7.5v28.383c0 4.143 3.358 7.5 7.5 7.5z"/></g></g></svg>