<svg id="Capa_1" enable-background="new 0 0 513.266 513.266" height="512" viewBox="0 0 513.266 513.266" width="512" xmlns="http://www.w3.org/2000/svg"><g><g><path d="m404.064 453.988c0 28.596-23.182 51.778-51.778 51.778h-191.307c-28.596 0-51.778-23.182-51.778-51.778v-394.71c0-28.596 23.182-51.778 51.778-51.778h191.307c28.596 0 51.778 23.182 51.778 51.778z" fill="#5f99d7"/><path d="m190.433 453.988v-394.71c0-28.596 23.182-51.778 51.778-51.778h-81.231c-28.596 0-51.778 23.182-51.778 51.778v394.71c0 28.596 23.182 51.778 51.778 51.778h81.231c-28.597 0-51.778-23.182-51.778-51.778z" fill="#3c87d0"/><path d="m374.064 453.988c0 12.027-9.75 21.777-21.777 21.777h-191.308c-12.028 0-21.778-9.75-21.778-21.778v-394.709c0-12.028 9.75-21.778 21.778-21.778h12.381c2.68 0 5.079 1.662 6.021 4.171l2.947 7.85c3.249 8.655 11.525 14.388 20.77 14.388h107.068c9.245 0 17.521-5.733 20.771-14.388l2.947-7.85c.942-2.509 3.341-4.171 6.021-4.171h12.382c12.027 0 21.777 9.75 21.777 21.777z" fill="#dff6fd"/><path d="m190.433 453.988v-394.052c-3.615-2.514-6.485-6.101-8.104-10.416l-2.947-7.85c-.942-2.509-3.341-4.171-6.021-4.171h-12.381c-12.028 0-21.778 9.75-21.778 21.778v394.71c0 12.028 9.75 21.778 21.778 21.778h34.256c-3.076-6.621-4.803-13.995-4.803-21.777z" fill="#c8effe"/><g id="XMLID_510_"><g><circle cx="256.133" cy="200.912" fill="#99e6fc" r="85.59"/></g></g><g id="XMLID_513_"><g><path d="m321.833 255.752c-15.69 18.8-39.3 30.75-65.7 30.75s-50.01-11.95-65.7-30.75c.09-18.41 7.77-35.02 20.05-46.9l31.33-24.65h30.16l29.81 24.65c12.28 11.88 19.96 28.49 20.05 46.9z" fill="#ade194"/></g></g><path d="m301.783 208.852-29.81-24.65h-6.864l-32.815 29.961-17.505-8.699-4.306 3.388c-12.28 11.88-19.96 28.49-20.05 46.9 5.707 6.838 12.465 12.764 20.02 17.544.446-7.29 2.086-14.254 4.723-20.706 3.204-7.839 11.959-11.945 20.068-9.505 6.618 1.99 13.629 3.063 20.888 3.063 22.105 0 41.928-9.901 55.312-25.485-2.763-4.303-6.002-8.271-9.661-11.811z" fill="#97da7b"/><circle cx="256.133" cy="173.233" fill="#ffe5c2" r="57.915"/><path d="m228.271 173.233c0-26.787 18.214-49.321 42.913-55.94-4.793-1.284-9.852-1.975-15.051-1.975-31.986 0-57.915 25.929-57.915 57.915 0 31.985 25.929 57.915 57.915 57.915 5.199 0 10.262-.692 15.055-1.976-24.699-6.619-42.917-29.152-42.917-55.939z" fill="#fed2a4"/><path d="m319.686 396h-127.107c-5.02 0-9.09-4.07-9.09-9.09v-27.279c0-5.02 4.07-9.09 9.09-9.09h127.107c5.02 0 9.09 4.07 9.09 9.09v27.279c0 5.02-4.07 9.09-9.09 9.09z" fill="#99e6fc"/></g><g><path d="m352.286 0h-191.307c-32.686 0-59.278 26.592-59.278 59.277v394.711c0 32.686 26.592 59.277 59.278 59.277h191.307c32.687 0 59.278-26.592 59.278-59.277v-394.711c0-32.685-26.592-59.277-59.278-59.277zm44.278 453.988c0 24.415-19.863 44.277-44.278 44.277h-191.307c-24.415 0-44.278-19.862-44.278-44.277v-394.711c0-24.415 19.863-44.277 44.278-44.277h191.307c24.415 0 44.278 19.862 44.278 44.277z"/><path d="m352.287 30h-12.382c-5.771 0-11.013 3.63-13.043 9.035l-2.946 7.849c-2.139 5.697-7.664 9.525-13.749 9.525h-107.069c-6.085 0-11.61-3.828-13.749-9.524l-2.947-7.852c-2.029-5.403-7.27-9.033-13.041-9.033h-12.381c-16.144 0-29.278 13.134-29.278 29.277v40.843c0 4.143 3.358 7.5 7.5 7.5s7.5-3.357 7.5-7.5v-40.843c0-7.872 6.405-14.277 14.278-14.277h11.641l2.686 7.156c4.323 11.516 15.492 19.253 27.792 19.253h107.068c12.299 0 23.468-7.737 27.792-19.253l2.686-7.156h11.642c7.873 0 14.277 6.405 14.277 14.277v394.711c0 7.872-6.404 14.277-14.277 14.277h-191.308c-7.873 0-14.278-6.405-14.278-14.277v-321.905c0-4.143-3.358-7.5-7.5-7.5s-7.5 3.357-7.5 7.5v321.905c0 16.144 13.134 29.277 29.278 29.277h191.308c16.144 0 29.277-13.134 29.277-29.277v-394.711c0-16.143-13.134-29.277-29.277-29.277z"/><path d="m219.122 42.158h79.316c4.143 0 7.5-3.357 7.5-7.5s-3.357-7.5-7.5-7.5h-79.316c-4.142 0-7.5 3.357-7.5 7.5s3.358 7.5 7.5 7.5z"/><path d="m256.133 107.817c-51.331 0-93.091 41.761-93.091 93.091s41.76 93.091 93.091 93.091c51.33 0 93.091-41.761 93.091-93.091s-41.761-93.091-93.091-93.091zm78.09 93.091c0 12.287-2.861 23.914-7.938 34.266-2.938-9.925-7.966-19.126-14.887-27.071 6.43-10.139 10.15-22.121 10.15-34.871 0-6.587-.989-12.946-2.808-18.947 9.721 13.021 15.483 29.161 15.483 46.623zm-140.697-46.623c-1.82 6.001-2.808 12.36-2.808 18.947 0 12.631 3.623 24.69 10.119 34.96-6.891 7.923-11.926 17.079-14.865 26.964-5.072-10.348-7.929-21.969-7.929-34.249-.001-17.461 5.762-33.601 15.483-46.622zm62.607 124.714c-23.058 0-43.806-10.052-58.114-25.996.628-12.124 4.965-23.516 12.44-32.941 4.374 4.261 9.381 7.956 14.941 10.92 3.654 1.948 8.197.565 10.147-3.09 1.949-3.655.565-8.197-3.09-10.146-16.493-8.794-26.739-25.85-26.739-44.513 0-27.799 22.616-50.414 50.415-50.414s50.415 22.615 50.415 50.414c0 26.317-20.546 48.397-46.774 50.268-4.132.295-7.242 3.883-6.948 8.015.282 3.95 3.574 6.967 7.473 6.967.179 0 .36-.006.541-.019 15.906-1.134 30.2-7.997 40.917-18.467 7.505 9.438 11.861 20.855 12.491 33.005-14.308 15.944-35.057 25.997-58.115 25.997z"/><path d="m319.686 388.5h-17.435c-4.143 0-7.5 3.357-7.5 7.5s3.357 7.5 7.5 7.5h17.435c9.147 0 16.59-7.442 16.59-16.59v-27.279c0-9.147-7.442-16.59-16.59-16.59h-127.107c-9.148 0-16.59 7.442-16.59 16.59v27.279c0 9.147 7.442 16.59 16.59 16.59h77.71c4.143 0 7.5-3.357 7.5-7.5s-3.357-7.5-7.5-7.5h-77.71c-.877 0-1.59-.713-1.59-1.59v-27.279c0-.877.713-1.59 1.59-1.59h127.107c.877 0 1.59.713 1.59 1.59v27.279c0 .877-.713 1.59-1.59 1.59z"/></g></g></svg>