<svg id="Capa_1" enable-background="new 0 0 513.266 513.266" height="512" viewBox="0 0 513.266 513.266" width="512" xmlns="http://www.w3.org/2000/svg"><g><g><path d="m353.918 453.988c0 28.596-23.182 51.778-51.778 51.778h-191.307c-28.596 0-51.778-23.182-51.778-51.778v-394.71c0-28.596 23.182-51.778 51.778-51.778h191.307c28.596 0 51.778 23.182 51.778 51.778z" fill="#5f99d7"/><path d="m140.287 453.988v-394.71c0-28.596 23.182-51.778 51.778-51.778h-81.231c-28.596 0-51.778 23.182-51.778 51.778v394.71c0 28.596 23.182 51.778 51.778 51.778h81.231c-28.596 0-51.778-23.182-51.778-51.778z" fill="#3c87d0"/><path d="m302.14 7.5h-124.29c-10.954 11.518-17.698 27.074-17.698 44.187v131.438c0 7.944 3.174 15.28 8.936 20.657 5.292 4.938 12.19 7.658 19.426 7.657 7.603-.001 14.748-3.013 20.122-8.482l17.018-17.32h128.265v-126.359c-.001-28.596-23.182-51.778-51.779-51.778z" fill="#3c87d0"/><path d="m323.918 453.988c0 12.027-9.75 21.777-21.777 21.777h-191.308c-12.028 0-21.778-9.75-21.778-21.778v-394.709c0-12.028 9.75-21.778 21.778-21.778h12.381c2.68 0 5.079 1.662 6.021 4.171l2.947 7.85c3.249 8.655 11.525 14.388 20.77 14.388h107.068c9.245 0 17.521-5.733 20.771-14.388l2.947-7.85c.942-2.509 3.341-4.171 6.021-4.171h12.382c12.027 0 21.777 9.75 21.777 21.777z" fill="#dff6fd"/><path d="m323.918 59.277c0-12.027-9.75-21.777-21.777-21.777h-12.382c-2.68 0-5.079 1.662-6.021 4.171l-2.947 7.85c-3.249 8.655-11.525 14.389-20.771 14.389h-99.869v119.216c0 7.944 3.174 15.28 8.936 20.657 5.292 4.938 12.19 7.658 19.426 7.657 7.603-.001 14.748-3.013 20.122-8.482l17.018-17.32h98.266v-126.361z" fill="#c8effe"/><path d="m140.287 453.988v-394.052c-3.615-2.514-6.485-6.101-8.104-10.416l-2.947-7.85c-.942-2.509-3.341-4.171-6.021-4.171h-12.381c-12.028 0-21.778 9.75-21.778 21.778v394.71c0 12.028 9.75 21.778 21.778 21.778h34.256c-3.075-6.621-4.803-13.995-4.803-21.777z" fill="#c8effe"/><g><path d="m410.028 165.637h-192.763l-22.896 23.304c-5.206 5.299-14.217 1.613-14.217-5.816v-131.439c0-24.401 19.781-44.182 44.182-44.182h185.694c24.401 0 44.182 19.781 44.182 44.182v69.768c0 24.401-19.781 44.183-44.182 44.183z" fill="#fee97d"/><path d="m243.596 51.687c0-24.401 19.781-44.183 44.183-44.183h-63.445c-24.401 0-44.182 19.781-44.182 44.183v131.438c0 7.428 9.011 11.114 14.217 5.815l22.896-23.304h26.332v-113.949z" fill="#fee45a"/><path d="m268.176 403.585h-123.378c-5.121 0-9.273-4.152-9.273-9.273v-26.907c0-5.121 4.152-9.273 9.273-9.273h123.378c5.121 0 9.273 4.152 9.273 9.273v26.907c0 5.121-4.152 9.273-9.273 9.273z" fill="#99e6fc"/></g></g><g><path d="m353.918 188.137c-4.143 0-7.5 3.357-7.5 7.5v258.352c0 24.415-19.863 44.277-44.278 44.277h-191.307c-24.415 0-44.278-19.862-44.278-44.277v-394.712c0-24.415 19.863-44.277 44.278-44.277h53.954c4.143 0 7.5-3.357 7.5-7.5s-3.357-7.5-7.5-7.5h-53.954c-32.686 0-59.278 26.592-59.278 59.277v394.711c0 32.686 26.592 59.277 59.278 59.277h191.307c32.687 0 59.278-26.592 59.278-59.277v-258.351c0-4.143-3.357-7.5-7.5-7.5z"/><path d="m81.555 453.988c0 16.144 13.134 29.277 29.278 29.277h191.308c16.144 0 29.277-13.134 29.277-29.277v-258.351c0-4.143-3.357-7.5-7.5-7.5s-7.5 3.357-7.5 7.5v258.352c0 7.872-6.405 14.277-14.277 14.277h-191.308c-7.873 0-14.278-6.405-14.278-14.277v-274.6c0-4.143-3.357-7.5-7.5-7.5s-7.5 3.357-7.5 7.5z"/><path d="m89.055 154.926c4.143 0 7.5-3.357 7.5-7.5v-88.149c0-7.872 6.405-14.277 14.278-14.277h11.641l2.687 7.157c3.878 10.327 13.092 17.607 24.046 19 4.111.532 7.864-2.385 8.386-6.495.522-4.108-2.386-7.863-6.495-8.386-5.419-.688-9.977-4.288-11.894-9.392l-2.946-7.852c-2.031-5.402-7.272-9.032-13.043-9.032h-12.382c-16.145 0-29.278 13.134-29.278 29.277v88.148c0 4.143 3.358 7.501 7.5 7.501z"/><path d="m410.028.004h-185.694c-28.498 0-51.683 23.185-51.683 51.683v131.438c0 6.443 3.854 12.183 9.816 14.622 1.95.798 3.986 1.186 6.003 1.186 4.147 0 8.209-1.643 11.247-4.736l20.691-21.06h49.056c4.143 0 7.5-3.357 7.5-7.5s-3.357-7.5-7.5-7.5h-52.201c-2.012 0-3.939.809-5.35 2.244l-22.896 23.304c-.14.144-.375.384-.871.179-.496-.202-.496-.538-.496-.738v-131.439c0-20.227 16.456-36.683 36.683-36.683h185.693c20.227 0 36.683 16.456 36.683 36.683v69.768c0 20.227-16.456 36.683-36.683 36.683h-108.599c-4.143 0-7.5 3.357-7.5 7.5s3.357 7.5 7.5 7.5h108.601c28.498 0 51.683-23.185 51.683-51.683v-69.768c-.001-28.499-23.185-51.683-51.683-51.683z"/><path d="m427.425 57.098c0-4.143-3.357-7.5-7.5-7.5h-194.142c-4.143 0-7.5 3.357-7.5 7.5s3.357 7.5 7.5 7.5h194.143c4.142 0 7.499-3.358 7.499-7.5z"/><path d="m269.465 106.972h150.46c4.143 0 7.5-3.357 7.5-7.5s-3.357-7.5-7.5-7.5h-150.46c-4.143 0-7.5 3.357-7.5 7.5s3.358 7.5 7.5 7.5z"/><path d="m225.783 91.972c-4.143 0-7.5 3.357-7.5 7.5s3.357 7.5 7.5 7.5h10.313c4.143 0 7.5-3.357 7.5-7.5s-3.357-7.5-7.5-7.5z"/><path d="m144.798 350.632c-9.249 0-16.773 7.524-16.773 16.773v26.906c0 9.248 7.524 16.772 16.773 16.772h19.372c4.143 0 7.5-3.357 7.5-7.5s-3.357-7.5-7.5-7.5h-19.372c-.978 0-1.773-.795-1.773-1.772v-26.906c0-.978.796-1.773 1.773-1.773h123.378c.978 0 1.773.796 1.773 1.773v26.906c0 .978-.796 1.772-1.773 1.772h-72.043c-4.143 0-7.5 3.357-7.5 7.5s3.357 7.5 7.5 7.5h72.043c9.249 0 16.773-7.524 16.773-16.772v-26.906c0-9.249-7.524-16.773-16.773-16.773z"/></g></g></svg>