<svg height="512" viewBox="0 0 60 60" width="512" xmlns="http://www.w3.org/2000/svg" xmlns:xlink="http://www.w3.org/1999/xlink"><linearGradient id="linearGradient-1" x1="13.464%" x2="86.473%" y1="16.991%" y2="83.009%"><stop offset="0" stop-color="#d3dff2"/><stop offset=".17" stop-color="#d3dff2"/><stop offset=".2" stop-color="#d3dff2"/><stop offset=".2" stop-color="#dae2f2"/><stop offset=".2" stop-color="#ebeaf2"/><stop offset=".2" stop-color="#f6eff2"/><stop offset=".2" stop-color="#fdf2f2"/><stop offset=".2" stop-color="#fff3f2"/><stop offset=".25" stop-color="#fff3f2"/><stop offset=".26" stop-color="#fff3f2"/><stop offset=".26" stop-color="#d3dff2"/><stop offset=".4" stop-color="#d3dff2"/><stop offset=".42" stop-color="#d3dff2"/><stop offset=".42" stop-color="#dae2f2"/><stop offset=".42" stop-color="#ebeaf2"/><stop offset=".42" stop-color="#f6eff2"/><stop offset=".42" stop-color="#fdf2f2"/><stop offset=".42" stop-color="#fff3f2"/><stop offset=".49" stop-color="#fff3f2"/><stop offset=".5" stop-color="#fff3f2"/><stop offset=".5" stop-color="#f8f0f2"/><stop offset=".5" stop-color="#e7e8f2"/><stop offset=".5" stop-color="#dce3f2"/><stop offset=".5" stop-color="#d5e0f2"/><stop offset=".5" stop-color="#d3dff2"/><stop offset=".71" stop-color="#d3dff2"/><stop offset=".74" stop-color="#d3dff2"/><stop offset=".74" stop-color="#fff3f2"/><stop offset=".83" stop-color="#fff3f2"/><stop offset=".85" stop-color="#fff3f2"/><stop offset=".85" stop-color="#d3dff2"/></linearGradient><g id="026---Bus-Times" fill="none"><g id="Icons" transform="translate(1)"><path id="Shape" d="m0 49h8v8c0 1.1045695-.8954305 2-2 2h-4c-1.1045695 0-2-.8954305-2-2z" fill="#a4c2f7"/><path id="Shape" d="m32 49h4c1.1045695 0 2 .8954305 2 2v8h-8v-8c0-1.1045695.8954305-2 2-2z" fill="#7facfa" transform="matrix(-1 0 0 -1 68 108)"/><path id="Shape" d="m32 49h1c1.1045695 0 2 .8954305 2 2v8h-5v-8c0-1.1045695.8954305-2 2-2z" fill="#a4c2f7" transform="matrix(-1 0 0 -1 65 108)"/><path id="Shape" d="m38 8.6v41.4h-38v-41.4c-.01744108-1.05622907.52191776-2.04378751 1.42-2.6 4.8976194-2.89585632 10.4038232-4.60798436 16.08-5 6.7047465-.17021272 13.3204207 1.56345453 19.08 5 .8980822.55621249 1.4374411 1.54377093 1.42 2.6z" fill="#cad9fc"/><path id="Shape" d="m35 8.6v41.4h-35v-41.4c-.01744108-1.05622907.52191776-2.04378751 1.42-2.6 4.8976194-2.89585632 10.4038232-4.60798436 16.08-5 5.6761768.39201564 11.1823806 2.10414368 16.08 5 .8980822.55621249 1.4374411 1.54377093 1.42 2.6z" fill="#e8edfc"/><rect id="Rectangle-path" fill="#b0d3f0" height="6" rx="2" width="8" x="4" y="39"/><rect id="Rectangle-path" fill="#a4c2f7" height="6" rx="2" width="8" x="4" y="39"/><rect id="Rectangle-path" fill="#b0d3f0" height="6" rx="2" transform="matrix(-1 0 0 -1 60 84)" width="8" x="26" y="39"/><rect id="Rectangle-path" fill="#a4c2f7" height="6" rx="2" transform="matrix(-1 0 0 -1 60 84)" width="8" x="26" y="39"/><path id="Shape" d="m34 13.91v18.18c-.0481655 1.0692723-.929644 1.9110843-2 1.91h-26c-1.070356.0010843-1.9518345-.8407277-2-1.91v-18.18c.0481655-1.0692723.929644-1.9110843 2-1.91h26c1.070356-.0010843 1.9518345.8407277 2 1.91z" fill="#7facfa"/><g fill="#a4c2f7"><path id="Shape" d="m31 13.91v18.18c.0280471 1.0236021-.7765343 1.8773524-1.8 1.91h-23.4c-1.02346569-.0326476-1.8280471-.8863979-1.8-1.91v-18.18c-.0280471-1.0236021.77653431-1.8773524 1.8-1.91h23.4c1.0234657.0326476 1.8280471.8863979 1.8 1.91z"/><path id="Shape" d="m24 5c.5522847 0 1 .44771525 1 1v2c0 .55228475-.4477153 1-1 1h-10c-.5522847 0-1-.44771525-1-1v-2c0-.55228475.4477153-1 1-1z"/><path id="Shape" d="m58 16c-.0021998 4.2326297-1.7925208 8.2673297-4.9294072 11.1090022-3.1368865 2.8416725-7.3283367 4.2257961-11.5405928 3.8109978h-.06c-7.644292-.7926733-13.4528736-7.2347198-13.4528736-14.92s5.8085816-14.12732669 13.4528736-14.92h.06c4.2122561-.41479834 8.4037063.96932532 11.5405928 3.81099781 3.1368864 2.8416725 4.9272074 6.87637249 4.9294072 11.10900219z"/></g><path id="Shape" d="m55 16c-.0009055 7.6911917-5.8189225 14.1354985-13.47 14.92h-.06c-7.644292-.7926733-13.4528736-7.2347198-13.4528736-14.92s5.8085816-14.12732669 13.4528736-14.92h.06c7.6510775.7845015 13.4690945 7.22880833 13.47 14.92z" fill="url(#linearGradient-1)"/><circle id="Oval" cx="43" cy="16" fill="#e8edfc" r="2"/><path id="Shape" d="m3 57v-48.4c-.01744108-1.05622907.52191776-2.04378751 1.42-2.6 4.89419167-2.8953927 10.3970475-4.60754449 16.07-5-6.7018793-.1727095-13.31502805 1.56120469-19.07 5-.89808224.55621249-1.43744108 1.54377093-1.42 2.6v48.4c0 1.1045695.8954305 2 2 2h3c-1.1045695 0-2-.8954305-2-2z" fill="#fff"/></g><g id="Layer_2" transform="translate(0 -1)"><path id="Rectangle-path" d="m0 43h2v8h-2z" fill="#fff"/><g fill="#428dff"><path id="Shape" d="m57.86 9c-2.1211433-3.6765325-5.6162306-6.35957108-9.7160204-7.4585998-4.0997897-1.09902873-8.4682726-.52397375-12.1439796 1.5985998l-.08.07c-.5258104.30328287-1.0333513.63719132-1.52 1-4.5537919-1.97107465-9.4401859-3.06033329-14.4-3.21-.4 0-9.94.06-18.11 5.19-1.17879873.73192346-1.89408255 2.02246199-1.89 3.41v33.4c0 .5522847.44771525 1 1 1s1-.4477153 1-1v-33.4c.00781643-.70664079.38796873-1.35670122 1-1.71 7.62-4.82 16.91-4.89 17-4.89 4.3594224.15445145 8.6593621 1.06112637 12.71 2.68-.9677596.96926152-1.8078781 2.05805506-2.5 3.24l-.07.08v.08c-.5400557.9263093-.985629 1.9045603-1.33 2.92h-21.81c-1.62233408-.0007302-2.95133014 1.288396-3 2.91v18.18c.04866986 1.621604 1.37766592 2.9107302 3 2.91h26c1.6223341.0007302 2.9513301-1.288396 3-2.91v-2.23h.11c.6077111.3504861 1.2392614.6579074 1.89.92v18.22h-37c-.55228475 0-1 .4477153-1 1v7c0 1.6568542 1.34314575 3 3 3h4c1.65685425 0 3-1.3431458 3-3v-6h20v6c0 1.6568542 1.3431458 3 3 3h4c1.6568542 0 3-1.3431458 3-3v-25.53c6.8958785 1.8087188 14.153114-1.1906116 17.76-7.34.16-.2.08-.11.12-.21 2.8335284-4.9303348 2.8259072-10.9968002-.02-15.92zm-49.86 49c0 .5522847-.44771525 1-1 1h-4c-.55228475 0-1-.4477153-1-1v-6h6zm30 0c0 .5522847-.4477153 1-1 1h-4c-.5522847 0-1-.4477153-1-1v-6h6zm-5-24h-26c-.5189652.0021057-.95329702-.3931362-1-.91v-18.18c.04670298-.5168638.4810348-.9121057 1-.91h21.29c-.7227955 3.7698726-.0661993 7.6739583 1.85 11 .0308881.0451606.0642733.0885614.1.13.986459 1.6578967 2.2595676 3.127389 3.76 4.34v3.62c-.046703.5168638-.4810348.9121057-1 .91zm18.85-5.41-.48-.83c-.2761424-.4804877-.8895123-.6461424-1.37-.37s-.6461424.8895123-.37 1.37l.48.82c-1.5972993.7945944-3.3317496 1.2765747-5.11 1.42v-1c0-.5522847-.4477153-1-1-1s-1 .4477153-1 1v1c-1.7749225-.1277551-3.5092157-.5927222-5.11-1.37l.48-.82c.2761424-.4804877.1104877-1.0938576-.37-1.37s-1.0938576-.1104877-1.37.37l-.48.83c-1.4706538-1.0005176-2.7394824-2.2693462-3.74-3.74l.83-.48c.4804877-.2761424.6461424-.8895123.37-1.37s-.8895123-.6461424-1.37-.37l-.82.48c-.7834283-1.6161975-1.2485505-3.3680446-1.37-5.16h.95c.5522847 0 1-.4477153 1-1s-.4477153-1-1-1h-.95c.1277551-1.7749225.5927222-3.5092157 1.37-5.11l.82.48c.4804877.2761424 1.0938576.1104877 1.37-.37s.1104877-1.09385763-.37-1.37l-.83-.48c1.0005176-1.4706538 2.2693462-2.73948237 3.74-3.74l.48.83c.2761424.48048773.8895123.64614237 1.37.37s.6461424-.88951227.37-1.37l-.48-.82c3.8527869-1.89563623 8.3672131-1.89563623 12.22 0l-.48.82c-.1786328.31082106-.1778752.69333103.0019873 1.0034421s.5115047.50070999.87.5.6893799-.19262104.8680127-.5034421l.48-.83c1.4706538 1.00051763 2.7394824 2.2693462 3.74 3.74l-.83.48c-.4804877.27614237-.6461424.8895123-.37 1.37s.8895123.6461424 1.37.37l.82-.48c.7945944 1.5972993 1.2765747 3.3317496 1.42 5.11h-1c-.5522847 0-1 .4477153-1 1s.4477153 1 1 1h1c-.1277551 1.7749225-.5927222 3.5092157-1.37 5.11l-.82-.48c-.4804877-.2761424-1.0938576-.1104877-1.37.37s-.1104877 1.0938576.37 1.37l.83.48c-1.0152772 1.4752711-2.3013764 2.7444034-3.79 3.74z"/><path id="Shape" d="m46.7 18.29c.3630432-.7656108.3853937-1.6490423.0615295-2.4320317-.3238642-.7829893-.9637369-1.3925085-1.7615295-1.6779683v-7.18c0-.55228475-.4477153-1-1-1s-1 .44771525-1 1v7.18c-1.083668.3400621-1.8823794 1.2629413-2.063414 2.3841929s.2866517 2.2486004 1.2082345 2.9124256 2.1390266.7502922 3.1451795.2233815l4 4c.2536586.2536586.623374.3527235.969878.259878.3465041-.0928454.6171546-.3634959.71-.71.0928455-.346504-.0062194-.7162194-.259878-.969878zm-3.7-1.29c-.0018977-.4526117.300449-.8500661.7371503-.969032s.8988609.0702222 1.1267893.4612587c.2279283.3910366.1647891.8864122-.1539396 1.2077733-.2848091.2871614-.714552.3744903-1.0888524.2212679s-.6194518-.5168238-.6211476-.9212679z"/><path id="Shape" d="m1 48c-.55228475 0-1-.4477153-1-1s.44771525-1 1-1 1 .4477153 1 1-.44771525 1-1 1z"/><path id="Shape" d="m11 47c1.6568542 0 3-1.3431458 3-3v-2c0-1.6568542-1.3431458-3-3-3h-4c-1.65685425 0-3 1.3431458-3 3v2c0 1.6568542 1.34314575 3 3 3zm-5-3v-2c0-.5522847.44771525-1 1-1h4c.5522847 0 1 .4477153 1 1v2c0 .5522847-.4477153 1-1 1h-4c-.55228475 0-1-.4477153-1-1z"/><path id="Shape" d="m33 47c1.6568542 0 3-1.3431458 3-3v-2c0-1.6568542-1.3431458-3-3-3h-4c-1.6568542 0-3 1.3431458-3 3v2c0 1.6568542 1.3431458 3 3 3zm-5-3v-2c0-.5522847.4477153-1 1-1h4c.5522847 0 1 .4477153 1 1v2c0 .5522847-.4477153 1-1 1h-4c-.5522847 0-1-.4477153-1-1z"/><path id="Shape" d="m23 45c.5522847 0 1-.4477153 1-1s-.4477153-1-1-1h-6c-.5522847 0-1 .4477153-1 1s.4477153 1 1 1z"/><path id="Shape" d="m25 11c1.1045695 0 2-.8954305 2-2v-2c0-1.1045695-.8954305-2-2-2h-10c-1.1045695 0-2 .8954305-2 2v2c0 1.1045695.8954305 2 2 2zm-10-4h10v2h-10z"/></g></g></g></svg>